<svg width="42" height="42" viewBox="0 0 42 42" fill="none" xmlns="http://www.w3.org/2000/svg">
<path d="M21 17.5C24.866 17.5 28 14.366 28 10.5C28 6.63401 24.866 3.5 21 3.5C17.134 3.5 14 6.63401 14 10.5C14 14.366 17.134 17.5 21 17.5Z" stroke="white" stroke-width="3"/>
<path d="M34.9965 31.5C35 31.213 35 30.9207 35 30.625C35 26.2763 28.7315 22.75 21 22.75C13.2685 22.75 7 26.2763 7 30.625C7 34.9737 7 38.5 21 38.5C24.9042 38.5 27.72 38.2252 29.75 37.7352" stroke="white" stroke-width="3" stroke-linecap="round"/>
</svg>
