<svg width="330" height="309" viewBox="0 0 330 309" fill="none" xmlns="http://www.w3.org/2000/svg">
<rect x="0.894531" width="329.107" height="308.995" rx="8" fill="#E74A37"/>
<rect x="0.894531" width="329.107" height="308.995" rx="8" fill="url(#paint0_linear_4009_205)"/>
<g opacity="0.5">
<path d="M126 145H205M152.252 110.779C154.127 112.915 156.472 114.567 159.096 115.599C161.719 116.632 164.545 117.015 167.342 116.718C170.139 116.42 172.827 115.451 175.184 113.889C177.542 112.327 179.503 110.218 180.905 107.733C182.307 105.249 183.111 102.461 183.251 99.5983C183.391 96.7357 182.862 93.8802 181.708 91.2664C180.555 88.6525 178.809 86.3549 176.615 84.5624C174.421 82.7698 171.841 81.5334 169.087 80.9548M169.087 80.9548L159.575 90.6493L145.75 76.5584L167.357 54.5364C168.02 53.8595 168.809 53.3226 169.676 52.9563C170.544 52.59 171.473 52.4015 172.413 52.4015C173.352 52.4015 174.281 52.59 175.149 52.9563C176.016 53.3226 176.805 53.8595 177.468 54.5364L181.182 58.3208C181.846 58.9975 182.372 59.8008 182.732 60.685C183.091 61.5692 183.276 62.5169 183.276 63.474C183.276 64.4311 183.091 65.3788 182.732 66.263C182.372 67.1472 181.846 67.9506 181.182 68.6273L178.369 71.4938M169.087 80.9548L178.369 71.4938M138.34 110.779C140.098 114.874 142.724 118.521 146.03 121.459C149.335 124.396 153.238 126.551 157.458 127.769M157.458 127.769C159.733 125.891 162.572 124.866 165.5 124.866C168.428 124.866 171.267 125.891 173.542 127.769M157.458 127.769C156.039 128.94 154.884 130.408 154.069 132.073L151.675 136.948C151.675 136.948 147.725 145 139.825 145H191.175C183.275 145 179.325 136.948 179.325 136.948L176.931 132.073C176.116 130.408 174.961 128.94 173.542 127.769M143.775 88.6364L149.7 94.6753M126 104.74H161.55M178.369 71.4938C183.786 74.1581 188.279 78.4392 191.252 83.7683C194.225 89.0974 195.537 95.2224 195.013 101.329C194.489 107.436 192.155 113.236 188.32 117.959C184.485 122.681 179.331 126.103 173.542 127.769M179.325 56.4286L183.67 52" stroke="url(#paint1_radial_4009_205)" stroke-opacity="0.2" stroke-width="6"/>
<path d="M126 145H205M152.252 110.779C154.127 112.915 156.472 114.567 159.096 115.599C161.719 116.632 164.545 117.015 167.342 116.718C170.139 116.42 172.827 115.451 175.184 113.889C177.542 112.327 179.503 110.218 180.905 107.733C182.307 105.249 183.111 102.461 183.251 99.5983C183.391 96.7357 182.862 93.8802 181.708 91.2664C180.555 88.6525 178.809 86.3549 176.615 84.5624C174.421 82.7698 171.841 81.5334 169.087 80.9548M169.087 80.9548L159.575 90.6493L145.75 76.5584L167.357 54.5364C168.02 53.8595 168.809 53.3226 169.676 52.9563C170.544 52.59 171.473 52.4015 172.413 52.4015C173.352 52.4015 174.281 52.59 175.149 52.9563C176.016 53.3226 176.805 53.8595 177.468 54.5364L181.182 58.3208C181.846 58.9975 182.372 59.8008 182.732 60.685C183.091 61.5692 183.276 62.5169 183.276 63.474C183.276 64.4311 183.091 65.3788 182.732 66.263C182.372 67.1472 181.846 67.9506 181.182 68.6273L178.369 71.4938M169.087 80.9548L178.369 71.4938M138.34 110.779C140.098 114.874 142.724 118.521 146.03 121.459C149.335 124.396 153.238 126.551 157.458 127.769M157.458 127.769C159.733 125.891 162.572 124.866 165.5 124.866C168.428 124.866 171.267 125.891 173.542 127.769M157.458 127.769C156.039 128.94 154.884 130.408 154.069 132.073L151.675 136.948C151.675 136.948 147.725 145 139.825 145H191.175C183.275 145 179.325 136.948 179.325 136.948L176.931 132.073C176.116 130.408 174.961 128.94 173.542 127.769M143.775 88.6364L149.7 94.6753M126 104.74H161.55M178.369 71.4938C183.786 74.1581 188.279 78.4392 191.252 83.7683C194.225 89.0974 195.537 95.2224 195.013 101.329C194.489 107.436 192.155 113.236 188.32 117.959C184.485 122.681 179.331 126.103 173.542 127.769M179.325 56.4286L183.67 52" stroke="url(#paint2_radial_4009_205)" stroke-opacity="0.2" stroke-width="6"/>
<path d="M126 145H205M152.252 110.779C154.127 112.915 156.472 114.567 159.096 115.599C161.719 116.632 164.545 117.015 167.342 116.718C170.139 116.42 172.827 115.451 175.184 113.889C177.542 112.327 179.503 110.218 180.905 107.733C182.307 105.249 183.111 102.461 183.251 99.5983C183.391 96.7357 182.862 93.8802 181.708 91.2664C180.555 88.6525 178.809 86.3549 176.615 84.5624C174.421 82.7698 171.841 81.5334 169.087 80.9548M169.087 80.9548L159.575 90.6493L145.75 76.5584L167.357 54.5364C168.02 53.8595 168.809 53.3226 169.676 52.9563C170.544 52.59 171.473 52.4015 172.413 52.4015C173.352 52.4015 174.281 52.59 175.149 52.9563C176.016 53.3226 176.805 53.8595 177.468 54.5364L181.182 58.3208C181.846 58.9975 182.372 59.8008 182.732 60.685C183.091 61.5692 183.276 62.5169 183.276 63.474C183.276 64.4311 183.091 65.3788 182.732 66.263C182.372 67.1472 181.846 67.9506 181.182 68.6273L178.369 71.4938M169.087 80.9548L178.369 71.4938M138.34 110.779C140.098 114.874 142.724 118.521 146.03 121.459C149.335 124.396 153.238 126.551 157.458 127.769M157.458 127.769C159.733 125.891 162.572 124.866 165.5 124.866C168.428 124.866 171.267 125.891 173.542 127.769M157.458 127.769C156.039 128.94 154.884 130.408 154.069 132.073L151.675 136.948C151.675 136.948 147.725 145 139.825 145H191.175C183.275 145 179.325 136.948 179.325 136.948L176.931 132.073C176.116 130.408 174.961 128.94 173.542 127.769M143.775 88.6364L149.7 94.6753M126 104.74H161.55M178.369 71.4938C183.786 74.1581 188.279 78.4392 191.252 83.7683C194.225 89.0974 195.537 95.2224 195.013 101.329C194.489 107.436 192.155 113.236 188.32 117.959C184.485 122.681 179.331 126.103 173.542 127.769M179.325 56.4286L183.67 52" stroke="url(#paint3_linear_4009_205)" stroke-width="6"/>
</g>
<path d="M89.432 186.184C88.056 186.184 86.904 185.032 86.904 183.656C86.904 182.312 88.056 181.128 89.432 181.128C90.808 181.128 91.96 182.312 91.96 183.656C91.96 185.032 90.808 186.184 89.432 186.184ZM96.28 186.184C94.904 186.184 93.752 185.032 93.752 183.656C93.752 182.312 94.904 181.128 96.28 181.128C97.624 181.128 98.776 182.312 98.776 183.656C98.776 185.032 97.624 186.184 96.28 186.184ZM101.4 200.712H102.52V205H101.4C99.512 205 97.912 204.232 96.824 202.984C95.672 204.168 94.104 204.904 91.896 204.904C87.992 204.904 84.824 201.608 84.824 197.608V195.784C84.824 191.624 87.928 188.488 92.056 188.488H99.672V198.952C99.672 200.008 100.344 200.712 101.4 200.712ZM95.384 199.048V192.776H92.056C90.296 192.776 89.112 193.96 89.112 195.784V197.608C89.112 199.272 90.392 200.616 91.896 200.616C93.304 200.616 94.584 200.072 95.384 199.048ZM114.679 200.712H117.783V205H114.071C112.567 205 111.223 204.264 110.167 203.208C109.175 204.264 107.703 205 105.591 205H102.199L100.343 204.328V201.416L102.199 200.712H105.623C107.575 200.712 107.991 199.528 107.991 198.12V194.12L107.959 189.832H112.279V196.392C112.279 196.712 112.279 197.032 112.247 197.416V198.12C112.247 199.528 112.727 200.712 114.679 200.712ZM106.007 208.008C107.351 208.008 108.503 209.16 108.503 210.504C108.503 211.912 107.351 213.032 106.007 213.032C104.631 213.032 103.479 211.912 103.479 210.504C103.479 209.16 104.631 208.008 106.007 208.008ZM112.823 208.008C114.199 208.008 115.351 209.16 115.351 210.504C115.351 211.912 114.199 213.032 112.823 213.032C111.447 213.032 110.295 211.912 110.295 210.504C110.295 209.16 111.447 208.008 112.823 208.008ZM128.141 200.712H129.997V205H127.565C126.061 205 124.685 204.264 123.629 203.176C122.637 204.264 121.165 205 119.053 205H117.293L115.437 204.328V201.416L117.293 200.712H119.117C121.069 200.712 121.485 199.528 121.485 198.12V194.12L121.453 189.832H125.773V196.392C125.773 196.712 125.773 197.032 125.741 197.384V198.12C125.741 199.528 126.221 200.712 128.141 200.712ZM123.597 208.776C124.941 208.776 126.093 209.928 126.093 211.272C126.093 212.68 124.941 213.8 123.597 213.8C122.221 213.8 121.069 212.68 121.069 211.272C121.069 209.928 122.221 208.776 123.597 208.776ZM145.81 188.68C151.538 188.68 154.354 192.744 154.354 197.224C154.354 201.512 150.866 205 146.61 205H129.138V200.712H132.562V182.728H136.85V193.64C139.314 190.952 142.322 188.68 145.81 188.68ZM147.122 200.712C148.818 200.712 150.194 199.336 150.194 197.64C150.194 194.888 148.146 192.872 145.298 192.872C142.386 192.872 139.666 194.44 136.85 197.832V200.712H147.122ZM169.009 186.664C167.633 186.664 166.481 185.544 166.481 184.136C166.481 182.792 167.633 181.64 169.009 181.64C170.385 181.64 171.537 182.792 171.537 184.136C171.537 185.544 170.385 186.664 169.009 186.664ZM175.857 186.664C174.481 186.664 173.329 185.544 173.329 184.136C173.329 182.792 174.481 181.64 175.857 181.64C177.201 181.64 178.353 182.792 178.353 184.136C178.353 185.544 177.201 186.664 175.857 186.664ZM164.369 195.56C164.369 191.656 167.569 188.488 171.441 188.488H171.953C175.857 188.488 179.025 191.656 179.025 195.56V198.056C179.025 201.864 175.953 204.936 172.145 204.936H171.441C167.473 204.936 164.369 201.864 164.369 197.896V195.56ZM168.657 195.56V197.864C168.657 199.4 169.905 200.68 171.441 200.68H172.337C173.649 200.68 174.737 199.56 174.737 198.248V195.56C174.737 193.928 173.553 192.776 171.953 192.776H171.441C169.841 192.776 168.657 193.928 168.657 195.56ZM187.388 186.6C186.012 186.6 184.86 185.448 184.86 184.072C184.86 182.728 186.012 181.544 187.388 181.544C188.764 181.544 189.916 182.728 189.916 184.072C189.916 185.448 188.764 186.6 187.388 186.6ZM192.316 200.712V205H189.596V205.224C189.596 209.288 186.524 212.36 182.46 212.36H180.892V208.072H182.46C184.156 208.072 185.308 206.92 185.308 205.224V189.544H189.596V200.712H192.316ZM210.175 200.712H214.687V205H210.463V205.704C210.463 210.056 208.479 213.064 203.295 213.064C198.527 213.064 196.127 209.576 196.127 205.032V205H191.135V200.712H196.127V196.264C196.127 191.816 199.263 188.552 203.551 188.552C207.967 188.552 211.039 191.944 211.039 196.968C211.039 198.344 210.719 199.592 210.175 200.712ZM200.063 196.712V200.712H203.007C205.407 200.712 207.103 199.368 207.103 196.968C207.103 194.088 205.695 192.488 203.583 192.488C201.567 192.488 200.063 194.28 200.063 196.712ZM189.247 204.328V201.384L191.103 200.712V205L189.247 204.328ZM203.295 209.128C205.535 209.128 206.527 207.464 206.527 205.032V204.264C205.471 204.744 204.287 205 203.007 205H200.063V205.032C200.063 207.464 200.927 209.128 203.295 209.128ZM228.865 196.84C230.561 200.488 231.489 200.648 232.001 200.712V205H213.249L211.393 204.328V201.416L213.249 200.712H226.017C225.569 200.168 224.897 198.824 224.16 197.448C221.952 193.544 219.489 191.528 214.656 193.352V189.416C220.64 187.272 225.632 190.216 228.865 196.84ZM222.304 207.4C223.68 207.4 224.832 208.552 224.832 209.896C224.832 211.304 223.68 212.424 222.304 212.424C220.929 212.424 219.776 211.304 219.776 209.896C219.776 208.552 220.929 207.4 222.304 207.4ZM237.51 177.864H241.03V180.232H233.766V177.864H234.918C234.47 177.352 234.15 176.68 234.15 175.816C234.15 174.024 235.334 172.712 237.382 172.712C239.398 172.712 240.71 173.992 240.838 176.328H238.694C238.598 175.528 238.086 175.048 237.446 175.048C236.806 175.048 236.358 175.4 236.358 176.104C236.358 176.552 236.614 177.32 237.51 177.864ZM235.27 205V182.728H239.558V205H235.27Z" fill="white"/>
<path d="M77.472 235.368C77.024 235.368 76.656 235 76.656 234.568C76.656 234.136 77.024 233.768 77.472 233.768C77.904 233.768 78.272 234.136 78.272 234.568C78.272 235 77.904 235.368 77.472 235.368ZM79.872 243.752H82.608V245H71.824C70 244.984 68.64 243.608 68.64 241.784V239.704H69.888V241.784C69.888 242.936 70.704 243.752 71.856 243.752H75.088C74.512 243.304 74.128 242.568 74.128 241.736V240.2C74.128 238.344 75.376 236.952 77.488 236.952C79.6 236.952 80.832 238.296 80.832 240.2V241.736C80.832 242.568 80.448 243.304 79.872 243.752ZM79.6 241.736V240.2C79.6 239.032 78.848 238.2 77.52 238.2C76.08 238.2 75.376 238.984 75.376 240.2V241.736C75.376 242.84 76.304 243.752 77.424 243.752C78.848 243.752 79.6 242.84 79.6 241.736ZM88.5792 243.752H89.6832V245H88.4193C87.6993 245 87.0752 244.632 86.6433 244.104C86.2593 244.632 85.6512 245 84.7553 245H83.4593L82.9153 244.792V243.96L83.4593 243.752H84.7713C85.6353 243.752 86.0353 243.176 86.0513 242.44L86.0353 237.432H87.2832V242.408C87.2832 243.16 87.6993 243.752 88.5792 243.752ZM85.1713 246.472C85.6192 246.472 85.9712 246.84 85.9712 247.272C85.9712 247.72 85.6192 248.088 85.1713 248.088C84.7393 248.088 84.3713 247.72 84.3713 247.272C84.3713 246.84 84.7393 246.472 85.1713 246.472ZM87.7633 246.472C88.1952 246.472 88.5633 246.84 88.5633 247.272C88.5633 247.72 88.1952 248.088 87.7633 248.088C87.3312 248.088 86.9633 247.72 86.9633 247.272C86.9633 246.84 87.3312 246.472 87.7633 246.472ZM92.9067 236.072C92.4747 236.072 92.1067 235.704 92.1067 235.272C92.1067 234.84 92.4747 234.472 92.9067 234.472C93.3547 234.472 93.7067 234.84 93.7067 235.272C93.7067 235.704 93.3547 236.072 92.9067 236.072ZM94.9387 243.752H95.4987V245H94.7787C94.0587 245 93.4507 244.632 93.0187 244.104C92.6187 244.632 92.0107 245 91.1147 245H90.4427L89.8987 244.792V243.96L90.4427 243.752H91.1307C92.0267 243.752 92.4107 243.16 92.4107 242.408V237.432H93.6587V241.992C93.6587 242.104 93.6587 242.232 93.6427 242.36V242.408C93.6427 243.16 94.0587 243.752 94.9387 243.752ZM107.286 243.752H108.342V245H96.2937L95.7657 244.792V243.96L96.2937 243.752H97.6057V237.96H98.8377V239.976C100.118 238.504 101.734 237.144 103.51 237.144C105.974 237.144 107.286 238.408 107.286 241.56V243.752ZM106.07 243.752V241.56C106.07 239.192 105.014 238.376 103.414 238.376C101.894 238.376 100.294 239.496 98.8377 241.192V243.752H106.07ZM111.055 236.056C110.623 236.056 110.255 235.704 110.255 235.256C110.255 234.824 110.623 234.456 111.055 234.456C111.503 234.456 111.855 234.824 111.855 235.256C111.855 235.704 111.503 236.056 111.055 236.056ZM113.663 236.056C113.215 236.056 112.847 235.704 112.847 235.256C112.847 234.824 113.215 234.456 113.663 234.456C114.095 234.456 114.463 234.824 114.463 235.256C114.463 235.704 114.095 236.056 113.663 236.056ZM114.239 243.752H115.663V245H114.079C113.359 245 112.751 244.632 112.319 244.104C111.919 244.632 111.311 245 110.415 245H109.167L108.623 244.792V243.96L109.167 243.752H110.431C111.327 243.752 111.711 243.16 111.711 242.408V237.432H112.959V241.992C112.959 242.104 112.959 242.232 112.943 242.36V242.408C112.943 243.16 113.359 243.752 114.239 243.752ZM118.287 233.864H119.535V243.352C119.535 244.296 118.815 245 117.887 245H116.495L115.967 244.792V243.96L116.495 243.752H117.535C117.919 243.752 118.287 243.48 118.287 242.968V233.864ZM122.7 233.864H123.948V242.968C123.948 243.48 124.316 243.752 124.716 243.752H125.74V245H124.348C123.42 245 122.7 244.296 122.7 243.352V233.864ZM126.347 245V243.752H127.995C128.379 243.752 128.747 243.48 128.747 242.968V237.416H129.995V243.352C129.995 244.296 129.275 245 128.347 245H126.347ZM128.539 248.328C128.107 248.328 127.739 247.976 127.739 247.528C127.739 247.096 128.107 246.728 128.539 246.728C128.987 246.728 129.339 247.096 129.339 247.528C129.339 247.976 128.987 248.328 128.539 248.328ZM150.21 237.144C152.674 237.144 153.97 238.552 153.97 241.32C153.97 243.352 152.338 245 150.306 245H145.65C145.49 247.528 143.634 249.272 141.218 249.272H141.122C138.626 249.272 136.674 247.304 136.674 244.808V241.528H137.906V244.808C137.906 246.696 139.234 248.024 141.122 248.024H141.186C143.058 248.024 144.45 246.664 144.45 244.792V237.96H145.682V239.736C146.93 238.392 148.546 237.144 150.21 237.144ZM150.274 243.752C151.65 243.752 152.77 242.648 152.77 241.272C152.77 239.192 151.714 238.36 150.098 238.36C148.658 238.36 147.09 239.416 145.682 241V243.768L150.274 243.752ZM157.079 233.864H158.327V242.968C158.327 243.48 158.695 243.752 159.095 243.752H160.119V245H158.727C157.799 245 157.079 244.296 157.079 243.352V233.864ZM163.83 235.848C163.398 235.848 163.014 235.48 163.014 235.032C163.014 234.6 163.398 234.232 163.83 234.232C164.262 234.232 164.63 234.6 164.63 235.032C164.63 235.48 164.262 235.848 163.83 235.848ZM168.63 241.112C169.67 243.656 169.91 243.656 170.422 243.736V245H160.95L160.406 244.792V243.96L160.95 243.752H168.502C168.182 243.512 167.782 242.392 167.27 241.256C165.942 238.376 164.182 237.608 161.798 238.536V237.4C164.438 236.36 167.062 237.448 168.63 241.112ZM188.486 243.752H189.926V245H177.03V243.752H178.806V233.864H180.038V239.96C181.334 238.488 182.934 237.144 184.71 237.144C187.174 237.144 188.486 238.408 188.486 241.56V243.752ZM187.27 243.752V241.56C187.27 239.192 186.214 238.376 184.614 238.376C183.094 238.376 181.494 239.496 180.038 241.192V243.752H187.27ZM195.864 243.752H196.968V245H195.704C194.984 245 194.36 244.632 193.928 244.104C193.544 244.632 192.936 245 192.04 245H190.744L190.2 244.792V243.96L190.744 243.752H192.056C192.92 243.752 193.32 243.176 193.336 242.44L193.32 237.432H194.568V242.408C194.568 243.16 194.984 243.752 195.864 243.752ZM192.456 246.472C192.904 246.472 193.256 246.84 193.256 247.272C193.256 247.72 192.904 248.088 192.456 248.088C192.024 248.088 191.656 247.72 191.656 247.272C191.656 246.84 192.024 246.472 192.456 246.472ZM195.048 246.472C195.48 246.472 195.848 246.84 195.848 247.272C195.848 247.72 195.48 248.088 195.048 248.088C194.616 248.088 194.248 247.72 194.248 247.272C194.248 246.84 194.616 246.472 195.048 246.472ZM210.735 243.752H211.919V245H210.735C210.095 245 209.519 244.696 209.215 244.152C208.847 244.696 208.415 245 207.567 245H206.143C205.423 245 204.895 244.552 204.671 244.184C204.383 244.68 203.839 245 203.023 245H201.711C200.959 245 200.399 244.584 200.191 244.12C199.919 244.616 199.423 245 198.271 245H197.791L197.247 244.792V243.96L197.791 243.752H198.127C199.071 243.752 199.407 243.272 199.407 242.664V238.6H200.639L200.655 242.664C200.655 243.416 201.135 243.752 201.663 243.752H202.847C203.471 243.752 203.903 243.272 203.903 242.664V238.6H205.119V242.664C205.119 243.272 205.567 243.752 206.223 243.752H207.439C208.063 243.752 208.399 243.272 208.399 242.664V237.224H209.615V242.664C209.615 243.272 210.063 243.752 210.735 243.752ZM212.589 245V243.752H214.237C214.621 243.752 214.989 243.48 214.989 242.968V237.416H216.237V243.352C216.237 244.296 215.517 245 214.589 245H212.589ZM214.781 248.328C214.349 248.328 213.981 247.976 213.981 247.528C213.981 247.096 214.349 246.728 214.781 246.728C215.229 246.728 215.581 247.096 215.581 247.528C215.581 247.976 215.229 248.328 214.781 248.328ZM231.604 235.368C231.156 235.368 230.788 235 230.788 234.568C230.788 234.136 231.156 233.768 231.604 233.768C232.036 233.768 232.404 234.136 232.404 234.568C232.404 235 232.036 235.368 231.604 235.368ZM234.004 243.752H236.74V245H225.956C224.132 244.984 222.772 243.608 222.772 241.784V239.704H224.02V241.784C224.02 242.936 224.836 243.752 225.988 243.752H229.22C228.644 243.304 228.26 242.568 228.26 241.736V240.2C228.26 238.344 229.508 236.952 231.62 236.952C233.732 236.952 234.964 238.296 234.964 240.2V241.736C234.964 242.568 234.58 243.304 234.004 243.752ZM233.732 241.736V240.2C233.732 239.032 232.98 238.2 231.652 238.2C230.212 238.2 229.508 238.984 229.508 240.2V241.736C229.508 242.84 230.436 243.752 231.556 243.752C232.98 243.752 233.732 242.84 233.732 241.736ZM245.271 237.144C247.735 237.144 249.031 238.472 249.031 241.32C249.031 243.352 247.383 245 245.367 245L237.511 244.984V243.752H239.367V237.96H240.599V239.896C241.863 238.504 243.527 237.144 245.271 237.144ZM245.303 243.752C246.695 243.752 247.815 242.632 247.815 241.24C247.815 239.096 246.775 238.376 245.159 238.376C243.655 238.376 242.055 239.48 240.599 241.176V243.752H245.303ZM255.432 236.936C257.304 236.936 258.68 238.344 258.68 240.2V245.72C258.68 247.96 256.872 248.984 253.288 248.376V247.208C256.376 247.608 257.432 247.032 257.432 245.464V244.984H255.144C253.416 244.968 252.024 243.496 252.024 241.736V240.2C252.024 238.344 253.4 236.936 255.272 236.936H255.432ZM257.432 240.2C257.432 239.016 256.6 238.184 255.432 238.184H255.272C254.088 238.184 253.272 239.016 253.272 240.2V241.736C253.272 242.84 254.136 243.736 255.176 243.736H257.432V240.2Z" fill="white"/>
<defs>
<linearGradient id="paint0_linear_4009_205" x1="165.448" y1="692.038" x2="145.831" y2="0.556512" gradientUnits="userSpaceOnUse">
<stop stop-color="#647B64" stop-opacity="0.77"/>
<stop offset="0.664596" stop-color="#647B64" stop-opacity="0"/>
<stop offset="1" stop-color="#647B64" stop-opacity="0"/>
</linearGradient>
<radialGradient id="paint1_radial_4009_205" cx="0" cy="0" r="1" gradientUnits="userSpaceOnUse" gradientTransform="translate(165.5 98.5) rotate(90) scale(46.5 39.5)">
<stop stop-color="white"/>
<stop offset="1" stop-color="white"/>
</radialGradient>
<radialGradient id="paint2_radial_4009_205" cx="0" cy="0" r="1" gradientUnits="userSpaceOnUse" gradientTransform="translate(165.5 98.5) rotate(90) scale(46.5 39.5)">
<stop stop-color="white"/>
<stop offset="1" stop-color="white"/>
</radialGradient>
<linearGradient id="paint3_linear_4009_205" x1="165.5" y1="52" x2="165.5" y2="145" gradientUnits="userSpaceOnUse">
<stop stop-color="white"/>
<stop offset="1" stop-color="white"/>
</linearGradient>
</defs>
</svg>
