<svg width="330" height="309" viewBox="0 0 330 309" fill="none" xmlns="http://www.w3.org/2000/svg">
<rect width="329.107" height="308.995" rx="8" fill="#D49C65"/>
<rect width="329.107" height="308.995" rx="8" fill="url(#paint0_linear_4009_208)"/>
<path d="M144.376 183.592C143 183.592 141.848 182.472 141.848 181.064C141.848 179.72 143 178.568 144.376 178.568C145.72 178.568 146.872 179.72 146.872 181.064C146.872 182.472 145.72 183.592 144.376 183.592ZM140.856 188.936C139.512 188.936 138.328 187.784 138.328 186.408C138.328 185.064 139.512 183.88 140.856 183.88C142.232 183.88 143.384 185.064 143.384 186.408C143.384 187.784 142.232 188.936 140.856 188.936ZM147.64 188.936C146.264 188.936 145.112 187.784 145.112 186.408C145.112 185.064 146.264 183.88 147.64 183.88C149.016 183.88 150.168 185.064 150.168 186.408C150.168 187.784 149.016 188.936 147.64 188.936ZM132.28 193.32H136.536V197.864C136.536 199.56 137.72 200.712 139.416 200.712H150.2C152.152 200.712 152.632 199.528 152.632 198.12V189.448H156.888V199.976C156.888 202.824 154.712 205 151.864 205H139.416C135.352 205 132.28 201.928 132.28 197.864V193.32ZM160.815 182.728H165.071V199.336C165.071 200.328 165.807 200.712 166.351 200.712H167.919V205H164.911C162.639 205 160.815 203.208 160.815 200.904V182.728ZM175.129 182.088C173.753 182.088 172.601 180.968 172.601 179.56C172.601 178.216 173.753 177.064 175.129 177.064C176.473 177.064 177.625 178.216 177.625 179.56C177.625 180.968 176.473 182.088 175.129 182.088ZM171.609 187.432C170.265 187.432 169.081 186.28 169.081 184.904C169.081 183.56 170.265 182.376 171.609 182.376C172.985 182.376 174.137 183.56 174.137 184.904C174.137 186.28 172.985 187.432 171.609 187.432ZM178.393 187.432C177.017 187.432 175.865 186.28 175.865 184.904C175.865 183.56 177.017 182.376 178.393 182.376C179.769 182.376 180.921 183.56 180.921 184.904C180.921 186.28 179.769 187.432 178.393 187.432ZM167.417 205V200.712H171.545C172.089 200.712 172.793 200.328 172.793 199.336V189.832H177.081V200.904C177.081 203.208 175.289 205 172.985 205H167.417ZM186.557 177.864H190.077V180.232H182.813V177.864H183.965C183.517 177.352 183.197 176.68 183.197 175.816C183.197 174.024 184.381 172.712 186.429 172.712C188.445 172.712 189.757 173.992 189.885 176.328H187.741C187.645 175.528 187.133 175.048 186.493 175.048C185.853 175.048 185.405 175.4 185.405 176.104C185.405 176.552 185.661 177.32 186.557 177.864ZM184.317 205V182.728H188.605V205H184.317Z" fill="white"/>
<path d="M76.472 229.368C76.024 229.368 75.656 229 75.656 228.568C75.656 228.136 76.024 227.768 76.472 227.768C76.904 227.768 77.272 228.136 77.272 228.568C77.272 229 76.904 229.368 76.472 229.368ZM78.872 237.752H81.608V239H70.824C69 238.984 67.64 237.608 67.64 235.784V233.704H68.888V235.784C68.888 236.936 69.704 237.752 70.856 237.752H74.088C73.512 237.304 73.128 236.568 73.128 235.736V234.2C73.128 232.344 74.376 230.952 76.488 230.952C78.6 230.952 79.832 232.296 79.832 234.2V235.736C79.832 236.568 79.448 237.304 78.872 237.752ZM78.6 235.736V234.2C78.6 233.032 77.848 232.2 76.52 232.2C75.08 232.2 74.376 232.984 74.376 234.2V235.736C74.376 236.84 75.304 237.752 76.424 237.752C77.848 237.752 78.6 236.84 78.6 235.736ZM87.5792 237.752H88.6832V239H87.4193C86.6993 239 86.0752 238.632 85.6433 238.104C85.2593 238.632 84.6512 239 83.7553 239H82.4593L81.9153 238.792V237.96L82.4593 237.752H83.7713C84.6353 237.752 85.0353 237.176 85.0513 236.44L85.0353 231.432H86.2832V236.408C86.2832 237.16 86.6993 237.752 87.5792 237.752ZM84.1713 240.472C84.6192 240.472 84.9712 240.84 84.9712 241.272C84.9712 241.72 84.6192 242.088 84.1713 242.088C83.7393 242.088 83.3713 241.72 83.3713 241.272C83.3713 240.84 83.7393 240.472 84.1713 240.472ZM86.7633 240.472C87.1952 240.472 87.5633 240.84 87.5633 241.272C87.5633 241.72 87.1952 242.088 86.7633 242.088C86.3312 242.088 85.9633 241.72 85.9633 241.272C85.9633 240.84 86.3312 240.472 86.7633 240.472ZM91.9067 230.072C91.4747 230.072 91.1067 229.704 91.1067 229.272C91.1067 228.84 91.4747 228.472 91.9067 228.472C92.3547 228.472 92.7067 228.84 92.7067 229.272C92.7067 229.704 92.3547 230.072 91.9067 230.072ZM93.9387 237.752H94.4987V239H93.7787C93.0587 239 92.4507 238.632 92.0187 238.104C91.6187 238.632 91.0107 239 90.1147 239H89.4427L88.8987 238.792V237.96L89.4427 237.752H90.1307C91.0267 237.752 91.4107 237.16 91.4107 236.408V231.432H92.6587V235.992C92.6587 236.104 92.6587 236.232 92.6427 236.36V236.408C92.6427 237.16 93.0587 237.752 93.9387 237.752ZM106.286 237.752H107.342V239H95.2937L94.7657 238.792V237.96L95.2937 237.752H96.6057V231.96H97.8377V233.976C99.1177 232.504 100.734 231.144 102.51 231.144C104.974 231.144 106.286 232.408 106.286 235.56V237.752ZM105.07 237.752V235.56C105.07 233.192 104.014 232.376 102.414 232.376C100.894 232.376 99.2937 233.496 97.8377 235.192V237.752H105.07ZM110.055 230.056C109.623 230.056 109.255 229.704 109.255 229.256C109.255 228.824 109.623 228.456 110.055 228.456C110.503 228.456 110.855 228.824 110.855 229.256C110.855 229.704 110.503 230.056 110.055 230.056ZM112.663 230.056C112.215 230.056 111.847 229.704 111.847 229.256C111.847 228.824 112.215 228.456 112.663 228.456C113.095 228.456 113.463 228.824 113.463 229.256C113.463 229.704 113.095 230.056 112.663 230.056ZM113.239 237.752H114.663V239H113.079C112.359 239 111.751 238.632 111.319 238.104C110.919 238.632 110.311 239 109.415 239H108.167L107.623 238.792V237.96L108.167 237.752H109.431C110.327 237.752 110.711 237.16 110.711 236.408V231.432H111.959V235.992C111.959 236.104 111.959 236.232 111.943 236.36V236.408C111.943 237.16 112.359 237.752 113.239 237.752ZM117.287 227.864H118.535V237.352C118.535 238.296 117.815 239 116.887 239H115.495L114.967 238.792V237.96L115.495 237.752H116.535C116.919 237.752 117.287 237.48 117.287 236.968V227.864ZM121.7 227.864H122.948V236.968C122.948 237.48 123.316 237.752 123.716 237.752H124.74V239H123.348C122.42 239 121.7 238.296 121.7 237.352V227.864ZM125.347 239V237.752H126.995C127.379 237.752 127.747 237.48 127.747 236.968V231.416H128.995V237.352C128.995 238.296 128.275 239 127.347 239H125.347ZM127.539 242.328C127.107 242.328 126.739 241.976 126.739 241.528C126.739 241.096 127.107 240.728 127.539 240.728C127.987 240.728 128.339 241.096 128.339 241.528C128.339 241.976 127.987 242.328 127.539 242.328ZM149.21 231.144C151.674 231.144 152.97 232.552 152.97 235.32C152.97 237.352 151.338 239 149.306 239H144.65C144.49 241.528 142.634 243.272 140.218 243.272H140.122C137.626 243.272 135.674 241.304 135.674 238.808V235.528H136.906V238.808C136.906 240.696 138.234 242.024 140.122 242.024H140.186C142.058 242.024 143.45 240.664 143.45 238.792V231.96H144.682V233.736C145.93 232.392 147.546 231.144 149.21 231.144ZM149.274 237.752C150.65 237.752 151.77 236.648 151.77 235.272C151.77 233.192 150.714 232.36 149.098 232.36C147.658 232.36 146.09 233.416 144.682 235V237.768L149.274 237.752ZM156.079 227.864H157.327V236.968C157.327 237.48 157.695 237.752 158.095 237.752H159.119V239H157.727C156.799 239 156.079 238.296 156.079 237.352V227.864ZM162.83 229.848C162.398 229.848 162.014 229.48 162.014 229.032C162.014 228.6 162.398 228.232 162.83 228.232C163.262 228.232 163.63 228.6 163.63 229.032C163.63 229.48 163.262 229.848 162.83 229.848ZM167.63 235.112C168.67 237.656 168.91 237.656 169.422 237.736V239H159.95L159.406 238.792V237.96L159.95 237.752H167.502C167.182 237.512 166.782 236.392 166.27 235.256C164.942 232.376 163.182 231.608 160.798 232.536V231.4C163.438 230.36 166.062 231.448 167.63 235.112ZM187.486 237.752H188.926V239H176.03V237.752H177.806V227.864H179.038V233.96C180.334 232.488 181.934 231.144 183.71 231.144C186.174 231.144 187.486 232.408 187.486 235.56V237.752ZM186.27 237.752V235.56C186.27 233.192 185.214 232.376 183.614 232.376C182.094 232.376 180.494 233.496 179.038 235.192V237.752H186.27ZM194.864 237.752H195.968V239H194.704C193.984 239 193.36 238.632 192.928 238.104C192.544 238.632 191.936 239 191.04 239H189.744L189.2 238.792V237.96L189.744 237.752H191.056C191.92 237.752 192.32 237.176 192.336 236.44L192.32 231.432H193.568V236.408C193.568 237.16 193.984 237.752 194.864 237.752ZM191.456 240.472C191.904 240.472 192.256 240.84 192.256 241.272C192.256 241.72 191.904 242.088 191.456 242.088C191.024 242.088 190.656 241.72 190.656 241.272C190.656 240.84 191.024 240.472 191.456 240.472ZM194.048 240.472C194.48 240.472 194.848 240.84 194.848 241.272C194.848 241.72 194.48 242.088 194.048 242.088C193.616 242.088 193.248 241.72 193.248 241.272C193.248 240.84 193.616 240.472 194.048 240.472ZM209.735 237.752H210.919V239H209.735C209.095 239 208.519 238.696 208.215 238.152C207.847 238.696 207.415 239 206.567 239H205.143C204.423 239 203.895 238.552 203.671 238.184C203.383 238.68 202.839 239 202.023 239H200.711C199.959 239 199.399 238.584 199.191 238.12C198.919 238.616 198.423 239 197.271 239H196.791L196.247 238.792V237.96L196.791 237.752H197.127C198.071 237.752 198.407 237.272 198.407 236.664V232.6H199.639L199.655 236.664C199.655 237.416 200.135 237.752 200.663 237.752H201.847C202.471 237.752 202.903 237.272 202.903 236.664V232.6H204.119V236.664C204.119 237.272 204.567 237.752 205.223 237.752H206.439C207.063 237.752 207.399 237.272 207.399 236.664V231.224H208.615V236.664C208.615 237.272 209.063 237.752 209.735 237.752ZM211.589 239V237.752H213.237C213.621 237.752 213.989 237.48 213.989 236.968V231.416H215.237V237.352C215.237 238.296 214.517 239 213.589 239H211.589ZM213.781 242.328C213.349 242.328 212.981 241.976 212.981 241.528C212.981 241.096 213.349 240.728 213.781 240.728C214.229 240.728 214.581 241.096 214.581 241.528C214.581 241.976 214.229 242.328 213.781 242.328ZM230.604 229.368C230.156 229.368 229.788 229 229.788 228.568C229.788 228.136 230.156 227.768 230.604 227.768C231.036 227.768 231.404 228.136 231.404 228.568C231.404 229 231.036 229.368 230.604 229.368ZM233.004 237.752H235.74V239H224.956C223.132 238.984 221.772 237.608 221.772 235.784V233.704H223.02V235.784C223.02 236.936 223.836 237.752 224.988 237.752H228.22C227.644 237.304 227.26 236.568 227.26 235.736V234.2C227.26 232.344 228.508 230.952 230.62 230.952C232.732 230.952 233.964 232.296 233.964 234.2V235.736C233.964 236.568 233.58 237.304 233.004 237.752ZM232.732 235.736V234.2C232.732 233.032 231.98 232.2 230.652 232.2C229.212 232.2 228.508 232.984 228.508 234.2V235.736C228.508 236.84 229.436 237.752 230.556 237.752C231.98 237.752 232.732 236.84 232.732 235.736ZM244.271 231.144C246.735 231.144 248.031 232.472 248.031 235.32C248.031 237.352 246.383 239 244.367 239L236.511 238.984V237.752H238.367V231.96H239.599V233.896C240.863 232.504 242.527 231.144 244.271 231.144ZM244.303 237.752C245.695 237.752 246.815 236.632 246.815 235.24C246.815 233.096 245.775 232.376 244.159 232.376C242.655 232.376 241.055 233.48 239.599 235.176V237.752H244.303ZM254.432 230.936C256.304 230.936 257.68 232.344 257.68 234.2V239.72C257.68 241.96 255.872 242.984 252.288 242.376V241.208C255.376 241.608 256.432 241.032 256.432 239.464V238.984H254.144C252.416 238.968 251.024 237.496 251.024 235.736V234.2C251.024 232.344 252.4 230.936 254.272 230.936H254.432ZM256.432 234.2C256.432 233.016 255.6 232.184 254.432 232.184H254.272C253.088 232.184 252.272 233.016 252.272 234.2V235.736C252.272 236.84 253.136 237.736 254.176 237.736H256.432V234.2Z" fill="white"/>
<g opacity="0.5">
<path d="M210.342 61.54H118.378C115.42 61.54 113 64.23 113 66.89C113 69.5501 115.42 72.2379 118.378 72.2379H119.677V82.9379H209.174V72.2379H210.342C213.302 72.2379 215.72 69.5501 215.72 66.89C215.72 64.23 213.302 61.54 210.342 61.54ZM164.36 77.6328C162.875 77.6328 161.672 76.3938 161.672 74.868C161.672 73.3421 162.875 72.1031 164.36 72.1031C165.847 72.1031 167.048 73.3421 167.048 74.868C167.048 76.3938 165.847 77.6328 164.36 77.6328ZM119.677 104.336H209.174V87.22H119.677V104.336ZM164.36 92.8354C165.847 92.8354 167.048 94.0723 167.048 95.5981C167.048 97.1261 165.847 98.363 164.36 98.363C162.875 98.363 161.672 97.1261 161.672 95.5981C161.67 94.0723 162.875 92.8354 164.36 92.8354ZM119.677 119.095V131.537C119.677 133.057 119.867 134.302 121.346 134.302H132.097C133.576 134.302 134.246 133.057 134.246 131.537V123.598H194.605V131.537C194.605 133.057 195.144 134.302 196.621 134.302H207.374C208.848 134.302 209.172 133.057 209.172 131.537V108.62H119.677V119.095ZM164.36 113.568C165.847 113.568 167.048 114.807 167.048 116.33C167.048 117.861 165.847 119.093 164.36 119.093C162.875 119.093 161.672 117.861 161.672 116.33C161.67 114.809 162.875 113.568 164.36 113.568Z" fill="url(#paint1_radial_4009_208)"/>
<path d="M210.342 61.54H118.378C115.42 61.54 113 64.23 113 66.89C113 69.5501 115.42 72.2379 118.378 72.2379H119.677V82.9379H209.174V72.2379H210.342C213.302 72.2379 215.72 69.5501 215.72 66.89C215.72 64.23 213.302 61.54 210.342 61.54ZM164.36 77.6328C162.875 77.6328 161.672 76.3938 161.672 74.868C161.672 73.3421 162.875 72.1031 164.36 72.1031C165.847 72.1031 167.048 73.3421 167.048 74.868C167.048 76.3938 165.847 77.6328 164.36 77.6328ZM119.677 104.336H209.174V87.22H119.677V104.336ZM164.36 92.8354C165.847 92.8354 167.048 94.0723 167.048 95.5981C167.048 97.1261 165.847 98.363 164.36 98.363C162.875 98.363 161.672 97.1261 161.672 95.5981C161.67 94.0723 162.875 92.8354 164.36 92.8354ZM119.677 119.095V131.537C119.677 133.057 119.867 134.302 121.346 134.302H132.097C133.576 134.302 134.246 133.057 134.246 131.537V123.598H194.605V131.537C194.605 133.057 195.144 134.302 196.621 134.302H207.374C208.848 134.302 209.172 133.057 209.172 131.537V108.62H119.677V119.095ZM164.36 113.568C165.847 113.568 167.048 114.807 167.048 116.33C167.048 117.861 165.847 119.093 164.36 119.093C162.875 119.093 161.672 117.861 161.672 116.33C161.67 114.809 162.875 113.568 164.36 113.568Z" fill="url(#paint2_radial_4009_208)"/>
<path d="M210.342 61.54H118.378C115.42 61.54 113 64.23 113 66.89C113 69.5501 115.42 72.2379 118.378 72.2379H119.677V82.9379H209.174V72.2379H210.342C213.302 72.2379 215.72 69.5501 215.72 66.89C215.72 64.23 213.302 61.54 210.342 61.54ZM164.36 77.6328C162.875 77.6328 161.672 76.3938 161.672 74.868C161.672 73.3421 162.875 72.1031 164.36 72.1031C165.847 72.1031 167.048 73.3421 167.048 74.868C167.048 76.3938 165.847 77.6328 164.36 77.6328ZM119.677 104.336H209.174V87.22H119.677V104.336ZM164.36 92.8354C165.847 92.8354 167.048 94.0723 167.048 95.5981C167.048 97.1261 165.847 98.363 164.36 98.363C162.875 98.363 161.672 97.1261 161.672 95.5981C161.67 94.0723 162.875 92.8354 164.36 92.8354ZM119.677 119.095V131.537C119.677 133.057 119.867 134.302 121.346 134.302H132.097C133.576 134.302 134.246 133.057 134.246 131.537V123.598H194.605V131.537C194.605 133.057 195.144 134.302 196.621 134.302H207.374C208.848 134.302 209.172 133.057 209.172 131.537V108.62H119.677V119.095ZM164.36 113.568C165.847 113.568 167.048 114.807 167.048 116.33C167.048 117.861 165.847 119.093 164.36 119.093C162.875 119.093 161.672 117.861 161.672 116.33C161.67 114.809 162.875 113.568 164.36 113.568Z" fill="url(#paint3_linear_4009_208)"/>
</g>
<defs>
<linearGradient id="paint0_linear_4009_208" x1="164.553" y1="692.038" x2="144.937" y2="0.556512" gradientUnits="userSpaceOnUse">
<stop stop-color="#647B64" stop-opacity="0.77"/>
<stop offset="0.664596" stop-color="#647B64" stop-opacity="0"/>
<stop offset="1" stop-color="#647B64" stop-opacity="0"/>
</linearGradient>
<radialGradient id="paint1_radial_4009_208" cx="0" cy="0" r="1" gradientUnits="userSpaceOnUse" gradientTransform="translate(164.36 97.9211) rotate(90) scale(36.3811 51.36)">
<stop stop-color="white"/>
<stop offset="1" stop-color="white"/>
</radialGradient>
<radialGradient id="paint2_radial_4009_208" cx="0" cy="0" r="1" gradientUnits="userSpaceOnUse" gradientTransform="translate(164.36 97.9211) rotate(90) scale(36.3811 51.36)">
<stop stop-color="white"/>
<stop offset="1" stop-color="white"/>
</radialGradient>
<linearGradient id="paint3_linear_4009_208" x1="164.36" y1="61.54" x2="164.36" y2="134.302" gradientUnits="userSpaceOnUse">
<stop stop-color="white"/>
<stop offset="1" stop-color="white"/>
</linearGradient>
</defs>
</svg>
