<svg width="38" height="38" viewBox="0 0 38 38" fill="none" xmlns="http://www.w3.org/2000/svg">
<path d="M18.9855 3.16699C10.2455 3.16699 3.16797 10.2603 3.16797 19.0003C3.16797 27.7403 10.2455 34.8337 18.9855 34.8337C27.7413 34.8337 34.8346 27.7403 34.8346 19.0003C34.8346 10.2603 27.7413 3.16699 18.9855 3.16699ZM29.958 12.667H25.2871C24.7916 10.706 24.0578 8.81299 23.1021 7.03033C25.9903 8.02466 28.424 10.0256 29.958 12.667ZM19.0013 6.39699C20.3155 8.29699 21.3446 10.4028 22.0255 12.667H15.9771C16.658 10.4028 17.6871 8.29699 19.0013 6.39699ZM6.7463 22.167C6.49297 21.1537 6.33464 20.0928 6.33464 19.0003C6.33464 17.9078 6.49297 16.847 6.7463 15.8337H12.098C11.9713 16.8787 11.8763 17.9237 11.8763 19.0003C11.8763 20.077 11.9713 21.122 12.098 22.167H6.7463ZM8.04463 25.3337H12.7155C13.2221 27.3128 13.9505 29.2128 14.9005 30.9703C12.0093 29.9814 9.57387 27.9791 8.04463 25.3337ZM12.7155 12.667H8.04463C9.57387 10.0215 12.0093 8.01923 14.9005 7.03033C13.9448 8.81299 13.211 10.706 12.7155 12.667ZM19.0013 31.6037C17.6871 29.7037 16.658 27.5978 15.9771 25.3337H22.0255C21.3446 27.5978 20.3155 29.7037 19.0013 31.6037ZM22.7063 22.167H15.2963C15.1538 21.122 15.043 20.077 15.043 19.0003C15.043 17.9237 15.1538 16.8628 15.2963 15.8337H22.7063C22.8488 16.8628 22.9596 17.9237 22.9596 19.0003C22.9596 20.077 22.8488 21.122 22.7063 22.167ZM23.1021 30.9703C24.0521 29.2128 24.7805 27.3128 25.2871 25.3337H29.958C28.424 27.9751 25.9903 29.976 23.1021 30.9703ZM25.9046 22.167C26.0313 21.122 26.1263 20.077 26.1263 19.0003C26.1263 17.9237 26.0313 16.8787 25.9046 15.8337H31.2563C31.5096 16.847 31.668 17.9078 31.668 19.0003C31.668 20.0928 31.5096 21.1537 31.2563 22.167H25.9046Z" fill="black"/>
</svg>
