<svg width="330" height="309" viewBox="0 0 330 309" fill="none" xmlns="http://www.w3.org/2000/svg">
<rect x="0.015625" width="329.107" height="308.995" rx="8" fill="#00AE3F"/>
<path d="M142.656 200.712H150.752V204.968H134.56V200.712H137.696C136.608 199.528 135.936 197.96 135.936 195.848C135.936 191.752 138.848 189.256 142.624 189.256C147.104 189.256 149.344 191.656 149.696 196.84L145.76 196.904C145.504 194.792 144.32 193.576 142.72 193.576C141.12 193.576 139.904 194.696 139.936 196.488C139.904 197.608 140.576 199.464 142.656 200.712ZM159.792 205H155.504V182.728H159.792V205ZM169.599 185.288C168.223 185.288 167.071 184.136 167.071 182.76C167.071 181.416 168.223 180.232 169.599 180.232C170.975 180.232 172.127 181.416 172.127 182.76C172.127 184.136 170.975 185.288 169.599 185.288ZM176.767 200.712H180.223V205H163.551V200.712H172.511V196.008C172.511 194.152 171.231 192.872 169.343 192.872H166.271V188.584H169.343C173.567 188.584 176.767 191.784 176.767 196.008V200.712ZM188.881 185.32C187.505 185.32 186.353 184.168 186.353 182.792C186.353 181.448 187.505 180.296 188.881 180.296C190.257 180.296 191.409 181.448 191.409 182.792C191.409 184.168 190.257 185.32 188.881 185.32ZM191.057 200.712H195.825V205H179.889L178.033 204.328V201.384L179.889 200.712H183.057C182.097 199.528 181.617 198.056 181.617 196.36C181.617 188.52 188.529 186.472 194.481 188.584V192.52C190.033 190.856 186.385 192.136 186.385 196.488C186.385 199.72 188.369 200.712 191.057 200.712Z" fill="white"/>
<path d="M75.472 238.368C75.024 238.368 74.656 238 74.656 237.568C74.656 237.136 75.024 236.768 75.472 236.768C75.904 236.768 76.272 237.136 76.272 237.568C76.272 238 75.904 238.368 75.472 238.368ZM77.872 246.752H80.608V248H69.824C68 247.984 66.64 246.608 66.64 244.784V242.704H67.888V244.784C67.888 245.936 68.704 246.752 69.856 246.752H73.088C72.512 246.304 72.128 245.568 72.128 244.736V243.2C72.128 241.344 73.376 239.952 75.488 239.952C77.6 239.952 78.832 241.296 78.832 243.2V244.736C78.832 245.568 78.448 246.304 77.872 246.752ZM77.6 244.736V243.2C77.6 242.032 76.848 241.2 75.52 241.2C74.08 241.2 73.376 241.984 73.376 243.2V244.736C73.376 245.84 74.304 246.752 75.424 246.752C76.848 246.752 77.6 245.84 77.6 244.736ZM86.5792 246.752H87.6832V248H86.4193C85.6993 248 85.0752 247.632 84.6433 247.104C84.2593 247.632 83.6512 248 82.7553 248H81.4593L80.9153 247.792V246.96L81.4593 246.752H82.7713C83.6353 246.752 84.0353 246.176 84.0513 245.44L84.0353 240.432H85.2832V245.408C85.2832 246.16 85.6993 246.752 86.5792 246.752ZM83.1713 249.472C83.6192 249.472 83.9712 249.84 83.9712 250.272C83.9712 250.72 83.6192 251.088 83.1713 251.088C82.7393 251.088 82.3713 250.72 82.3713 250.272C82.3713 249.84 82.7393 249.472 83.1713 249.472ZM85.7633 249.472C86.1952 249.472 86.5633 249.84 86.5633 250.272C86.5633 250.72 86.1952 251.088 85.7633 251.088C85.3312 251.088 84.9633 250.72 84.9633 250.272C84.9633 249.84 85.3312 249.472 85.7633 249.472ZM90.9067 239.072C90.4747 239.072 90.1067 238.704 90.1067 238.272C90.1067 237.84 90.4747 237.472 90.9067 237.472C91.3547 237.472 91.7067 237.84 91.7067 238.272C91.7067 238.704 91.3547 239.072 90.9067 239.072ZM92.9387 246.752H93.4987V248H92.7787C92.0587 248 91.4507 247.632 91.0187 247.104C90.6187 247.632 90.0107 248 89.1147 248H88.4427L87.8987 247.792V246.96L88.4427 246.752H89.1307C90.0267 246.752 90.4107 246.16 90.4107 245.408V240.432H91.6587V244.992C91.6587 245.104 91.6587 245.232 91.6427 245.36V245.408C91.6427 246.16 92.0587 246.752 92.9387 246.752ZM105.286 246.752H106.342V248H94.2937L93.7657 247.792V246.96L94.2937 246.752H95.6057V240.96H96.8377V242.976C98.1177 241.504 99.7337 240.144 101.51 240.144C103.974 240.144 105.286 241.408 105.286 244.56V246.752ZM104.07 246.752V244.56C104.07 242.192 103.014 241.376 101.414 241.376C99.8937 241.376 98.2937 242.496 96.8377 244.192V246.752H104.07ZM109.055 239.056C108.623 239.056 108.255 238.704 108.255 238.256C108.255 237.824 108.623 237.456 109.055 237.456C109.503 237.456 109.855 237.824 109.855 238.256C109.855 238.704 109.503 239.056 109.055 239.056ZM111.663 239.056C111.215 239.056 110.847 238.704 110.847 238.256C110.847 237.824 111.215 237.456 111.663 237.456C112.095 237.456 112.463 237.824 112.463 238.256C112.463 238.704 112.095 239.056 111.663 239.056ZM112.239 246.752H113.663V248H112.079C111.359 248 110.751 247.632 110.319 247.104C109.919 247.632 109.311 248 108.415 248H107.167L106.623 247.792V246.96L107.167 246.752H108.431C109.327 246.752 109.711 246.16 109.711 245.408V240.432H110.959V244.992C110.959 245.104 110.959 245.232 110.943 245.36V245.408C110.943 246.16 111.359 246.752 112.239 246.752ZM116.287 236.864H117.535V246.352C117.535 247.296 116.815 248 115.887 248H114.495L113.967 247.792V246.96L114.495 246.752H115.535C115.919 246.752 116.287 246.48 116.287 245.968V236.864ZM120.7 236.864H121.948V245.968C121.948 246.48 122.316 246.752 122.716 246.752H123.74V248H122.348C121.42 248 120.7 247.296 120.7 246.352V236.864ZM124.347 248V246.752H125.995C126.379 246.752 126.747 246.48 126.747 245.968V240.416H127.995V246.352C127.995 247.296 127.275 248 126.347 248H124.347ZM126.539 251.328C126.107 251.328 125.739 250.976 125.739 250.528C125.739 250.096 126.107 249.728 126.539 249.728C126.987 249.728 127.339 250.096 127.339 250.528C127.339 250.976 126.987 251.328 126.539 251.328ZM148.21 240.144C150.674 240.144 151.97 241.552 151.97 244.32C151.97 246.352 150.338 248 148.306 248H143.65C143.49 250.528 141.634 252.272 139.218 252.272H139.122C136.626 252.272 134.674 250.304 134.674 247.808V244.528H135.906V247.808C135.906 249.696 137.234 251.024 139.122 251.024H139.186C141.058 251.024 142.45 249.664 142.45 247.792V240.96H143.682V242.736C144.93 241.392 146.546 240.144 148.21 240.144ZM148.274 246.752C149.65 246.752 150.77 245.648 150.77 244.272C150.77 242.192 149.714 241.36 148.098 241.36C146.658 241.36 145.09 242.416 143.682 244V246.768L148.274 246.752ZM155.079 236.864H156.327V245.968C156.327 246.48 156.695 246.752 157.095 246.752H158.119V248H156.727C155.799 248 155.079 247.296 155.079 246.352V236.864ZM161.83 238.848C161.398 238.848 161.014 238.48 161.014 238.032C161.014 237.6 161.398 237.232 161.83 237.232C162.262 237.232 162.63 237.6 162.63 238.032C162.63 238.48 162.262 238.848 161.83 238.848ZM166.63 244.112C167.67 246.656 167.91 246.656 168.422 246.736V248H158.95L158.406 247.792V246.96L158.95 246.752H166.502C166.182 246.512 165.782 245.392 165.27 244.256C163.942 241.376 162.182 240.608 159.798 241.536V240.4C162.438 239.36 165.062 240.448 166.63 244.112ZM186.486 246.752H187.926V248H175.03V246.752H176.806V236.864H178.038V242.96C179.334 241.488 180.934 240.144 182.71 240.144C185.174 240.144 186.486 241.408 186.486 244.56V246.752ZM185.27 246.752V244.56C185.27 242.192 184.214 241.376 182.614 241.376C181.094 241.376 179.494 242.496 178.038 244.192V246.752H185.27ZM193.864 246.752H194.968V248H193.704C192.984 248 192.36 247.632 191.928 247.104C191.544 247.632 190.936 248 190.04 248H188.744L188.2 247.792V246.96L188.744 246.752H190.056C190.92 246.752 191.32 246.176 191.336 245.44L191.32 240.432H192.568V245.408C192.568 246.16 192.984 246.752 193.864 246.752ZM190.456 249.472C190.904 249.472 191.256 249.84 191.256 250.272C191.256 250.72 190.904 251.088 190.456 251.088C190.024 251.088 189.656 250.72 189.656 250.272C189.656 249.84 190.024 249.472 190.456 249.472ZM193.048 249.472C193.48 249.472 193.848 249.84 193.848 250.272C193.848 250.72 193.48 251.088 193.048 251.088C192.616 251.088 192.248 250.72 192.248 250.272C192.248 249.84 192.616 249.472 193.048 249.472ZM208.735 246.752H209.919V248H208.735C208.095 248 207.519 247.696 207.215 247.152C206.847 247.696 206.415 248 205.567 248H204.143C203.423 248 202.895 247.552 202.671 247.184C202.383 247.68 201.839 248 201.023 248H199.711C198.959 248 198.399 247.584 198.191 247.12C197.919 247.616 197.423 248 196.271 248H195.791L195.247 247.792V246.96L195.791 246.752H196.127C197.071 246.752 197.407 246.272 197.407 245.664V241.6H198.639L198.655 245.664C198.655 246.416 199.135 246.752 199.663 246.752H200.847C201.471 246.752 201.903 246.272 201.903 245.664V241.6H203.119V245.664C203.119 246.272 203.567 246.752 204.223 246.752H205.439C206.063 246.752 206.399 246.272 206.399 245.664V240.224H207.615V245.664C207.615 246.272 208.063 246.752 208.735 246.752ZM210.589 248V246.752H212.237C212.621 246.752 212.989 246.48 212.989 245.968V240.416H214.237V246.352C214.237 247.296 213.517 248 212.589 248H210.589ZM212.781 251.328C212.349 251.328 211.981 250.976 211.981 250.528C211.981 250.096 212.349 249.728 212.781 249.728C213.229 249.728 213.581 250.096 213.581 250.528C213.581 250.976 213.229 251.328 212.781 251.328ZM229.604 238.368C229.156 238.368 228.788 238 228.788 237.568C228.788 237.136 229.156 236.768 229.604 236.768C230.036 236.768 230.404 237.136 230.404 237.568C230.404 238 230.036 238.368 229.604 238.368ZM232.004 246.752H234.74V248H223.956C222.132 247.984 220.772 246.608 220.772 244.784V242.704H222.02V244.784C222.02 245.936 222.836 246.752 223.988 246.752H227.22C226.644 246.304 226.26 245.568 226.26 244.736V243.2C226.26 241.344 227.508 239.952 229.62 239.952C231.732 239.952 232.964 241.296 232.964 243.2V244.736C232.964 245.568 232.58 246.304 232.004 246.752ZM231.732 244.736V243.2C231.732 242.032 230.98 241.2 229.652 241.2C228.212 241.2 227.508 241.984 227.508 243.2V244.736C227.508 245.84 228.436 246.752 229.556 246.752C230.98 246.752 231.732 245.84 231.732 244.736ZM243.271 240.144C245.735 240.144 247.031 241.472 247.031 244.32C247.031 246.352 245.383 248 243.367 248L235.511 247.984V246.752H237.367V240.96H238.599V242.896C239.863 241.504 241.527 240.144 243.271 240.144ZM243.303 246.752C244.695 246.752 245.815 245.632 245.815 244.24C245.815 242.096 244.775 241.376 243.159 241.376C241.655 241.376 240.055 242.48 238.599 244.176V246.752H243.303ZM253.432 239.936C255.304 239.936 256.68 241.344 256.68 243.2V248.72C256.68 250.96 254.872 251.984 251.288 251.376V250.208C254.376 250.608 255.432 250.032 255.432 248.464V247.984H253.144C251.416 247.968 250.024 246.496 250.024 244.736V243.2C250.024 241.344 251.4 239.936 253.272 239.936H253.432ZM255.432 243.2C255.432 242.016 254.6 241.184 253.432 241.184H253.272C252.088 241.184 251.272 242.016 251.272 243.2V244.736C251.272 245.84 252.136 246.736 253.176 246.736H255.432V243.2Z" fill="white"/>
<g opacity="0.5" filter="url(#filter0_i_4009_206)">
<path d="M178.553 131.585C178.553 138.995 174.241 145 166.86 145H139.298C131.917 145 127.605 138.995 127.605 131.585M181.476 114.816C185.166 114.816 188.158 118.57 188.158 123.2C188.158 127.831 185.166 131.585 181.476 131.585H124.682C120.992 131.585 118 127.831 118 123.2C118 118.57 120.992 114.816 124.682 114.816" stroke="url(#paint0_radial_4009_206)" stroke-width="6" stroke-miterlimit="10" stroke-linecap="round"/>
<path d="M178.553 131.585C178.553 138.995 174.241 145 166.86 145H139.298C131.917 145 127.605 138.995 127.605 131.585M181.476 114.816C185.166 114.816 188.158 118.57 188.158 123.2C188.158 127.831 185.166 131.585 181.476 131.585H124.682C120.992 131.585 118 127.831 118 123.2C118 118.57 120.992 114.816 124.682 114.816" stroke="url(#paint1_radial_4009_206)" stroke-width="6" stroke-miterlimit="10" stroke-linecap="round"/>
<path d="M178.553 131.585C178.553 138.995 174.241 145 166.86 145H139.298C131.917 145 127.605 138.995 127.605 131.585M181.476 114.816C185.166 114.816 188.158 118.57 188.158 123.2C188.158 127.831 185.166 131.585 181.476 131.585H124.682C120.992 131.585 118 127.831 118 123.2C118 118.57 120.992 114.816 124.682 114.816" stroke="url(#paint2_linear_4009_206)" stroke-width="6" stroke-miterlimit="10" stroke-linecap="round"/>
<path d="M124.682 102.797V102.752C124.682 91.4618 134.078 85.5539 145.562 85.5539H160.596C172.08 85.5539 181.476 91.5069 181.476 102.797V102.752M161.64 69.1318L163.193 82.2633M183.147 115.114H148.759C148.316 115.114 147.892 115.287 147.579 115.594L141.977 121.102C141.899 121.178 141.807 121.238 141.706 121.28C141.604 121.321 141.496 121.342 141.386 121.342C141.276 121.342 141.168 121.321 141.066 121.28C140.965 121.238 140.873 121.178 140.795 121.102L135.193 115.594C134.88 115.287 134.456 115.114 134.013 115.114H123.011C121.682 115.114 120.408 114.595 119.468 113.671C118.528 112.747 118 111.494 118 110.187C118 108.88 118.528 107.627 119.468 106.703C120.408 105.779 121.682 105.26 123.011 105.26H183.147C184.476 105.26 185.75 105.779 186.69 106.703C187.63 107.627 188.158 108.88 188.158 110.187C188.158 111.494 187.63 112.747 186.69 113.671C185.75 114.595 184.476 115.114 183.147 115.114Z" stroke="url(#paint3_radial_4009_206)" stroke-width="6" stroke-miterlimit="10" stroke-linecap="round"/>
<path d="M124.682 102.797V102.752C124.682 91.4618 134.078 85.5539 145.562 85.5539H160.596C172.08 85.5539 181.476 91.5069 181.476 102.797V102.752M161.64 69.1318L163.193 82.2633M183.147 115.114H148.759C148.316 115.114 147.892 115.287 147.579 115.594L141.977 121.102C141.899 121.178 141.807 121.238 141.706 121.28C141.604 121.321 141.496 121.342 141.386 121.342C141.276 121.342 141.168 121.321 141.066 121.28C140.965 121.238 140.873 121.178 140.795 121.102L135.193 115.594C134.88 115.287 134.456 115.114 134.013 115.114H123.011C121.682 115.114 120.408 114.595 119.468 113.671C118.528 112.747 118 111.494 118 110.187C118 108.88 118.528 107.627 119.468 106.703C120.408 105.779 121.682 105.26 123.011 105.26H183.147C184.476 105.26 185.75 105.779 186.69 106.703C187.63 107.627 188.158 108.88 188.158 110.187C188.158 111.494 187.63 112.747 186.69 113.671C185.75 114.595 184.476 115.114 183.147 115.114Z" stroke="url(#paint4_radial_4009_206)" stroke-width="6" stroke-miterlimit="10" stroke-linecap="round"/>
<path d="M124.682 102.797V102.752C124.682 91.4618 134.078 85.5539 145.562 85.5539H160.596C172.08 85.5539 181.476 91.5069 181.476 102.797V102.752M161.64 69.1318L163.193 82.2633M183.147 115.114H148.759C148.316 115.114 147.892 115.287 147.579 115.594L141.977 121.102C141.899 121.178 141.807 121.238 141.706 121.28C141.604 121.321 141.496 121.342 141.386 121.342C141.276 121.342 141.168 121.321 141.066 121.28C140.965 121.238 140.873 121.178 140.795 121.102L135.193 115.594C134.88 115.287 134.456 115.114 134.013 115.114H123.011C121.682 115.114 120.408 114.595 119.468 113.671C118.528 112.747 118 111.494 118 110.187C118 108.88 118.528 107.627 119.468 106.703C120.408 105.779 121.682 105.26 123.011 105.26H183.147C184.476 105.26 185.75 105.779 186.69 106.703C187.63 107.627 188.158 108.88 188.158 110.187C188.158 111.494 187.63 112.747 186.69 113.671C185.75 114.595 184.476 115.114 183.147 115.114Z" stroke="url(#paint5_linear_4009_206)" stroke-width="6" stroke-miterlimit="10" stroke-linecap="round"/>
<path d="M164.5 145H193.598C195.284 145 196.908 144.371 198.144 143.239C199.381 142.107 200.137 140.555 200.263 138.896L207.737 69.1318" stroke="url(#paint6_radial_4009_206)" stroke-width="6" stroke-miterlimit="10" stroke-linecap="round"/>
<path d="M164.5 145H193.598C195.284 145 196.908 144.371 198.144 143.239C199.381 142.107 200.137 140.555 200.263 138.896L207.737 69.1318" stroke="url(#paint7_radial_4009_206)" stroke-width="6" stroke-miterlimit="10" stroke-linecap="round"/>
<path d="M164.5 145H193.598C195.284 145 196.908 144.371 198.144 143.239C199.381 142.107 200.137 140.555 200.263 138.896L207.737 69.1318" stroke="url(#paint8_linear_4009_206)" stroke-width="6" stroke-miterlimit="10" stroke-linecap="round"/>
<path d="M188.156 69.1316L191.471 55.4263L201.209 52" stroke="url(#paint9_radial_4009_206)" stroke-width="6" stroke-linecap="round" stroke-linejoin="round"/>
<path d="M188.156 69.1316L191.471 55.4263L201.209 52" stroke="url(#paint10_radial_4009_206)" stroke-width="6" stroke-linecap="round" stroke-linejoin="round"/>
<path d="M188.156 69.1316L191.471 55.4263L201.209 52" stroke="url(#paint11_linear_4009_206)" stroke-width="6" stroke-linecap="round" stroke-linejoin="round"/>
<path d="M157.973 69.1318H211.815" stroke="url(#paint12_radial_4009_206)" stroke-width="6" stroke-miterlimit="10" stroke-linecap="round"/>
<path d="M157.973 69.1318H211.815" stroke="url(#paint13_radial_4009_206)" stroke-width="6" stroke-miterlimit="10" stroke-linecap="round"/>
<path d="M157.973 69.1318H211.815" stroke="url(#paint14_linear_4009_206)" stroke-width="6" stroke-miterlimit="10" stroke-linecap="round"/>
</g>
<defs>
<filter id="filter0_i_4009_206" x="115" y="48.999" width="99.8164" height="103.001" filterUnits="userSpaceOnUse" color-interpolation-filters="sRGB">
<feFlood flood-opacity="0" result="BackgroundImageFix"/>
<feBlend mode="normal" in="SourceGraphic" in2="BackgroundImageFix" result="shape"/>
<feColorMatrix in="SourceAlpha" type="matrix" values="0 0 0 0 0 0 0 0 0 0 0 0 0 0 0 0 0 0 127 0" result="hardAlpha"/>
<feOffset dy="4"/>
<feGaussianBlur stdDeviation="2"/>
<feComposite in2="hardAlpha" operator="arithmetic" k2="-1" k3="1"/>
<feColorMatrix type="matrix" values="0 0 0 0 1 0 0 0 0 1 0 0 0 0 1 0 0 0 1 0"/>
<feBlend mode="normal" in2="shape" result="effect1_innerShadow_4009_206"/>
</filter>
<radialGradient id="paint0_radial_4009_206" cx="0" cy="0" r="1" gradientUnits="userSpaceOnUse" gradientTransform="translate(153.079 129.908) rotate(90) scale(15.0921 35.0789)">
<stop stop-color="white"/>
<stop offset="1" stop-color="white"/>
</radialGradient>
<radialGradient id="paint1_radial_4009_206" cx="0" cy="0" r="1" gradientUnits="userSpaceOnUse" gradientTransform="translate(153.079 129.908) rotate(90) scale(15.0921 35.0789)">
<stop stop-color="white"/>
<stop offset="1" stop-color="white"/>
</radialGradient>
<linearGradient id="paint2_linear_4009_206" x1="153.079" y1="114.816" x2="153.079" y2="145" gradientUnits="userSpaceOnUse">
<stop stop-color="white" stop-opacity="0"/>
<stop offset="1" stop-color="white"/>
</linearGradient>
<radialGradient id="paint3_radial_4009_206" cx="0" cy="0" r="1" gradientUnits="userSpaceOnUse" gradientTransform="translate(153.079 95.2371) rotate(90) scale(26.1053 35.0789)">
<stop stop-color="white"/>
<stop offset="1" stop-color="white"/>
</radialGradient>
<radialGradient id="paint4_radial_4009_206" cx="0" cy="0" r="1" gradientUnits="userSpaceOnUse" gradientTransform="translate(153.079 95.2371) rotate(90) scale(26.1053 35.0789)">
<stop stop-color="white"/>
<stop offset="1" stop-color="white"/>
</radialGradient>
<linearGradient id="paint5_linear_4009_206" x1="153.079" y1="69.1318" x2="153.079" y2="121.342" gradientUnits="userSpaceOnUse">
<stop stop-color="white" stop-opacity="0"/>
<stop offset="1" stop-color="white"/>
</linearGradient>
<radialGradient id="paint6_radial_4009_206" cx="0" cy="0" r="1" gradientUnits="userSpaceOnUse" gradientTransform="translate(186.118 107.066) rotate(90) scale(37.9342 21.6184)">
<stop stop-color="white"/>
<stop offset="1" stop-color="white"/>
</radialGradient>
<radialGradient id="paint7_radial_4009_206" cx="0" cy="0" r="1" gradientUnits="userSpaceOnUse" gradientTransform="translate(186.118 107.066) rotate(90) scale(37.9342 21.6184)">
<stop stop-color="white"/>
<stop offset="1" stop-color="white"/>
</radialGradient>
<linearGradient id="paint8_linear_4009_206" x1="186.118" y1="69.1318" x2="186.118" y2="145" gradientUnits="userSpaceOnUse">
<stop stop-color="white" stop-opacity="0"/>
<stop offset="1" stop-color="white"/>
</linearGradient>
<radialGradient id="paint9_radial_4009_206" cx="0" cy="0" r="1" gradientUnits="userSpaceOnUse" gradientTransform="translate(194.683 60.5658) rotate(90) scale(8.56579 6.52632)">
<stop stop-color="white"/>
<stop offset="1" stop-color="white"/>
</radialGradient>
<radialGradient id="paint10_radial_4009_206" cx="0" cy="0" r="1" gradientUnits="userSpaceOnUse" gradientTransform="translate(194.683 60.5658) rotate(90) scale(8.56579 6.52632)">
<stop stop-color="white"/>
<stop offset="1" stop-color="white"/>
</radialGradient>
<linearGradient id="paint11_linear_4009_206" x1="194.683" y1="52" x2="194.683" y2="69.1316" gradientUnits="userSpaceOnUse">
<stop stop-color="white" stop-opacity="0"/>
<stop offset="1" stop-color="white"/>
</linearGradient>
<radialGradient id="paint12_radial_4009_206" cx="0" cy="0" r="1" gradientUnits="userSpaceOnUse" gradientTransform="translate(184.894 69.6318) rotate(90) scale(0.5 26.9211)">
<stop stop-color="white"/>
<stop offset="1" stop-color="white"/>
</radialGradient>
<radialGradient id="paint13_radial_4009_206" cx="0" cy="0" r="1" gradientUnits="userSpaceOnUse" gradientTransform="translate(184.894 69.6318) rotate(90) scale(0.5 26.9211)">
<stop stop-color="white"/>
<stop offset="1" stop-color="white"/>
</radialGradient>
<linearGradient id="paint14_linear_4009_206" x1="184.894" y1="69.1318" x2="184.894" y2="70.1318" gradientUnits="userSpaceOnUse">
<stop stop-color="white" stop-opacity="0"/>
<stop offset="1" stop-color="white"/>
</linearGradient>
</defs>
</svg>
