<svg width="14" height="24" viewBox="0 0 14 24" fill="none" xmlns="http://www.w3.org/2000/svg">
<path d="M13.18 11.2215C13.6067 11.6515 13.6067 12.3485 13.18 12.7785L2.36499 23.6775C1.93834 24.1075 1.24662 24.1075 0.819982 23.6775C0.39334 23.2476 0.39334 22.5505 0.819982 22.1205L11.635 11.2215C12.0617 10.7915 12.7534 10.7915 13.18 11.2215Z" fill="#BAA471"/>
<path d="M0.819984 0.322463C1.24663 -0.107492 1.93835 -0.107492 2.36499 0.322463L13.18 11.2215C13.6067 11.6515 13.6067 12.3485 13.18 12.7785C12.7534 13.2085 12.0617 13.2085 11.635 12.7785L0.819984 1.87947C0.393342 1.44951 0.393342 0.752417 0.819984 0.322463Z" fill="#BAA471"/>
</svg>
