<svg width="128" height="128" viewBox="0 0 128 128" fill="none" xmlns="http://www.w3.org/2000/svg">
<path d="M22.9259 35.7652H40.1391L65.4907 63.6815H48.2775L22.9259 35.7652ZM41.6632 32.3208H15.1445L46.7535 67.1259H73.2716L41.6632 32.3208Z" fill="#404040"/>
<path d="M68.3472 10L41.6632 30.9797H15.1445L20.9839 26.3901C34.4871 15.774 51.1689 10 68.3472 10Z" fill="#404040"/>
<path d="M62.7306 35.6436H79.9393L105.295 63.5599H88.0822L62.7306 35.6436ZM81.4678 32.1992H54.9492L86.5581 67.0043H113.077L81.4678 32.1992Z" fill="#404040"/>
<path d="M113.074 68.3452L107.234 72.9348C100.485 78.2429 92.9348 82.3404 84.9313 85.1098C76.9274 87.8836 68.4624 89.3249 59.8711 89.3249L86.5555 68.3452H113.074Z" fill="#404040"/>
<path d="M18.6882 106.46C18.1875 106.923 17.499 107.211 16.7605 107.211C15.1828 107.211 13.9059 105.946 13.9059 104.369C13.9059 102.804 15.1828 101.527 16.7605 101.527C17.499 101.527 18.1875 101.815 18.6882 102.291L20.0276 100.939C19.1765 100.125 18.0248 99.6245 16.7605 99.6245C14.144 99.6245 12.0156 101.753 12.0156 104.369C12.0156 106.985 14.144 109.113 16.7605 109.113C18.0248 109.113 19.1765 108.613 20.0276 107.799L18.6882 106.46Z" fill="#404040"/>
<path d="M32.5337 107.224C30.9561 107.224 29.6794 105.946 29.6794 104.369C29.6794 102.804 30.9561 101.527 32.5337 101.527C34.0986 101.527 35.3754 102.804 35.3754 104.369C35.3754 105.946 34.0986 107.224 32.5337 107.224ZM32.5337 99.6245C29.9175 99.6245 27.7891 101.753 27.7891 104.369C27.7891 106.985 29.9175 109.113 32.5337 109.113C35.1498 109.113 37.2779 106.985 37.2779 104.369C37.2779 101.753 35.1498 99.6245 32.5337 99.6245Z" fill="#404040"/>
<path d="M50.4836 106.56L47.7045 99.6245H45.6641V109.113H47.5543V104.369L49.4572 109.113H51.4977L53.4006 104.369V109.113H55.2909V99.6245H53.2499L50.4836 106.56Z" fill="#404040"/>
<path d="M66.3298 103.418H65.566V101.527H66.3298C66.8554 101.527 67.2812 101.953 67.2812 102.479C67.2812 102.992 66.8554 103.418 66.3298 103.418ZM66.3298 99.6245H63.6758V109.113H65.566V105.321H66.342C67.907 105.321 69.171 104.043 69.171 102.479C69.171 100.901 67.907 99.6245 66.3298 99.6245Z" fill="#404040"/>
<path d="M79.9763 104.557L80.7401 102.416L81.5165 104.557H79.9763ZM79.739 99.6245L76.3086 109.113H78.3242L79.2879 106.46H82.2049L83.169 109.113H85.1843L81.7543 99.6245H79.739Z" fill="#404040"/>
<path d="M101.22 99.6245H99.3295V105.959L95.5363 99.6245H93.3203V109.113H95.2106V102.792L99.0164 109.113H101.22V99.6245Z" fill="#404040"/>
<path d="M113.724 109.113V104.595L116.203 99.6245H114.087L112.785 102.253L111.471 99.6245H109.355L111.834 104.595V109.113H113.724Z" fill="#404040"/>
<path d="M12 113.722H13.1V117.2H13.7122V113.722H14.8127V113.179H12V113.722Z" fill="#404040"/>
<path d="M18.9234 115.76L19.5053 114.003H19.5164L20.0981 115.76H18.9234ZM19.2544 113.179L17.793 117.2H18.4382L18.7469 116.3H20.2718L20.5836 117.2H21.2263L19.7646 113.179H19.2544Z" fill="#404040"/>
<path d="M26.2471 115.561H27.0661V115.771C27.0624 116.023 26.9834 116.225 26.8288 116.38C26.6742 116.542 26.4787 116.622 26.2414 116.622C26.0977 116.622 25.9749 116.592 25.8717 116.532C25.7672 116.48 25.6827 116.413 25.6178 116.33C25.539 116.244 25.4868 116.131 25.4611 115.991C25.4315 115.851 25.4171 115.584 25.4171 115.189C25.4171 114.793 25.4315 114.524 25.4611 114.381C25.4868 114.245 25.5391 114.133 25.6178 114.047C25.6828 113.964 25.7672 113.895 25.8717 113.84C25.9749 113.787 26.0977 113.758 26.2414 113.755C26.4365 113.758 26.602 113.814 26.7378 113.923C26.8685 114.037 26.9586 114.175 27.0082 114.336H27.6536C27.5891 114 27.4345 113.718 27.1902 113.49C26.9455 113.264 26.6294 113.149 26.2414 113.145C25.9253 113.149 25.6614 113.224 25.4502 113.371C25.2349 113.517 25.0787 113.682 24.9811 113.867C24.9207 113.965 24.8754 114.093 24.8462 114.251C24.8186 114.409 24.8047 114.722 24.8047 115.189C24.8047 115.648 24.8186 115.959 24.8462 116.121C24.8606 116.207 24.8791 116.279 24.9013 116.336C24.9252 116.391 24.9517 116.449 24.9811 116.51C25.0787 116.695 25.2349 116.859 25.4502 117C25.6614 117.148 25.9253 117.225 26.2414 117.232C26.6512 117.225 26.9917 117.086 27.2617 116.815C27.5303 116.544 27.668 116.206 27.6753 115.803V114.984H26.2471V115.561" fill="#404040"/>
<path d="M32.3865 113.179H31.7773V117.2H34.3447V116.623H32.3865V113.179Z" fill="#404040"/>
<path d="M38.3047 117.2H38.9143V113.179H38.3047V117.2Z" fill="#404040"/>
<path d="M45.5571 116.036H45.546L43.7262 113.179H43.1523V117.2H43.7619V114.343H43.773L45.5902 117.2H46.1667V113.179H45.5575V116.036" fill="#404040"/>
<path d="M50.4023 117.2H52.9697V116.623H51.012V115.443H52.6832V114.902H51.012V113.755H52.9697V113.179H50.4023V117.2Z" fill="#404040"/>
<path d="M62.9773 115.561H63.7964V115.771C63.7927 116.023 63.7137 116.225 63.5591 116.38C63.405 116.542 63.209 116.622 62.9717 116.622C62.828 116.622 62.7052 116.592 62.6024 116.532C62.4975 116.48 62.413 116.413 62.3485 116.33C62.2693 116.244 62.217 116.131 62.1913 115.991C62.1617 115.851 62.1474 115.584 62.1474 115.189C62.1474 114.793 62.1617 114.524 62.1913 114.381C62.217 114.245 62.2692 114.133 62.3485 114.047C62.413 113.964 62.4975 113.895 62.6024 113.84C62.7052 113.787 62.828 113.758 62.9717 113.755C63.1668 113.758 63.3322 113.814 63.4681 113.923C63.5987 114.037 63.6888 114.175 63.7385 114.336H64.3838C64.3194 114 64.1648 113.718 63.9205 113.49C63.6758 113.264 63.3597 113.149 62.9717 113.145C62.6556 113.149 62.3921 113.224 62.1805 113.371C61.9654 113.517 61.809 113.682 61.7115 113.867C61.651 113.965 61.6057 114.093 61.5765 114.251C61.5486 114.409 61.5352 114.722 61.5352 115.189C61.5352 115.648 61.5486 115.959 61.5765 116.121C61.5908 116.207 61.6096 116.279 61.6313 116.336C61.6553 116.391 61.6818 116.449 61.7114 116.51C61.8089 116.695 61.9653 116.859 62.1804 117C62.392 117.148 62.6555 117.225 62.9716 117.232C63.3818 117.225 63.7219 117.086 63.9923 116.815C64.2605 116.544 64.3981 116.206 64.4055 115.803V114.984H62.9773V115.561" fill="#404040"/>
<path d="M70.5915 115.991C70.5619 116.131 70.5074 116.244 70.4286 116.33C70.3682 116.413 70.2871 116.48 70.1861 116.531C70.0794 116.593 69.9531 116.622 69.8081 116.622C69.6644 116.622 69.5416 116.592 69.4384 116.531C69.3339 116.48 69.2495 116.413 69.1846 116.33C69.1057 116.244 69.0535 116.131 69.0274 115.991C68.9982 115.851 68.9834 115.584 68.9834 115.189C68.9834 114.793 68.9982 114.524 69.0274 114.381C69.0535 114.245 69.1058 114.133 69.1846 114.047C69.2495 113.964 69.3339 113.895 69.4384 113.84C69.5416 113.787 69.6644 113.758 69.8081 113.755C69.9531 113.758 70.0794 113.787 70.1861 113.84C70.2871 113.895 70.3681 113.964 70.4286 114.047C70.5075 114.133 70.5619 114.245 70.5915 114.381C70.6189 114.524 70.6328 114.793 70.6328 115.189C70.6328 115.584 70.6189 115.851 70.5915 115.991ZM71.0657 113.867C70.9716 113.682 70.8192 113.517 70.6081 113.371C70.3947 113.224 70.1282 113.149 69.8081 113.145C69.492 113.149 69.2281 113.224 69.0165 113.371C68.8014 113.517 68.6455 113.682 68.5475 113.867C68.4874 113.965 68.4421 114.093 68.4129 114.251C68.385 114.409 68.3711 114.722 68.3711 115.189C68.3711 115.648 68.385 115.959 68.4129 116.121C68.4273 116.207 68.4457 116.279 68.4678 116.336C68.4917 116.391 68.5182 116.449 68.5475 116.51C68.6455 116.695 68.8014 116.859 69.0165 117C69.2281 117.148 69.492 117.225 69.8081 117.232C70.1282 117.225 70.3946 117.148 70.608 117C70.8192 116.859 70.9716 116.695 71.0657 116.51C71.1336 116.412 71.1802 116.282 71.2063 116.121C71.2303 115.959 71.242 115.648 71.242 115.189C71.242 114.722 71.2296 114.409 71.2063 114.251C71.1801 114.093 71.1336 113.965 71.0657 113.867Z" fill="#404040"/>
<path d="M75.3398 117.2H77.9068V116.623H75.949V115.443H77.6203V114.902H75.949V113.755H77.9068V113.179H75.3398V117.2Z" fill="#404040"/>
<path d="M83.3645 114.907C83.1733 114.884 83.0227 114.863 82.9121 114.844C82.714 114.807 82.5694 114.741 82.4788 114.646C82.3891 114.552 82.3438 114.447 82.3438 114.331C82.3475 114.138 82.4148 113.993 82.5454 113.895C82.6704 113.802 82.8268 113.755 83.014 113.755C83.3763 113.762 83.7081 113.865 84.0098 114.063L84.3486 113.562C83.9794 113.295 83.5444 113.156 83.0445 113.145C82.6291 113.149 82.3081 113.257 82.0822 113.471C81.8488 113.685 81.732 113.969 81.732 114.32C81.732 114.612 81.8247 114.861 82.0103 115.065C82.1906 115.263 82.4536 115.391 82.7989 115.448C82.9922 115.476 83.1694 115.5 83.3314 115.522C83.6846 115.583 83.8587 115.763 83.8553 116.063C83.8479 116.429 83.5831 116.616 83.061 116.622C82.6199 116.619 82.2393 116.486 81.9193 116.223L81.5195 116.68C81.948 117.048 82.4601 117.232 83.0558 117.232C83.9768 117.221 84.447 116.831 84.4675 116.063C84.4675 115.778 84.3783 115.528 84.2002 115.313C84.0199 115.094 83.7412 114.959 83.3645 114.907" fill="#404040"/>
<path d="M95.4429 114.902H93.8514V113.179H93.2422V117.2H93.8514V115.443H95.4429V117.2H96.0521V113.179H95.4429V114.902Z" fill="#404040"/>
<path d="M100.289 117.2H102.856V116.623H100.898V115.443H102.569V114.902H100.898V113.755H102.856V113.179H100.289V117.2Z" fill="#404040"/>
<path d="M107.429 114.941V113.722H108.384C108.579 113.722 108.728 113.763 108.831 113.846C108.961 113.94 109.028 114.092 109.032 114.301C109.032 114.476 108.976 114.623 108.864 114.742C108.75 114.871 108.579 114.937 108.351 114.941H107.429ZM109.608 114.301C109.597 113.93 109.464 113.644 109.208 113.443C108.997 113.267 108.724 113.179 108.389 113.179H106.82V117.2H107.429V115.482H108.207L109.037 117.2H109.763L108.831 115.415C109.342 115.219 109.601 114.847 109.608 114.301Z" fill="#404040"/>
<path d="M113.652 117.2H116.22V116.623H114.262V115.443H115.933V114.902H114.262V113.755H116.22V113.179H113.652V117.2Z" fill="#404040"/>
</svg>
