<svg width="128" height="128" viewBox="0 0 128 128" fill="none" xmlns="http://www.w3.org/2000/svg">
<path d="M44.1176 42.92L58.931 17.2619L72.4977 40.7628C71.6625 40.7484 70.8264 40.7432 69.993 40.7432C69.5632 40.7432 69.13 40.7454 68.6915 40.7484L61.2096 27.787L58.931 23.8405L56.651 27.787L48.3022 42.2481C46.8905 42.4519 45.4923 42.6761 44.1176 42.92V42.92ZM58.931 29.1025L67.1831 43.3986C68.1145 43.3811 69.0511 43.3742 69.993 43.3742C72.408 43.3742 74.7916 43.4286 77.1369 43.534L58.931 12L38.9258 46.6505C42.4002 45.8579 46.0854 45.1948 49.9386 44.6775L58.931 29.1025Z" fill="#404040"/>
<path d="M70.7496 49.5745L75.8709 58.4454H42.0178C49.1874 54.4463 59.155 51.3307 70.7496 49.5745ZM46.6622 90.6896C36.3439 86.1553 30.0382 80.087 30.0382 73.4203C30.0382 71.2013 30.7363 69.0493 32.0491 66.9971H90.6834L80.0011 48.4955C84.0655 48.158 88.2737 47.9804 92.5837 47.9804C98.389 47.9804 104.011 48.3022 109.344 48.9052C109.037 48.8055 108.719 48.7115 108.407 48.6144C108.719 48.7115 109.037 48.8055 109.344 48.9048C109.702 48.9453 110.058 48.9862 110.413 49.0293C109.473 48.7912 108.517 48.5639 107.543 48.3466C107.542 48.3466 107.542 48.3461 107.542 48.3461C98.8319 46.4041 88.811 45.2924 78.1453 45.2806C78.0821 45.2793 78.0181 45.2793 77.955 45.2793C75.5269 45.2793 73.1334 45.3368 70.7806 45.4474C69.996 45.4844 69.2161 45.5275 68.4414 45.5763C61.0101 46.0426 54.0248 47.0472 47.7391 48.4881C47.1961 48.6126 46.6583 48.7402 46.1258 48.8713C42.3992 49.7874 38.9379 50.8604 35.7984 52.067C24.2131 56.5138 17 62.7776 17 69.7164C17 78.6247 28.8918 86.4205 46.6627 90.6896" fill="#404040"/>
<path d="M22.6549 108.199C22.9777 108.051 23.2594 107.852 23.5003 107.6C23.7408 107.348 23.9295 107.061 24.0665 106.738C24.2033 106.416 24.2716 106.073 24.2716 105.712V104.99H22.5976V105.565C22.5976 105.794 22.5648 105.986 22.4991 106.139C22.4334 106.292 22.3513 106.413 22.2528 106.5C22.1435 106.588 22.0256 106.651 21.8999 106.689C21.774 106.727 21.6564 106.746 21.5469 106.746C21.164 106.746 20.8988 106.632 20.7512 106.402C20.6034 106.172 20.5295 105.887 20.5295 105.548V99.5739C20.5295 99.1799 20.5976 98.8546 20.7347 98.5972C20.8713 98.3403 21.1477 98.2114 21.5636 98.2114C21.8808 98.2114 22.1323 98.3321 22.3186 98.5729C22.5043 98.8137 22.5976 99.098 22.5976 99.4263V99.9841H24.2716V99.3279C24.2716 98.923 24.2032 98.548 24.0665 98.2036C23.9295 97.8587 23.7408 97.5609 23.5003 97.3092C23.0078 96.7945 22.3676 96.5376 21.5799 96.5376C21.1749 96.5376 20.8058 96.606 20.4719 96.7427C20.1382 96.8799 19.8508 97.0684 19.6104 97.3092C19.3695 97.5496 19.1838 97.8344 19.0523 98.1627C18.9212 98.4906 18.8555 98.8463 18.8555 99.2291V105.663C18.8555 106.199 18.94 106.639 19.11 106.984C19.2793 107.329 19.4955 107.611 19.7582 107.83C20.0208 108.049 20.3161 108.202 20.6444 108.289C20.9726 108.376 21.2952 108.42 21.6127 108.42C21.9846 108.42 22.3322 108.346 22.6549 108.199" fill="#404040"/>
<path d="M36.0406 105.565C36.0406 105.97 35.9283 106.268 35.704 106.459C35.4797 106.651 35.2141 106.746 34.908 106.746C34.6018 106.746 34.3363 106.651 34.112 106.459C33.8878 106.268 33.7759 105.97 33.7759 105.565V99.3932C33.7759 98.9887 33.8878 98.6904 34.112 98.4988C34.3363 98.3077 34.6018 98.2114 34.908 98.2114C35.2141 98.2114 35.4797 98.3077 35.704 98.4988C35.9282 98.6904 36.0406 98.9887 36.0406 99.3932V105.565ZM37.7149 99.3932C37.7149 98.923 37.6325 98.5071 37.4684 98.1461C37.3042 97.7847 37.0909 97.4838 36.8283 97.2435C36.5549 97.0135 36.2513 96.8385 35.9178 96.7183C35.5838 96.5977 35.2472 96.5376 34.908 96.5376C34.5688 96.5376 34.2322 96.5977 33.8987 96.7183C33.5647 96.8385 33.2668 97.0135 33.0043 97.2435C32.7308 97.4838 32.5118 97.7847 32.3476 98.1461C32.1834 98.5071 32.1016 98.923 32.1016 99.3932V105.565C32.1016 106.057 32.1834 106.478 32.3476 106.828C32.5118 107.179 32.7308 107.469 33.0043 107.698C33.2668 107.939 33.5647 108.12 33.8987 108.24C34.2322 108.36 34.5688 108.42 34.908 108.42C35.2472 108.42 35.5838 108.36 35.9178 108.24C36.2513 108.12 36.5549 107.939 36.8283 107.698C37.0909 107.469 37.3042 107.179 37.4684 106.828C37.6325 106.478 37.7149 106.057 37.7149 105.565V99.3932Z" fill="#404040"/>
<path d="M49.5489 102.823H49.5162L47.366 96.6357H45.7578V108.322H47.4317V101.215H47.4647L49.106 106.237H49.9429L51.6006 101.215H51.6333V108.322H53.3076V96.6357H51.683L49.5489 102.823Z" fill="#404040"/>
<path d="M65.2776 101.018C65.2614 101.259 65.2092 101.461 65.1217 101.625C65.0342 101.8 64.8975 101.937 64.7116 102.036C64.5256 102.134 64.263 102.183 63.9238 102.183H63.1195V98.2112H63.9892C64.3179 98.2112 64.5692 98.2608 64.7446 98.3592C64.9193 98.4576 65.0508 98.6 65.1383 98.786C65.2258 98.9719 65.275 99.1879 65.2859 99.4339C65.297 99.6804 65.3024 99.9403 65.3024 100.214C65.3024 100.509 65.2938 100.777 65.2777 101.018H65.2776ZM66.1232 97.4566C65.8385 97.15 65.521 96.9371 65.1709 96.8165C64.8208 96.6958 64.4163 96.6357 63.9565 96.6357H61.4453V108.322H63.1195V103.759H63.973C64.5966 103.759 65.1 103.652 65.4827 103.439C65.8659 103.225 66.172 102.927 66.4019 102.544C66.5992 102.227 66.7276 101.888 66.7877 101.527C66.8478 101.166 66.8784 100.722 66.8784 100.197C66.8784 99.497 66.8234 98.9419 66.7142 98.5317C66.6045 98.121 66.4077 97.7631 66.1233 97.4566" fill="#404040"/>
<path d="M75.7897 104.235L76.6105 100H76.6432L77.4641 104.235H75.7897ZM75.9377 96.6357L73.3281 108.322H75.002L75.4945 105.811H77.7757L78.2682 108.322H79.9425L77.3329 96.6357H75.9377Z" fill="#404040"/>
<path d="M93.1089 108.322V96.6357H91.4346V103.677H91.4019L88.8742 96.6357H87.2656V108.322H88.9399V101.297H88.9726L91.533 108.322H93.1089Z" fill="#404040"/>
<path d="M104.417 108.322V103.381L106.715 96.6357H104.942L103.596 101.281H103.564L102.218 96.6357H100.445L102.743 103.381V108.322H104.417" fill="#404040"/>
<path d="M20.2612 116.115V113.18H21.1895V112.722H18.8164V113.18H19.7446V116.115H20.2612Z" fill="#404040"/>
<path d="M24.6568 114.9L25.1477 113.418H25.1576L25.6488 114.9H24.6568ZM24.9361 112.722L23.7031 116.115H24.2476L24.508 115.356H25.7948L26.0578 116.115H26.5999L25.3667 112.722H24.9361Z" fill="#404040"/>
<path d="M30.3073 113.456C30.3618 113.385 30.4328 113.328 30.5216 113.281C30.6083 113.236 30.7123 113.212 30.8333 113.209C30.9979 113.212 31.1373 113.259 31.2522 113.351C31.3625 113.447 31.4386 113.563 31.48 113.7H32.0247C31.9703 113.416 31.8401 113.178 31.6337 112.986C31.4278 112.795 31.1608 112.697 30.8333 112.695C30.5664 112.697 30.3439 112.761 30.1654 112.886C29.9843 113.008 29.8519 113.148 29.7696 113.304C29.7186 113.386 29.6807 113.494 29.6559 113.628C29.6328 113.761 29.6211 114.025 29.6211 114.419C29.6211 114.807 29.6334 115.069 29.6559 115.205C29.6682 115.278 29.6838 115.339 29.7025 115.387C29.7225 115.433 29.7453 115.482 29.7696 115.533C29.8519 115.69 29.9843 115.828 30.1654 115.948C30.3439 116.072 30.5664 116.137 30.8333 116.143C31.1791 116.137 31.4661 116.019 31.6942 115.792C31.9207 115.562 32.0374 115.277 32.043 114.937V114.247H30.8382V114.733H31.5292V114.909C31.5255 115.122 31.4591 115.294 31.3293 115.424C31.1987 115.56 31.0337 115.629 30.8333 115.629C30.7123 115.629 30.6083 115.603 30.5216 115.552C30.4327 115.509 30.3618 115.452 30.3073 115.382C30.2407 115.309 30.1963 115.214 30.175 115.096C30.1502 114.978 30.1375 114.752 30.1375 114.419C30.1375 114.085 30.1502 113.858 30.175 113.737C30.1963 113.622 30.2408 113.528 30.3073 113.456Z" fill="#404040"/>
<path d="M35.5 112.722V116.115H37.6663V115.628H36.0143V112.722H35.5Z" fill="#404040"/>
<path d="M41.0117 112.722V116.115H41.526V112.722H41.0117Z" fill="#404040"/>
<path d="M45.0977 112.722V116.115H45.6115V113.704H45.6213L47.1545 116.115H47.641V112.722H47.1266V115.133H47.1181L45.5822 112.722H45.0984" fill="#404040"/>
<path d="M53.3851 113.208V112.722H51.2188V116.115H53.3851V115.628H51.733V114.632H53.143V114.176H51.733V113.208H53.3851Z" fill="#404040"/>
<path d="M60.7621 113.304C60.7112 113.386 60.6729 113.494 60.6481 113.628C60.625 113.761 60.6133 114.025 60.6133 114.419C60.6133 114.807 60.6256 115.069 60.6481 115.205C60.6604 115.278 60.676 115.339 60.6946 115.387C60.7146 115.433 60.7373 115.482 60.7621 115.533C60.8445 115.69 60.9759 115.828 61.1575 115.948C61.3361 116.072 61.5586 116.137 61.8255 116.143C62.1717 116.137 62.4582 116.019 62.6864 115.792C62.9128 115.562 63.0291 115.277 63.0352 114.937V114.247H61.8304V114.733H62.5214V114.909C62.5177 115.122 62.4512 115.294 62.321 115.424C62.1908 115.56 62.0258 115.629 61.8255 115.629C61.7044 115.629 61.6004 115.603 61.5137 115.552C61.4253 115.509 61.354 115.452 61.2995 115.382C61.2329 115.309 61.1884 115.214 61.1667 115.096C61.1419 114.978 61.1296 114.752 61.1296 114.419C61.1296 114.085 61.142 113.858 61.1667 113.737C61.1884 113.622 61.2329 113.528 61.2995 113.456C61.354 113.385 61.4253 113.328 61.5137 113.281C61.6004 113.236 61.7045 113.212 61.8255 113.209C61.9901 113.212 62.1294 113.259 62.2444 113.351C62.3541 113.447 62.4304 113.563 62.4722 113.7H63.0169C62.9625 113.416 62.8323 113.178 62.6258 112.986C62.4194 112.795 62.153 112.697 61.8255 112.695C61.5586 112.697 61.3361 112.761 61.1575 112.886C60.9759 113.008 60.8445 113.148 60.7621 113.304Z" fill="#404040"/>
<path d="M66.9329 113.737C66.9546 113.622 66.9987 113.528 67.0657 113.456C67.1201 113.385 67.191 113.328 67.2799 113.281C67.3665 113.236 67.4706 113.212 67.5912 113.209C67.7141 113.212 67.8203 113.236 67.91 113.281C67.9953 113.328 68.0637 113.385 68.1146 113.456C68.1816 113.528 68.2275 113.622 68.2522 113.737C68.2757 113.858 68.2871 114.085 68.2871 114.419C68.2871 114.752 68.2759 114.978 68.2522 115.096C68.2274 115.214 68.1816 115.309 68.1146 115.382C68.0636 115.452 67.9953 115.509 67.91 115.552C67.8203 115.603 67.714 115.629 67.5912 115.629C67.4706 115.629 67.3665 115.603 67.2799 115.552C67.191 115.509 67.1201 115.452 67.0657 115.382C66.9987 115.309 66.9546 115.214 66.9329 115.096C66.9081 114.978 66.8954 114.752 66.8954 114.419C66.8954 114.085 66.9081 113.858 66.9329 113.737ZM66.5278 113.304C66.4769 113.386 66.4386 113.494 66.4142 113.628C66.3906 113.761 66.3789 114.025 66.3789 114.419C66.3789 114.807 66.3912 115.069 66.4142 115.205C66.4265 115.278 66.4421 115.339 66.4607 115.387C66.4807 115.433 66.503 115.482 66.5278 115.533C66.6101 115.69 66.742 115.828 66.9236 115.948C67.1021 116.072 67.3246 116.137 67.5911 116.143C67.8611 116.137 68.0862 116.072 68.266 115.948C68.4446 115.828 68.573 115.69 68.6523 115.533C68.7098 115.451 68.7494 115.342 68.7712 115.205C68.7912 115.069 68.8012 114.807 68.8012 114.419C68.8012 114.025 68.7913 113.761 68.7712 113.628C68.7494 113.494 68.7098 113.386 68.6523 113.304C68.573 113.148 68.4446 113.008 68.266 112.886C68.0862 112.761 67.8611 112.697 67.5911 112.695C67.3246 112.697 67.1021 112.761 66.9236 112.886C66.742 113.008 66.6101 113.148 66.5278 113.304" fill="#404040"/>
<path d="M72.2617 116.115H74.428V115.628H72.776V114.632H74.1859V114.176H72.776V113.208H74.428V112.722H72.2617V116.115Z" fill="#404040"/>
<path d="M78.7773 115.629C78.405 115.626 78.084 115.513 77.8141 115.291L77.4766 115.678C77.838 115.988 78.27 116.143 78.7729 116.143C79.5502 116.134 79.9469 115.805 79.9643 115.156C79.9643 114.916 79.889 114.705 79.7383 114.523C79.5863 114.339 79.3516 114.225 79.0333 114.181C78.8722 114.161 78.745 114.144 78.6518 114.128C78.4846 114.097 78.3623 114.041 78.2865 113.96C78.2107 113.881 78.1725 113.793 78.1725 113.695C78.1749 113.532 78.2321 113.41 78.3423 113.328C78.448 113.248 78.5796 113.209 78.7381 113.209C79.0438 113.215 79.3234 113.302 79.5781 113.469L79.8642 113.046C79.5524 112.821 79.1853 112.704 78.7633 112.695C78.4128 112.697 78.1424 112.789 77.9513 112.969C77.7545 113.151 77.656 113.389 77.656 113.686C77.656 113.932 77.7344 114.142 77.8908 114.314C78.0427 114.482 78.2648 114.589 78.5565 114.637C78.7194 114.661 78.8687 114.682 79.0055 114.7C79.3033 114.751 79.4505 114.903 79.4475 115.156C79.4413 115.465 79.2179 115.623 78.7773 115.629Z" fill="#404040"/>
<path d="M89.7382 116.115V112.722H89.2244V114.176H87.8814V112.722H87.3672V116.115H87.8814V114.632H89.2244V116.115H89.7382Z" fill="#404040"/>
<path d="M95.4788 113.208V112.722H93.3125V116.115H95.4788V115.628H93.8268V114.632H95.2368V114.176H93.8268V113.208H95.4788Z" fill="#404040"/>
<path d="M99.338 114.209V113.18H100.143C100.308 113.18 100.433 113.215 100.52 113.285C100.63 113.364 100.687 113.492 100.69 113.669C100.69 113.816 100.643 113.941 100.548 114.041C100.452 114.15 100.308 114.206 100.115 114.209L99.338 114.209ZM100.52 114.609C100.951 114.443 101.17 114.13 101.176 113.669C101.167 113.356 101.054 113.115 100.839 112.946C100.66 112.796 100.43 112.722 100.148 112.722H98.8242V116.115H99.338V114.665H99.9942L100.694 116.115H101.307L100.52 114.609Z" fill="#404040"/>
<path d="M106.752 113.208V112.722H104.586V116.115H106.752V115.628H105.1V114.632H106.51V114.176H105.1V113.208H106.752Z" fill="#404040"/>
</svg>
