<svg width="438" height="521" viewBox="0 0 438 521" fill="none" xmlns="http://www.w3.org/2000/svg">
<path d="M437.916 223.825C437.953 225.165 437.978 226.51 437.991 227.86L436.991 227.869C436.997 228.541 437 229.215 437 229.889C437 230.553 436.997 231.218 436.991 231.882L437.991 231.891C437.979 233.225 437.955 234.56 437.919 235.895L436.919 235.868C436.883 237.197 436.835 238.527 436.775 239.856L437.774 239.901C437.714 241.235 437.643 242.57 437.559 243.904L436.561 243.842C436.478 245.167 436.384 246.492 436.278 247.817L437.274 247.897C437.168 249.228 437.05 250.558 436.92 251.888L435.925 251.791C435.796 253.116 435.656 254.44 435.504 255.763L436.498 255.877C436.346 257.202 436.183 258.527 436.009 259.85L435.017 259.72C434.844 261.037 434.659 262.354 434.464 263.67L435.453 263.817C435.257 265.138 435.05 266.459 434.832 267.778L433.845 267.615C433.628 268.927 433.401 270.238 433.162 271.549L434.146 271.727C433.908 273.039 433.658 274.35 433.399 275.659L432.418 275.465C432.159 276.769 431.89 278.072 431.61 279.374L432.588 279.585C432.307 280.892 432.015 282.198 431.714 283.503L430.739 283.278C430.44 284.57 430.131 285.862 429.812 287.152L430.783 287.392C430.462 288.687 430.132 289.981 429.791 291.273L428.824 291.018C428.485 292.306 428.135 293.591 427.776 294.876L428.739 295.145C428.38 296.43 428.011 297.713 427.632 298.995L426.673 298.711C426.296 299.985 425.909 301.257 425.513 302.527L426.468 302.825C426.071 304.1 425.664 305.373 425.247 306.644L424.297 306.332C423.882 307.598 423.458 308.861 423.025 310.123L423.97 310.448C423.537 311.708 423.095 312.966 422.644 314.222L421.703 313.883C421.253 315.135 420.794 316.384 420.326 317.631L421.262 317.982C420.792 319.234 420.314 320.483 419.826 321.73L418.895 321.365C418.411 322.603 417.918 323.839 417.416 325.072L418.342 325.449C417.839 326.684 417.328 327.917 416.807 329.147L415.886 328.757C415.368 329.983 414.841 331.207 414.305 332.428L415.221 332.829C414.684 334.053 414.139 335.274 413.585 336.492L412.675 336.078C412.125 337.287 411.567 338.494 411 339.698L411.905 340.124C411.337 341.331 410.76 342.536 410.175 343.738L409.276 343.3C408.693 344.498 408.102 345.693 407.503 346.885L408.397 347.335C407.798 348.526 407.191 349.715 406.576 350.901L405.688 350.44C405.076 351.621 404.456 352.798 403.828 353.972L404.709 354.444C404.079 355.622 403.442 356.796 402.796 357.967L401.921 357.485C401.278 358.651 400.627 359.814 399.969 360.974L400.839 361.468C400.18 362.628 399.515 363.784 398.841 364.937L397.978 364.432C397.307 365.582 396.628 366.727 395.942 367.869L396.8 368.384C396.112 369.53 395.416 370.672 394.714 371.81L393.863 371.285C393.164 372.417 392.458 373.545 391.744 374.67L392.589 375.206C391.874 376.333 391.152 377.456 390.423 378.575L389.585 378.029C388.859 379.145 388.125 380.257 387.385 381.365L388.216 381.921C387.473 383.032 386.724 384.138 385.968 385.241L385.143 384.675C384.391 385.773 383.631 386.866 382.865 387.955L383.683 388.53C382.915 389.622 382.14 390.71 381.358 391.793L380.547 391.208C379.768 392.289 378.982 393.365 378.19 394.436L378.994 395.031C378.2 396.105 377.4 397.174 376.593 398.239L375.796 397.635C374.992 398.696 374.181 399.753 373.365 400.804L374.155 401.418C373.335 402.473 372.51 403.523 371.679 404.569L370.896 403.946C370.067 404.989 369.232 406.027 368.39 407.06L369.166 407.691C368.322 408.727 367.473 409.758 366.617 410.783L365.849 410.143C364.996 411.166 364.137 412.183 363.272 413.196L364.033 413.846C363.166 414.861 362.292 415.872 361.413 416.878L360.66 416.219C359.784 417.222 358.901 418.22 358.013 419.213L358.758 419.879C357.867 420.875 356.97 421.865 356.068 422.85L355.331 422.175C354.431 423.157 353.526 424.134 352.615 425.105L353.345 425.789C352.431 426.763 351.512 427.732 350.588 428.695L349.866 428.003C348.943 428.964 348.015 429.92 347.081 430.871L347.795 431.572C346.858 432.525 345.916 433.472 344.969 434.414L344.264 433.705C343.32 434.644 342.371 435.577 341.416 436.504L342.113 437.222C341.154 438.153 340.191 439.078 339.222 439.997L338.534 439.272C337.567 440.189 336.595 441.101 335.618 442.006L336.297 442.74C335.317 443.648 334.332 444.55 333.343 445.446L332.672 444.704C331.685 445.597 330.693 446.484 329.697 447.365L330.359 448.114C329.356 449 328.349 449.88 327.337 450.753L326.684 449.995C325.675 450.866 324.661 451.73 323.642 452.588L324.286 453.353C323.265 454.213 322.239 455.066 321.208 455.913L320.573 455.141C319.544 455.986 318.51 456.826 317.472 457.658L318.097 458.438C317.053 459.275 316.005 460.105 314.952 460.928L314.336 460.14C313.286 460.96 312.233 461.774 311.174 462.581L311.781 463.376C310.719 464.185 309.653 464.987 308.584 465.781L307.987 464.979C306.916 465.775 305.841 466.563 304.761 467.344L305.347 468.155C304.264 468.939 303.176 469.715 302.085 470.485L301.509 469.667C300.421 470.434 299.329 471.194 298.233 471.945L298.798 472.77C297.696 473.526 296.59 474.274 295.481 475.015L294.925 474.183C293.816 474.924 292.702 475.657 291.584 476.382L292.129 477.221C291.008 477.949 289.883 478.668 288.754 479.38L288.221 478.534C287.096 479.244 285.968 479.945 284.836 480.638L285.358 481.491C284.216 482.191 283.07 482.882 281.92 483.566L281.409 482.706C280.263 483.387 279.114 484.06 277.961 484.725L278.46 485.591C277.304 486.258 276.144 486.916 274.98 487.566L274.493 486.693C273.329 487.343 272.163 487.984 270.993 488.617L271.469 489.496C270.291 490.133 269.11 490.761 267.926 491.381L267.462 490.494C266.282 491.112 265.099 491.72 263.913 492.319L264.364 493.212C263.173 493.813 261.979 494.406 260.783 494.99L260.344 494.091C259.144 494.676 257.94 495.252 256.734 495.819L257.16 496.724C255.949 497.293 254.736 497.853 253.52 498.403L253.108 497.491C251.896 498.039 250.682 498.578 249.465 499.107L249.864 500.024C248.636 500.558 247.406 501.082 246.174 501.596L245.789 500.673C244.558 501.186 243.324 501.69 242.089 502.183L242.46 503.112C241.219 503.607 239.976 504.093 238.731 504.568L238.375 503.634C237.132 504.109 235.886 504.573 234.639 505.027L234.981 505.967C233.722 506.425 232.461 506.874 231.198 507.311L230.87 506.366C229.612 506.802 228.352 507.227 227.09 507.642L227.402 508.592C226.135 509.008 224.866 509.414 223.595 509.809L223.298 508.854C222.023 509.25 220.747 509.636 219.469 510.01L219.75 510.97C218.466 511.346 217.181 511.711 215.894 512.064L215.629 511.1C214.347 511.452 213.064 511.794 211.779 512.124L212.027 513.092C210.732 513.425 209.435 513.746 208.136 514.056L207.904 513.083C206.608 513.393 205.31 513.69 204.012 513.977L204.227 514.953C202.922 515.241 201.617 515.516 200.31 515.78L200.112 514.8C198.808 515.063 197.503 515.315 196.198 515.554L196.378 516.538C195.062 516.78 193.744 517.009 192.426 517.226L192.263 516.24C190.95 516.456 189.637 516.66 188.323 516.852L188.467 517.842C187.147 518.034 185.825 518.215 184.503 518.383L184.377 517.391C183.056 517.559 181.734 517.714 180.411 517.857L180.519 518.852C179.19 518.995 177.86 519.126 176.53 519.244L176.442 518.248C175.118 518.365 173.794 518.47 172.47 518.562L172.539 519.56C171.206 519.652 169.872 519.732 168.539 519.798L168.489 518.799C167.161 518.865 165.833 518.919 164.504 518.958L164.534 519.958C163.199 519.998 161.864 520.025 160.529 520.038L160.519 519.038C159.855 519.045 159.19 519.048 158.526 519.048C157.855 519.048 157.184 519.046 156.514 519.04L156.505 520.04C155.159 520.029 153.816 520.008 152.475 519.975L152.499 518.976C151.164 518.943 149.831 518.9 148.5 518.847L148.46 519.846C147.121 519.792 145.784 519.727 144.45 519.652L144.506 518.654C143.167 518.578 141.831 518.492 140.498 518.395L140.426 519.392C139.087 519.294 137.751 519.186 136.418 519.067L136.507 518.071C135.179 517.953 133.854 517.824 132.531 517.685L132.427 518.679C131.087 518.538 129.752 518.386 128.419 518.223L128.54 517.23C127.213 517.068 125.888 516.895 124.567 516.712L124.43 517.703C123.104 517.519 121.781 517.324 120.461 517.119L120.615 516.131C119.291 515.925 117.97 515.709 116.653 515.482L116.483 516.468C115.16 516.24 113.84 516.001 112.524 515.752L112.709 514.77C111.398 514.522 110.091 514.263 108.787 513.994L108.585 514.974C107.269 514.702 105.957 514.421 104.648 514.128L104.866 513.152C103.561 512.861 102.259 512.559 100.962 512.246L100.728 513.219C99.4245 512.905 98.1253 512.581 96.8301 512.247L97.08 511.279C95.7853 510.944 94.4946 510.6 93.2079 510.245L92.9422 511.209C91.6475 510.853 90.3569 510.485 89.0706 510.108L89.3521 509.148C88.0709 508.773 86.794 508.386 85.5213 507.99L85.2241 508.945C83.9429 508.546 82.666 508.137 81.3935 507.718L81.7063 506.769C80.4361 506.35 79.1702 505.922 77.9089 505.483L77.5806 506.428C76.3141 505.988 75.0521 505.538 73.7947 505.077L74.1384 504.138C72.8839 503.679 71.634 503.21 70.3887 502.731L70.0298 503.664C68.7767 503.183 67.5284 502.691 66.2848 502.189L66.659 501.262C65.4205 500.762 64.1868 500.252 62.9579 499.733L62.5687 500.654C61.3335 500.132 60.1031 499.601 58.8778 499.059L59.2819 498.145C58.0591 497.604 56.8413 497.054 55.6286 496.495L55.2096 497.403C53.992 496.841 52.7795 496.27 51.5722 495.689L52.0058 494.787C50.8025 494.208 49.6043 493.62 48.4115 493.022L47.9633 493.916C46.7637 493.314 45.5693 492.704 44.3804 492.083L44.8429 491.197C43.6588 490.579 42.48 489.952 41.3067 489.315L40.8299 490.194C39.6514 489.555 38.4785 488.907 37.3111 488.249L37.802 487.378C36.6377 486.722 35.4791 486.057 34.3262 485.382L33.8213 486.246C32.6638 485.569 31.5119 484.883 30.3659 484.187L30.8845 483.332C29.7427 482.64 28.6068 481.938 27.4768 481.228L26.9445 482.075C25.8089 481.361 24.6792 480.638 23.5556 479.906L24.1013 479.068C22.982 478.339 21.8688 477.602 20.7616 476.855L20.2026 477.684C19.091 476.935 17.9854 476.177 16.8861 475.41L17.4582 474.59C16.3627 473.826 15.2733 473.053 14.1902 472.271L13.6051 473.082C12.5177 472.298 11.4366 471.505 10.3619 470.703L10.9598 469.901C9.88933 469.103 8.82521 468.296 7.76754 467.481L7.15704 468.273C6.09515 467.454 5.03973 466.627 3.9909 465.792L4.61385 465.01C3.56914 464.178 2.53096 463.338 1.49943 462.489L0.864212 463.262C-0.171356 462.41 -1.20026 461.55 -2.2224 460.682L-1.57509 459.92C-2.59282 459.055 -3.60382 458.183 -4.608 457.303L-5.26722 458.055C-6.27534 457.171 -7.2766 456.279 -8.27093 455.379L-7.59998 454.638C-8.59043 453.742 -9.57397 452.838 -10.5505 451.926L-11.233 452.657C-12.2125 451.742 -13.185 450.819 -14.1503 449.889L-13.4565 449.169C-14.4181 448.243 -15.3726 447.308 -16.3199 446.367L-17.0249 447.076C-17.976 446.13 -18.9198 445.177 -19.8563 444.217L-19.1403 443.519C-20.072 442.563 -20.9965 441.6 -21.9137 440.629L-22.6405 441.316C-23.5612 440.342 -24.4744 439.36 -25.3802 438.371L-24.6428 437.696C-25.5451 436.711 -26.4399 435.718 -27.3273 434.719L-28.0751 435.383C-28.9645 434.381 -29.8464 433.371 -30.7207 432.355L-29.9626 431.703C-30.8333 430.691 -31.6964 429.672 -32.5518 428.646L-33.32 429.286C-34.1787 428.256 -35.0297 427.219 -35.8729 426.175L-35.095 425.546C-35.9334 424.508 -36.7642 423.463 -37.5871 422.411L-38.3747 423.028C-39.2004 421.972 -40.0183 420.91 -40.8282 419.841L-40.0312 419.237C-40.838 418.172 -41.6369 417.101 -42.4277 416.023L-43.234 416.614C-44.0264 415.534 -44.8108 414.448 -45.5871 413.355L-44.7717 412.776C-45.5445 411.687 -46.3092 410.593 -47.0658 409.492L-47.89 410.058C-48.6494 408.953 -49.4007 407.841 -50.1437 406.723L-49.3109 406.17C-50.0495 405.058 -50.78 403.941 -51.5021 402.817L-52.3434 403.357C-53.0676 402.23 -53.7835 401.097 -54.4909 399.958L-53.6414 399.431C-54.3462 398.296 -55.0425 397.155 -55.7304 396.008L-56.588 396.522C-57.2771 395.374 -57.9578 394.219 -58.6299 393.058L-57.7646 392.557C-58.4331 391.403 -59.0932 390.242 -59.7447 389.076L-60.6177 389.564C-61.2717 388.393 -61.9171 387.217 -62.5537 386.035L-61.6733 385.561C-62.3063 384.386 -62.9307 383.205 -63.5463 382.019L-64.4339 382.479C-65.0506 381.291 -65.6587 380.097 -66.2578 378.898L-65.3633 378.451C-65.9602 377.256 -66.5483 376.056 -67.1275 374.85L-68.0289 375.284C-68.6093 374.076 -69.1809 372.862 -69.7435 371.644L-68.8356 371.225C-69.3945 370.014 -69.9446 368.798 -70.4857 367.578L-71.3999 367.983C-71.943 366.757 -72.4772 365.527 -73.0022 364.291L-72.0819 363.9C-72.6042 362.671 -73.1176 361.437 -73.6218 360.197L-74.548 360.574C-75.0523 359.335 -75.5474 358.091 -76.0334 356.842L-75.1015 356.48C-75.5856 355.236 -76.0606 353.987 -76.5264 352.733L-77.4638 353.081C-77.931 351.824 -78.3891 350.562 -78.8377 349.295L-77.8951 348.961C-78.3398 347.706 -78.7754 346.445 -79.2016 345.181L-80.1492 345.5C-80.5771 344.231 -80.9957 342.957 -81.4048 341.679L-80.4524 341.374C-80.86 340.1 -81.2583 338.822 -81.6471 337.54L-82.604 337.831C-82.9919 336.551 -83.3704 335.268 -83.7395 333.981L-82.7782 333.705C-83.1457 332.423 -83.5039 331.136 -83.8525 329.846L-84.8179 330.107C-85.1679 328.811 -85.5084 327.512 -85.8392 326.208L-84.87 325.962C-85.1977 324.671 -85.516 323.376 -85.8247 322.077L-86.7976 322.308C-87.107 321.006 -87.4069 319.7 -87.6971 318.391L-86.7208 318.174C-87.0099 316.87 -87.2895 315.561 -87.5593 314.249L-88.5388 314.451C-88.8084 313.14 -89.0684 311.825 -89.3187 310.507L-88.3362 310.32C-88.5847 309.012 -88.8236 307.699 -89.0529 306.383L-90.038 306.555C-90.2681 305.234 -90.4885 303.91 -90.699 302.582L-89.7114 302.426C-89.9205 301.107 -90.1199 299.786 -90.3095 298.46L-91.2994 298.602C-91.4887 297.28 -91.6682 295.954 -91.838 294.625L-90.8461 294.498C-91.0152 293.174 -91.1746 291.847 -91.3242 290.517L-92.3179 290.629C-92.4679 289.295 -92.608 287.958 -92.7382 286.618L-91.7429 286.521C-91.8715 285.198 -91.9904 283.872 -92.0995 282.543L-93.0962 282.624C-93.2057 281.29 -93.3054 279.953 -93.3952 278.614L-92.3975 278.547C-92.487 277.212 -92.5666 275.875 -92.6363 274.534L-93.6349 274.586C-93.7043 273.253 -93.7638 271.917 -93.8135 270.578L-92.8142 270.541C-92.8636 269.21 -92.9032 267.876 -92.9329 266.54L-93.9327 266.562C-93.9626 265.221 -93.9825 263.877 -93.9925 262.531L-92.9925 262.524C-92.9975 261.853 -93 261.182 -93 260.51C-93 259.839 -92.9975 259.167 -92.9925 258.497L-93.9925 258.49C-93.9825 257.143 -93.9626 255.8 -93.9327 254.459L-92.9329 254.481C-92.9032 253.145 -92.8636 251.811 -92.8142 250.48L-93.8135 250.443C-93.7638 249.104 -93.7043 247.768 -93.6349 246.435L-92.6363 246.486C-92.5666 245.146 -92.487 243.809 -92.3975 242.474L-93.3953 242.407C-93.3054 241.067 -93.2057 239.73 -93.0962 238.396L-92.0996 238.478C-91.9905 237.149 -91.8716 235.823 -91.743 234.5L-92.7383 234.403C-92.608 233.063 -92.4679 231.726 -92.3179 230.392L-91.3242 230.504C-91.1746 229.174 -91.0152 227.847 -90.8461 226.523L-91.838 226.396C-91.6683 225.067 -91.4887 223.741 -91.2995 222.419L-90.3095 222.56C-90.1199 221.235 -89.9205 219.913 -89.7114 218.595L-90.6991 218.438C-90.4885 217.111 -90.2681 215.786 -90.0381 214.466L-89.0529 214.637C-88.8237 213.321 -88.5848 212.009 -88.3363 210.7L-89.3187 210.514C-89.0684 209.196 -88.8085 207.881 -88.5388 206.57L-87.5593 206.772C-87.2895 205.46 -87.01 204.151 -86.7208 202.846L-87.6972 202.63C-87.4069 201.321 -87.1071 200.015 -86.7976 198.713L-85.8247 198.944C-85.516 197.645 -85.1977 196.35 -84.87 195.058L-85.8393 194.812C-85.5084 193.509 -85.168 192.209 -84.818 190.914L-83.8526 191.175C-83.5039 189.884 -83.1458 188.598 -82.7782 187.316L-83.7395 187.04C-83.3705 185.753 -82.992 184.469 -82.6041 183.19L-81.6471 183.48C-81.2583 182.198 -80.8601 180.92 -80.4525 179.647L-81.4049 179.342C-80.9958 178.064 -80.5772 176.79 -80.1493 175.521L-79.2017 175.84C-78.7754 174.575 -78.3399 173.315 -77.8952 172.06L-78.8378 171.726C-78.3891 170.459 -77.9311 169.197 -77.4639 167.939L-76.5265 168.288C-76.0607 167.034 -75.5857 165.785 -75.1016 164.541L-76.0335 164.178C-75.5475 162.93 -75.0523 161.686 -74.5481 160.446L-73.6218 160.823C-73.1176 159.584 -72.6043 158.35 -72.0819 157.121L-73.0023 156.73C-72.4772 155.494 -71.9431 154.263 -71.4 153.038L-70.4857 153.443C-69.9447 152.222 -69.3946 151.007 -68.8357 149.796L-69.7436 149.377C-69.181 148.158 -68.6094 146.945 -68.0289 145.737L-67.1276 146.17C-66.5484 144.965 -65.9603 143.765 -65.3634 142.57L-66.2579 142.123C-65.6587 140.924 -65.0507 139.73 -64.434 138.541L-63.5464 139.002C-62.9308 137.816 -62.3064 136.635 -61.6734 135.46L-62.5538 134.986C-61.9172 133.804 -61.2718 132.627 -60.6178 131.457L-59.7448 131.945C-59.0933 130.779 -58.4332 129.618 -57.7646 128.464L-58.63 127.962C-57.9579 126.802 -57.2772 125.647 -56.5881 124.498L-55.7305 125.013C-55.0426 123.866 -54.3463 122.725 -53.6415 121.59L-54.491 121.063C-53.7836 119.923 -53.0677 118.79 -52.3435 117.663L-51.5022 118.204C-50.7801 117.08 -50.0496 115.963 -49.311 114.851L-50.1438 114.298C-49.4008 113.18 -48.6495 112.068 -47.8901 110.963L-47.0659 111.529C-46.3093 110.428 -45.5446 109.333 -44.7718 108.245L-45.5872 107.666C-44.8109 106.573 -44.0265 105.486 -43.2341 104.406L-42.4279 104.998C-41.637 103.92 -40.8381 102.848 -40.0313 101.783L-40.8283 101.18C-40.0184 100.111 -39.2005 99.0484 -38.3748 97.993L-37.5872 98.6092C-36.7643 97.5574 -35.9336 96.5124 -35.0951 95.4742L-35.873 94.8459C-35.0298 93.8019 -34.1788 92.7648 -33.3201 91.7347L-32.552 92.375C-31.6965 91.3489 -30.8334 90.3297 -29.9627 89.3176L-30.7208 88.6654C-29.8466 87.6492 -28.9647 86.6401 -28.0752 85.6381L-27.3274 86.302C-26.4401 85.3024 -25.5452 84.31 -24.6429 83.3249L-25.3803 82.6494C-24.4745 81.6605 -23.5613 80.6789 -22.6406 79.7046L-21.9138 80.3914C-20.9967 79.4209 -20.0722 78.4577 -19.1404 77.502L-19.8565 76.8039C-18.9199 75.8433 -17.9761 74.8903 -17.0251 73.9448L-16.3201 74.654C-15.3727 73.7122 -14.4182 72.778 -13.4566 71.8514L-14.1505 71.1313C-13.1851 70.2012 -12.2126 69.2787 -11.2331 68.3641L-10.5506 69.095C-9.5741 68.1831 -8.59056 67.279 -7.60011 66.3828L-8.27106 65.6413C-7.27674 64.7416 -6.27547 63.8498 -5.26735 62.966L-4.60813 63.7179C-3.60395 62.8376 -2.59296 61.9652 -1.57523 61.1009L-2.22254 60.3387C-1.20039 59.4707 -0.171501 58.6107 0.864075 57.759L1.4993 58.5314C2.53082 57.683 3.56899 56.8427 4.6137 56.0108L3.99075 55.2285C5.03959 54.3933 6.095 53.5664 7.15689 52.7478L7.7674 53.5398C8.82506 52.7246 9.88918 51.9176 10.9597 51.1192L10.3618 50.3176C11.4365 49.516 12.5176 48.7229 13.605 47.9384L14.1901 48.7494C15.2732 47.9679 16.3625 47.1951 17.4581 46.4309L16.8859 45.6107C17.9853 44.8438 19.0908 44.0856 20.2025 43.3362L20.7615 44.1654C21.8687 43.419 22.9819 42.6813 24.1011 41.9525L23.5554 41.1145C24.6791 40.3827 25.8088 39.6599 26.9444 38.946L27.4766 39.7926C28.6067 39.0822 29.7426 38.3807 30.8843 37.6882L30.3657 36.8331C31.5118 36.138 32.6636 35.4519 33.8212 34.775L34.326 35.6382C35.4789 34.964 36.6376 34.2988 37.8018 33.6429L37.3109 32.7716C38.4783 32.1139 39.6513 31.4654 40.8298 30.8262L41.3066 31.7052C42.4799 31.0688 43.6586 30.4417 44.8428 29.8239L44.3802 28.9373C45.5692 28.3171 46.7635 27.7062 47.9632 27.1048L48.4113 27.9987C49.6042 27.4008 50.8023 26.8122 52.0056 26.2331L51.572 25.3321C52.7793 24.7511 53.9919 24.1796 55.2095 23.6178L55.6284 24.5258C56.8412 23.9663 58.059 23.4163 59.2818 22.876L58.8776 21.9613C60.103 21.42 61.3333 20.8882 62.5686 20.3663L62.9578 21.2875C64.1866 20.7682 65.4203 20.2587 66.6588 19.759L66.2847 18.8317C67.5282 18.3299 68.7765 17.838 70.0296 17.3561L70.3886 18.2894C71.6338 17.8105 72.8837 17.3414 74.1382 16.8823L73.7945 15.9432C75.0519 15.483 76.3139 15.0328 77.5804 14.5926L77.9087 15.5371C79.1701 15.0987 80.4359 14.6703 81.7061 14.252L81.3933 13.3022C82.6658 12.8831 83.9427 12.4742 85.224 12.0754L85.5211 13.0302C86.7938 12.6341 88.0708 12.248 89.3519 11.8722L89.0704 10.9126C90.3568 10.5352 91.6473 10.168 92.942 9.81115L93.2078 10.7752C94.4944 10.4205 95.7851 10.0761 97.0798 9.74198L96.83 8.7737C98.1252 8.43946 99.4243 8.1155 100.727 7.80191L100.961 8.77415C102.259 8.46184 103.561 8.15985 104.866 7.86829L104.648 6.89234C105.957 6.60007 107.269 6.31822 108.585 6.04689L108.787 7.02629C110.091 6.75747 111.398 6.49902 112.709 6.25101L112.523 5.26844C113.84 5.01942 115.16 4.78089 116.483 4.55294L116.653 5.53843C117.97 5.31159 119.29 5.09527 120.614 4.88956L120.461 3.90142C121.78 3.69635 123.104 3.50179 124.43 3.3178L124.567 4.30832C125.888 4.12508 127.212 3.95238 128.54 3.79031L128.419 2.79768C129.751 2.63495 131.087 2.48288 132.426 2.34157L132.531 3.33605C133.854 3.19651 135.179 3.0675 136.507 2.9491L136.418 1.95305C137.751 1.83425 139.087 1.72609 140.425 1.62865L140.498 2.62601C141.831 2.52896 143.167 2.4426 144.506 2.36699L144.45 1.36858C145.784 1.29325 147.12 1.22856 148.46 1.1746L148.5 2.17379C149.831 2.12019 151.163 2.07721 152.499 2.04493L152.475 1.04522C153.816 1.01282 155.159 0.991149 156.505 0.980305L156.513 1.98027C157.184 1.97487 157.855 1.97217 158.526 1.97217C159.194 1.97217 159.861 1.97413 160.529 1.97806L160.535 0.978082C161.874 0.985964 163.213 1.00172 164.551 1.02533L164.534 2.02517C165.869 2.04871 167.203 2.08008 168.538 2.11925L168.567 1.11968C169.906 1.15897 171.244 1.20608 172.582 1.26099L172.541 2.26015C173.875 2.31492 175.209 2.37747 176.542 2.44778L176.595 1.44917C177.932 1.51968 179.269 1.59797 180.605 1.68402L180.541 2.68196C181.873 2.76776 183.204 2.86129 184.535 2.96254L184.611 1.96542C185.947 2.06704 187.282 2.17641 188.616 2.29349L188.528 3.28966C189.859 3.40641 191.188 3.53086 192.517 3.66298L192.616 2.66789C193.948 2.80039 195.279 2.94058 196.609 3.08845L196.499 4.08233C197.826 4.22992 199.153 4.38518 200.478 4.54808L200.6 3.55555C201.93 3.71898 203.258 3.89007 204.585 4.06881L204.451 5.05986C205.774 5.23809 207.096 5.42393 208.416 5.61737L208.561 4.62793C209.887 4.82212 211.21 5.02394 212.533 5.23337L212.376 6.22106C213.696 6.43009 215.014 6.64673 216.33 6.87094L216.498 5.88514C217.818 6.11001 219.136 6.34247 220.453 6.58251L220.274 7.56629C221.587 7.80579 222.899 8.05284 224.208 8.30744L224.399 7.32582C225.715 7.58165 227.029 7.84507 228.341 8.11605L228.138 9.09537C229.446 9.36557 230.752 9.6433 232.055 9.92854L232.269 8.95166C233.576 9.23776 234.882 9.5314 236.184 9.83256L235.959 10.8069C237.262 11.1081 238.562 11.4168 239.86 11.7331L240.097 10.7615C241.399 11.0787 242.698 11.4034 243.994 11.7357L243.746 12.7044C245.039 13.0356 246.329 13.3744 247.616 13.7206L247.876 12.7549C249.171 13.1032 250.463 13.459 251.752 13.8223L251.48 14.7848C252.767 15.1473 254.05 15.5173 255.33 15.8947L255.613 14.9356C256.897 15.3142 258.178 15.7002 259.456 16.0938L259.161 17.0495C260.438 17.4428 261.712 17.8437 262.983 18.252L263.288 17.2999C264.565 17.7102 265.838 18.1279 267.108 18.5532L266.79 19.5014C268.056 19.9253 269.319 20.3567 270.577 20.7955L270.906 19.8513C272.171 20.2923 273.433 20.7408 274.69 21.1967L274.349 22.1368C275.606 22.5927 276.86 23.056 278.109 23.5268L278.462 22.591C279.715 23.0632 280.965 23.5429 282.21 24.0301L281.846 24.9613C283.089 25.4475 284.327 25.9411 285.562 26.4421L285.938 25.5155C287.182 26.0202 288.421 26.5324 289.656 27.0521L289.268 27.9738C290.499 28.4918 291.726 29.0173 292.948 29.5501L293.348 28.6335C294.574 29.1682 295.796 29.7104 297.013 30.2599L296.601 31.1713C297.821 31.7221 299.036 32.2804 300.247 32.8461L300.67 31.9402C301.884 32.5077 303.094 33.0827 304.298 33.6652L303.862 34.5654C305.063 35.146 306.258 35.7339 307.448 36.3293L307.896 35.4349C309.096 36.0355 310.292 36.6436 311.482 37.2592L311.023 38.1474C312.21 38.7612 313.391 39.3825 314.567 40.0112L315.039 39.1293C316.219 39.7602 317.393 40.3985 318.562 41.0442L318.079 41.9196C319.249 42.5662 320.414 43.2203 321.573 43.8818L322.069 43.0133C323.234 43.678 324.393 44.3503 325.546 45.03L325.038 45.8914C326.187 46.5687 327.33 47.2534 328.466 47.9456L328.986 47.0914C330.132 47.789 331.272 48.494 332.405 49.2065L331.873 50.0531C333.004 50.7645 334.129 51.4834 335.248 52.2097L335.792 51.371C336.915 52.0999 338.031 52.8364 339.141 53.5803L338.584 54.4109C339.694 55.1547 340.797 55.906 341.893 56.6648L342.462 55.8425C343.565 56.6061 344.661 57.3772 345.751 58.1558L345.169 58.9693C346.254 59.7449 347.332 60.528 348.403 61.3184L348.997 60.5138C350.076 61.3098 351.147 62.1133 352.211 62.9242L351.604 63.7195C352.667 64.5297 353.723 65.3473 354.771 66.1724L355.389 65.3867C356.441 66.2151 357.486 67.0509 358.523 67.8941L357.892 68.6699C358.927 69.5121 359.955 70.3617 360.975 71.2187L361.618 70.4531C362.645 71.3162 363.664 72.1868 364.675 73.0648L364.02 73.8198C365.026 74.6944 366.025 75.5763 367.016 76.4656L367.684 75.7215C368.681 76.6164 369.669 77.5189 370.65 78.4288L369.969 79.1617C370.948 80.0705 371.919 80.9867 372.881 81.9103L373.573 81.189C374.539 82.1166 375.496 83.0515 376.445 83.994L375.74 84.7033C376.686 85.6434 377.623 86.5909 378.552 87.5458L379.269 86.8487C380.204 87.8102 381.129 88.7791 382.046 89.7555L381.317 90.4399C382.229 91.412 383.132 92.3914 384.026 93.3782L384.768 92.7068C385.667 93.6994 386.557 94.6994 387.437 95.7068L386.684 96.3648C387.562 97.3696 388.43 98.3818 389.289 99.4013L390.054 98.7571C390.917 99.7812 391.77 100.813 392.613 101.852L391.836 102.482C392.676 103.517 393.506 104.559 394.326 105.609L395.114 104.993C395.939 106.049 396.754 107.112 397.558 108.183L396.758 108.783C397.559 109.849 398.35 110.921 399.13 112.001L399.94 111.416C400.724 112.501 401.498 113.594 402.26 114.694L401.439 115.264C402.198 116.359 402.947 117.461 403.685 118.57L404.518 118.016C405.26 119.131 405.991 120.253 406.711 121.382L405.868 121.92C406.584 123.043 407.289 124.173 407.984 125.31L408.837 124.789C409.534 125.931 410.22 127.08 410.895 128.237L410.032 128.741C410.703 129.891 411.364 131.049 412.013 132.214L412.887 131.727C413.538 132.896 414.178 134.072 414.807 135.254L413.924 135.724C414.548 136.898 415.161 138.08 415.762 139.269L416.654 138.818C417.259 140.012 417.851 141.214 418.432 142.423L417.531 142.856C418.108 144.055 418.673 145.262 419.226 146.475L420.136 146.06C420.69 147.275 421.232 148.498 421.763 149.727L420.844 150.123C421.372 151.346 421.888 152.576 422.392 153.812L423.318 153.435C423.823 154.673 424.315 155.919 424.795 157.17L423.862 157.529C424.338 158.768 424.801 160.015 425.253 161.268L426.194 160.928C426.647 162.188 427.089 163.454 427.518 164.726L426.571 165.046C426.996 166.306 427.409 167.573 427.81 168.847L428.764 168.547C429.164 169.818 429.552 171.096 429.927 172.381L428.967 172.661C429.341 173.939 429.702 175.224 430.051 176.514L431.016 176.253C431.365 177.545 431.702 178.843 432.026 180.147L431.055 180.388C431.375 181.673 431.682 182.965 431.976 184.262L432.952 184.041C433.248 185.345 433.531 186.655 433.802 187.972L432.823 188.173C433.091 189.479 433.348 190.79 433.591 192.108L434.575 191.926C434.816 193.232 435.046 194.545 435.262 195.863L434.276 196.026C434.491 197.337 434.694 198.655 434.885 199.979L435.875 199.836C436.066 201.165 436.245 202.5 436.411 203.84L435.419 203.963C435.581 205.273 435.731 206.588 435.869 207.908L436.864 207.804C437.002 209.131 437.128 210.463 437.241 211.801L436.245 211.885C436.358 213.217 436.458 214.554 436.546 215.896L437.544 215.831C437.631 217.156 437.705 218.486 437.767 219.821L436.768 219.867C436.83 221.191 436.879 222.519 436.916 223.853L437.916 223.825Z" stroke="black" stroke-opacity="0.26" stroke-width="2" stroke-dasharray="4 4"/>
</svg>
