<svg width="128" height="128" viewBox="0 0 128 128" fill="none" xmlns="http://www.w3.org/2000/svg">
<path d="M18.55 108.383C19.7582 108.383 20.8591 107.904 21.6725 107.126L20.3923 105.846C19.9138 106.289 19.2556 106.564 18.55 106.564C17.0425 106.564 15.822 105.356 15.822 103.848C15.822 102.353 17.0425 101.132 18.55 101.132C19.2556 101.132 19.9138 101.408 20.3923 101.862L21.6725 100.57C20.8591 99.7925 19.7582 99.314 18.55 99.314C16.0496 99.314 14.0156 101.347 14.0156 103.848C14.0156 106.349 16.0496 108.383 18.55 108.383Z" fill="#404040"/>
<path d="M33.6241 106.576C32.1166 106.576 30.8965 105.356 30.8965 103.848C30.8965 102.353 32.1166 101.132 33.6241 101.132C35.1199 101.132 36.34 102.353 36.34 103.848C36.34 105.356 35.1199 106.576 33.6241 106.576ZM38.1584 103.848C38.1584 101.347 36.1244 99.314 33.6241 99.314C31.1238 99.314 29.0898 101.347 29.0898 103.848C29.0898 106.349 31.1238 108.383 33.6241 108.383C36.1244 108.383 38.1584 106.349 38.1584 103.848Z" fill="#404040"/>
<path d="M55.3719 108.383V99.314H53.4216L50.778 105.942L48.1218 99.314H46.1719V108.383H47.9781V103.848L49.7969 108.383H51.7468L53.5657 103.848V108.383H55.3719Z" fill="#404040"/>
<path d="M65.1929 101.132H65.9232C66.4252 101.132 66.8324 101.539 66.8324 102.042C66.8324 102.532 66.4252 102.939 65.9232 102.939H65.1929V101.132ZM65.1929 104.757H65.9349C67.4303 104.757 68.6386 103.537 68.6386 102.042C68.6386 100.534 67.4302 99.314 65.9232 99.314H63.3867V108.383H65.1929V104.757Z" fill="#404040"/>
<path d="M78.9663 104.028L79.6961 101.981L80.4381 104.028H78.9663ZM80.6654 99.314H78.7389L75.4609 108.383H77.3874L78.3083 105.846H81.096L82.0174 108.383H83.9434L80.6654 99.314Z" fill="#404040"/>
<path d="M99.2681 108.383V99.314H97.4618V105.368L93.8368 99.314H91.7188V108.383H93.5254V102.341L97.1627 108.383H99.2681Z" fill="#404040"/>
<path d="M109.065 99.314H107.043L109.412 104.063V108.383H111.218V104.063L113.587 99.314H111.565L110.321 101.826L109.065 99.314Z" fill="#404040"/>
<path d="M15.0517 116.11H15.6365V112.787H16.6882V112.268H14V112.787H15.0517V116.11Z" fill="#404040"/>
<path d="M20.6156 114.734L21.1718 113.056H21.1829L21.739 114.734H20.6156ZM20.932 112.268L19.5352 116.11H20.1518L20.4469 115.251H21.9043L22.2021 116.11H22.8163L21.4195 112.268H20.932Z" fill="#404040"/>
<path d="M27.0156 113.098C27.0774 113.019 27.1584 112.953 27.2585 112.9C27.3569 112.849 27.4745 112.822 27.6117 112.818C27.7976 112.822 27.9561 112.875 28.0859 112.979C28.2109 113.088 28.2967 113.22 28.3441 113.375H28.9607C28.8997 113.053 28.7517 112.783 28.5183 112.565C28.2845 112.349 27.9822 112.24 27.6117 112.236C27.3095 112.24 27.0574 112.312 26.8549 112.452C26.6498 112.591 26.5 112.749 26.4068 112.926C26.3493 113.02 26.3062 113.142 26.2779 113.293C26.2517 113.444 26.2383 113.742 26.2383 114.189C26.2383 114.628 26.2517 114.925 26.2779 115.08C26.2919 115.162 26.3097 115.231 26.3306 115.285C26.3537 115.338 26.379 115.393 26.4068 115.452C26.5 115.629 26.6497 115.785 26.8548 115.921C27.0573 116.061 27.3094 116.135 27.6116 116.142C28.0035 116.134 28.3284 116.002 28.5866 115.744C28.8431 115.484 28.975 115.162 28.982 114.777V113.994H27.6169V114.545H28.3994V114.745C28.3957 114.986 28.3205 115.18 28.1729 115.327C28.0253 115.482 27.8381 115.56 27.6116 115.56C27.4745 115.56 27.3569 115.53 27.2585 115.472C27.1584 115.423 27.0774 115.359 27.0155 115.28C26.9402 115.198 26.8901 115.089 26.8657 114.956C26.8375 114.822 26.8235 114.567 26.8235 114.189C26.8235 113.811 26.8375 113.554 26.8657 113.417C26.8902 113.287 26.9402 113.18 27.0155 113.098" fill="#404040"/>
<path d="M32.8984 112.268V116.11H35.3517V115.56H33.4806V112.268H32.8984Z" fill="#404040"/>
<path d="M39.1406 112.268V116.11H39.7228V112.268H39.1406Z" fill="#404040"/>
<path d="M46.0672 114.998H46.0573L44.3177 112.268H43.7695V116.11H44.3522V113.38H44.362L46.099 116.11H46.6498V112.268H46.0672V114.998Z" fill="#404040"/>
<path d="M53.1569 112.818V112.268H50.7031V116.11H53.1569V115.56H51.2853V114.431H52.8825V113.915H51.2853V112.818H53.1569Z" fill="#404040"/>
<path d="M61.9603 112.452C61.7552 112.591 61.6059 112.749 61.5127 112.926C61.4548 113.02 61.4117 113.142 61.3834 113.293C61.3572 113.444 61.3438 113.742 61.3438 114.189C61.3438 114.628 61.3572 114.925 61.3834 115.08C61.3977 115.162 61.4152 115.231 61.4361 115.285C61.4592 115.338 61.4845 115.393 61.5127 115.452C61.6059 115.629 61.7553 115.785 61.9603 115.921C62.1628 116.061 62.415 116.135 62.7172 116.142C63.1091 116.134 63.4339 116.002 63.6925 115.744C63.9486 115.484 64.0805 115.162 64.0875 114.777V113.994H62.7224V114.545H63.5049V114.745C63.5012 114.986 63.426 115.18 63.2785 115.328C63.1308 115.482 62.9436 115.56 62.7172 115.56C62.58 115.56 62.4624 115.53 62.364 115.472C62.2639 115.423 62.1829 115.359 62.1215 115.28C62.0457 115.198 61.9961 115.089 61.9712 114.956C61.943 114.822 61.929 114.567 61.929 114.189C61.929 113.811 61.943 113.554 61.9712 113.417C61.996 113.287 62.0457 113.18 62.1215 113.098C62.1828 113.019 62.2639 112.953 62.364 112.9C62.4624 112.849 62.58 112.822 62.7172 112.818C62.9035 112.822 63.0616 112.875 63.1918 112.979C63.3163 113.088 63.4026 113.22 63.4496 113.375H64.0662C64.0052 113.053 63.8572 112.783 63.6238 112.565C63.3899 112.349 63.0877 112.24 62.7172 112.236C62.415 112.24 62.1628 112.312 61.9603 112.452" fill="#404040"/>
<path d="M69.8371 115.28C69.7792 115.359 69.7017 115.423 69.6051 115.473C69.5036 115.53 69.383 115.56 69.244 115.56C69.1069 115.56 68.9893 115.531 68.8909 115.473C68.7908 115.423 68.7102 115.359 68.6484 115.28C68.5731 115.198 68.5229 115.089 68.4981 114.956C68.4702 114.822 68.4559 114.567 68.4559 114.189C68.4559 113.811 68.4702 113.554 68.4981 113.417C68.5229 113.287 68.573 113.18 68.6484 113.098C68.7102 113.019 68.7907 112.953 68.8909 112.9C68.9893 112.849 69.1069 112.822 69.244 112.818C69.383 112.822 69.5036 112.849 69.6051 112.9C69.7017 112.953 69.7792 113.019 69.8371 113.098C69.9129 113.18 69.9647 113.287 69.9926 113.417C70.0191 113.554 70.0322 113.811 70.0322 114.189C70.0322 114.567 70.0191 114.822 69.9926 114.956C69.9647 115.089 69.9129 115.198 69.8371 115.28ZM70.4459 115.452C70.5112 115.358 70.5556 115.234 70.5805 115.08C70.603 114.925 70.6144 114.628 70.6144 114.189C70.6144 113.742 70.6033 113.444 70.5805 113.293C70.5556 113.142 70.5112 113.02 70.4459 112.926C70.3567 112.749 70.2107 112.591 70.0087 112.452C69.8045 112.312 69.5502 112.24 69.244 112.236C68.9423 112.24 68.6897 112.312 68.4877 112.452C68.2822 112.591 68.1328 112.749 68.0396 112.926C67.9817 113.02 67.9386 113.142 67.9107 113.293C67.8842 113.444 67.8711 113.742 67.8711 114.189C67.8711 114.628 67.8842 114.925 67.9107 115.08C67.9247 115.162 67.9421 115.231 67.9635 115.285C67.986 115.338 68.0118 115.393 68.0396 115.452C68.1328 115.629 68.2821 115.785 68.4877 115.921C68.6897 116.061 68.9423 116.135 69.244 116.142C69.5502 116.134 69.8045 116.061 70.0087 115.921C70.2107 115.785 70.3566 115.629 70.4459 115.452" fill="#404040"/>
<path d="M76.9889 112.818V112.268H74.5352V116.11H76.9889V115.56H75.1178V114.431H76.7146V113.915H75.1178V112.818H76.9889Z" fill="#404040"/>
<path d="M81.9145 115.56C81.4926 115.556 81.129 115.428 80.8233 115.177L80.4414 115.615C80.8507 115.966 81.3397 116.142 81.9093 116.142C82.7893 116.132 83.2391 115.759 83.2587 115.024C83.2587 114.752 83.1734 114.513 83.0031 114.308C82.8307 114.099 82.5646 113.969 82.2045 113.92C82.0216 113.897 81.8775 113.877 81.7721 113.86C81.5823 113.824 81.4447 113.761 81.3585 113.67C81.2723 113.58 81.2291 113.48 81.2291 113.369C81.2328 113.185 81.297 113.046 81.4216 112.953C81.5409 112.863 81.6907 112.818 81.8697 112.818C82.2158 112.826 82.5328 112.924 82.8211 113.114L83.1451 112.634C82.7919 112.379 82.3765 112.247 81.8988 112.236C81.5017 112.24 81.1952 112.343 80.9788 112.547C80.7558 112.753 80.6443 113.023 80.6443 113.359C80.6443 113.638 80.7332 113.875 80.9104 114.07C81.0828 114.26 81.3336 114.382 81.6641 114.437C81.8488 114.463 82.0182 114.487 82.1727 114.508C82.5102 114.566 82.677 114.738 82.6735 115.024C82.6661 115.374 82.4135 115.553 81.9145 115.56" fill="#404040"/>
<path d="M94.3299 116.11V112.268H93.7477V113.915H92.2267V112.268H91.6445V116.11H92.2267V114.431H93.7477V116.11H94.3299Z" fill="#404040"/>
<path d="M100.832 112.818V112.268H98.3789V116.11H100.832V115.56H98.9615V114.431H100.558V113.915H98.9615V112.818H100.832Z" fill="#404040"/>
<path d="M105.199 112.787H106.111C106.298 112.787 106.44 112.826 106.538 112.905C106.663 112.995 106.727 113.14 106.731 113.34C106.731 113.507 106.677 113.648 106.57 113.762C106.461 113.885 106.298 113.948 106.08 113.952H105.199V112.787ZM105.199 114.468H105.943L106.736 116.11H107.429L106.538 114.405C107.026 114.217 107.275 113.862 107.281 113.34C107.271 112.986 107.144 112.712 106.899 112.521C106.697 112.352 106.436 112.268 106.117 112.268H104.617V116.11H105.199V114.468Z" fill="#404040"/>
<path d="M113.602 112.818V112.268H111.148V116.11H113.602V115.56H111.731V114.431H113.328V113.915H111.731V112.818H113.602Z" fill="#404040"/>
<path d="M87.4594 20.3803L87.4693 20.3881L87.4594 20.3793C87.3975 20.3271 87.3331 20.2766 87.2704 20.227L87.2695 20.2261L87.2699 20.2265C87.3322 20.277 87.3971 20.3275 87.4598 20.3802" fill="#404040"/>
<path d="M86.6171 19.717L86.6232 19.7209L86.6269 19.7252C86.8394 19.8868 87.0515 20.0527 87.254 20.2164L87.2577 20.2181L87.254 20.2159C87.0506 20.0522 86.8398 19.8872 86.6273 19.7243L86.6224 19.72L86.6163 19.716C86.5605 19.6725 86.5026 19.6289 86.4451 19.5854L86.375 19.5327L86.4443 19.5854C86.503 19.6298 86.5597 19.6725 86.6163 19.7169" fill="#404040"/>
<path d="M86.3056 19.4796C86.3018 19.4769 86.2993 19.4743 86.2955 19.472L86.3018 19.4764L86.293 19.4702L86.2955 19.4725C86.298 19.4748 86.3018 19.4769 86.3043 19.4796" fill="#404040"/>
<path d="M86.2816 19.461L86.2717 19.4541L86.1523 19.3657L86.2712 19.4546L86.2811 19.4611" fill="#404040"/>
<path d="M85.8 19.1105C85.831 19.1322 85.8614 19.1544 85.8924 19.1766C85.8619 19.1549 85.8319 19.1327 85.8005 19.1105L85.7344 19.063L85.7352 19.0639L85.8002 19.1105" fill="#404040"/>
<path d="M85.7305 19.0579L85.7267 19.0548C85.6632 19.0091 85.5996 18.9634 85.5352 18.9189C85.5992 18.9634 85.6627 19.0086 85.7263 19.0561L85.7313 19.0578" fill="#404040"/>
<path d="M84.9804 18.5314L84.9742 18.5274C84.9037 18.4791 84.8327 18.4312 84.7617 18.3833C84.8327 18.4312 84.9033 18.4795 84.9738 18.5283L84.9799 18.5314" fill="#404040"/>
<path d="M69.9831 12.5068H69.9868L69.9844 12.506C69.8333 12.4803 69.6822 12.4563 69.5311 12.4337C69.4606 12.4228 69.3909 12.4128 69.3203 12.4023C69.3908 12.4128 69.4605 12.4232 69.5306 12.4337C69.6822 12.4559 69.8337 12.4803 69.9835 12.5069" fill="#404040"/>
<path d="M84.3854 18.1336C84.3791 18.1301 84.3741 18.126 84.3681 18.1225L84.3672 18.1216V18.122C84.3735 18.1261 84.3799 18.13 84.3855 18.1337" fill="#404040"/>
<path d="M79.7182 15.5277L79.7231 15.5291L79.7182 15.5273C79.3368 15.3479 78.9871 15.1916 78.6505 15.0479L78.6406 15.0439L78.6493 15.0483C78.9867 15.192 79.3368 15.3478 79.717 15.5277" fill="#404040"/>
<path d="M84.0518 17.918C84.1284 17.9663 84.2046 18.0164 84.2812 18.066C84.2051 18.0159 84.1288 17.9663 84.0526 17.918L84.0403 17.9101L84.0391 17.9092L84.0399 17.9096L84.0523 17.9179" fill="#404040"/>
<path d="M75.1919 13.7565C75.1013 13.7273 75.0103 13.6977 74.9189 13.6699C74.8239 13.6411 74.7308 13.6133 74.6367 13.585C74.7308 13.6133 74.8244 13.6416 74.918 13.6707C75.0095 13.6986 75.1004 13.7269 75.1919 13.7565" fill="#404040"/>
<path d="M73.7705 13.3368C73.7291 13.3255 73.6877 13.3138 73.6459 13.3024L73.6211 13.2959L73.6464 13.3033C73.6878 13.3147 73.7291 13.3255 73.7705 13.3368" fill="#404040"/>
<path d="M73.8631 13.3625L73.8605 13.3616L73.8555 13.3599L73.8605 13.3621L73.8631 13.3626" fill="#404040"/>
<path d="M78.3401 14.9146L78.3746 14.9289C78.4573 14.9633 78.5383 14.9973 78.6193 15.0339L78.6279 15.0373L78.6205 15.0334C78.5391 14.9973 78.4581 14.9624 78.3758 14.9285L78.3405 14.9141L78.3174 14.9036L78.3125 14.9014L78.3174 14.9045L78.3419 14.9145" fill="#404040"/>
<path d="M83.1041 17.3293L83.2944 17.4443C83.4155 17.5152 83.5348 17.5902 83.6523 17.665L83.6685 17.675L83.671 17.6764L83.6685 17.6742L83.6542 17.665C83.5362 17.5897 83.416 17.5161 83.2958 17.4434L83.1051 17.3289L83.1026 17.3263C83.0735 17.3093 83.0443 17.2919 83.0156 17.2749C83.0448 17.2923 83.0731 17.3093 83.1031 17.3271L83.1044 17.3294" fill="#404040"/>
<path d="M87.7479 20.6194L87.7779 20.6442L87.7474 20.6185C87.6612 20.5467 87.5771 20.4779 87.4935 20.4104L87.4805 20.3999L87.4931 20.4108C87.5775 20.4778 87.6607 20.5466 87.7478 20.6193" fill="#404040"/>
<path d="M82.5638 17.0136C82.6509 17.0636 82.7367 17.1128 82.8229 17.1629C82.7368 17.1129 82.6509 17.0628 82.5647 17.0131L82.4994 16.9753C82.4694 16.9578 82.4402 16.9417 82.4102 16.9243C82.4402 16.9417 82.4689 16.9578 82.499 16.9753L82.564 17.0136" fill="#404040"/>
<path d="M79.7806 15.5577L80.1024 15.7114C80.2255 15.768 80.3467 15.8268 80.466 15.8895L80.4786 15.8952L80.4822 15.8969L80.4773 15.8943L80.465 15.8887C80.3452 15.8273 80.2241 15.7689 80.1018 15.7101L79.78 15.5569L79.7792 15.5555C79.7693 15.5512 79.7595 15.5464 79.75 15.542C79.7599 15.5463 79.7696 15.5508 79.7783 15.5555L79.7795 15.5577" fill="#404040"/>
<path d="M77.0023 14.3827C77.2754 14.4837 77.5728 14.6009 77.9346 14.7467C77.959 14.7564 77.9825 14.7659 78.0073 14.7759C77.9825 14.7659 77.959 14.7559 77.9342 14.7463C77.5719 14.6 77.2757 14.4846 77.0023 14.3823L76.839 14.3217L76.8164 14.3135L76.8386 14.3217L77.0023 14.3827Z" fill="#404040"/>
<path d="M26.574 44.4351L26.5716 44.4507L26.5703 44.4659L26.5728 44.4507L26.574 44.4351Z" fill="#404040"/>
<path d="M26.5649 44.5044L26.5625 44.5283V44.5333L26.5629 44.5283L26.5654 44.5044" fill="#404040"/>
<path d="M26.6181 44.1173C26.6268 44.0529 26.6364 43.988 26.6464 43.9231L26.6538 43.8774L26.6464 43.9231C26.6365 43.9872 26.6267 44.0524 26.6185 44.1173L26.6176 44.1235L26.6172 44.1284L26.6184 44.1235V44.1173" fill="#404040"/>
<path d="M26.6125 44.1675C26.6076 44.2054 26.6026 44.2441 26.5963 44.2824L26.582 44.3847L26.5974 44.2833C26.6023 44.2436 26.6072 44.2053 26.6125 44.1675Z" fill="#404040"/>
<path d="M26.4549 45.3873C26.4599 45.3442 26.4648 45.302 26.4692 45.2593C26.4643 45.3024 26.4594 45.3442 26.4544 45.3873L26.454 45.391L26.4531 45.3972L26.4544 45.391V45.3873" fill="#404040"/>
<path d="M26.2819 47.4956C26.2782 47.5697 26.2732 47.6441 26.2695 47.7186V47.7247L26.2704 47.7186C26.2729 47.6441 26.2778 47.5696 26.2815 47.4956" fill="#404040"/>
<path d="M26.3598 46.3472C26.3561 46.3899 26.3524 46.4325 26.3487 46.4757C26.3475 46.4974 26.345 46.5192 26.3438 46.541C26.3462 46.5192 26.3475 46.497 26.3499 46.4752C26.3524 46.4325 26.3573 46.3899 26.3598 46.3472" fill="#404040"/>
<path d="M26.3251 46.8187C26.3264 46.8 26.3276 46.7805 26.3288 46.7617C26.3276 46.7809 26.3264 46.8 26.3239 46.8196C26.3116 46.9581 26.3026 47.1035 26.2934 47.2712L26.293 47.2736L26.2938 47.2712C26.3025 47.1035 26.3121 46.9581 26.3243 46.8183" fill="#404040"/>
<path d="M61.1602 12.0903C61.2437 12.0846 61.3278 12.0824 61.4114 12.0776C61.3278 12.0825 61.2438 12.0846 61.1602 12.0903Z" fill="#404040"/>
<path d="M58.059 12.4355L58.0586 12.4359C58.0611 12.4351 58.0623 12.4346 58.0648 12.4346C58.0636 12.4346 58.0611 12.435 58.0598 12.4355" fill="#404040"/>
<path d="M45.8516 62.2104C45.8672 62.2458 45.8846 62.2801 45.9008 62.3154C45.8846 62.2801 45.8672 62.2458 45.8516 62.2104Z" fill="#404040"/>
<path d="M65.2148 12.0269C66.0635 12.0586 66.9114 12.117 67.7531 12.2045C66.9114 12.117 66.0635 12.0586 65.2148 12.0269Z" fill="#404040"/>
<path d="M71.668 12.8306C71.9079 12.882 72.1456 12.9346 72.383 12.9904C72.1456 12.9346 71.9079 12.882 71.668 12.8306Z" fill="#404040"/>
<path d="M80.5273 15.9185C81.0734 16.1902 81.6173 16.4767 82.1498 16.775C81.6173 16.4763 81.073 16.1893 80.5273 15.9185Z" fill="#404040"/>
<path d="M88.282 21.0696C88.2102 21.0074 88.1387 20.946 88.0643 20.8837L87.918 20.7622L88.0634 20.8837C88.1387 20.9455 88.2101 21.0074 88.282 21.0696Z" fill="#404040"/>
<path d="M51.5039 28.3927C54.7062 24.9405 58.6395 22.2599 63.0693 20.5451C64.4113 20.0252 65.7812 19.6015 67.1738 19.2749C65.7808 19.6015 64.4105 20.0247 63.0684 20.5442C58.6391 22.2594 54.7057 24.94 51.5039 28.3927Z" fill="#404040"/>
<path d="M58.1948 76.2132H58.1952C54.4896 73.9728 51.2834 70.9744 48.7648 67.3645C47.8517 66.0565 47.0461 64.6909 46.3516 63.2783C47.0461 64.6909 47.8517 66.0569 48.7648 67.3654C51.2821 70.9744 54.4887 73.9728 58.1948 76.2132Z" fill="#404040"/>
<path d="M34.2883 68.8553C29.1944 63.8328 26.3314 57.1296 26.226 49.9831L26.2235 49.8825V49.7632C26.2226 49.7266 26.2227 49.6908 26.2227 49.6548C26.2227 49.6905 26.2227 49.7261 26.2231 49.7619C26.2231 49.8019 26.2235 49.842 26.2235 49.8821L26.2248 49.9836C26.3305 57.1305 29.1936 63.8325 34.287 68.8553C39.3852 73.8838 46.1363 76.6528 53.298 76.6528C54.4376 76.6528 55.5663 76.5779 56.6823 76.439C55.5658 76.5775 54.4372 76.6528 53.2994 76.6528C46.1367 76.6528 39.3852 73.8843 34.2879 68.8553" fill="#404040"/>
<path d="M89.1219 21.8119L89.1345 21.8236C89.2012 21.8837 89.2665 21.9442 89.3331 22.0065C89.2664 21.9442 89.2011 21.8837 89.1345 21.8231L89.1219 21.8114L89.0344 21.7322C89.0205 21.7191 89.0061 21.7065 88.9922 21.6938C89.0065 21.7069 89.0205 21.7195 89.0353 21.7326L89.1219 21.8119" fill="#404040"/>
<path d="M89.755 22.4049L89.7407 22.3916L89.7344 22.3857L89.7394 22.3924L89.7541 22.405" fill="#404040"/>
<path d="M90.126 22.7621C90.1285 22.7638 90.131 22.7669 90.1334 22.7699C90.1343 22.7703 90.1359 22.7712 90.1359 22.7716C90.1334 22.7682 90.1297 22.7651 90.126 22.7616C90.0816 22.719 90.0368 22.6754 89.9923 22.631C89.9336 22.5731 89.873 22.516 89.8125 22.459C89.8726 22.5165 89.9331 22.5735 89.9915 22.631C90.0359 22.6754 90.0824 22.7198 90.1252 22.7621" fill="#404040"/>
<path d="M89.5635 22.2235C89.5057 22.1686 89.4512 22.1159 89.3902 22.0598L89.3828 22.0532L89.389 22.0606C89.4505 22.1159 89.5053 22.1686 89.5632 22.2235" fill="#404040"/>
<path d="M26.232 48.8005V48.75C26.232 48.7256 26.232 48.7016 26.2332 48.6791C26.2357 48.5314 26.2394 48.3882 26.2458 48.2345C26.2467 48.1979 26.2482 48.1626 26.2495 48.127C26.2486 48.1623 26.247 48.1979 26.2445 48.2332C26.2384 48.3878 26.2347 48.5324 26.2315 48.6787C26.2315 48.7026 26.231 48.7261 26.2306 48.7497L26.2302 48.7627V48.7872L26.2297 48.8015C26.2272 48.9212 26.2248 49.0414 26.2236 49.1629L26.2227 49.2308L26.2239 49.1624C26.2239 49.0413 26.2264 48.9221 26.2301 48.8006" fill="#404040"/>
<path d="M26.6593 43.8425L26.6543 43.8774L26.6469 43.923C26.637 43.988 26.6269 44.0528 26.6187 44.1172V44.1234L26.6174 44.1283L26.6165 44.1296C26.6153 44.1419 26.6141 44.1549 26.6116 44.1675C26.6067 44.2054 26.6017 44.2436 26.5964 44.2833L26.5811 44.3847L26.5787 44.4026L26.5737 44.4331L26.5733 44.4356L26.572 44.4512L26.5696 44.4664L26.5683 44.4738L26.5646 44.5043L26.5622 44.5283L26.5617 44.5332L26.558 44.5492C26.5418 44.6724 26.5253 44.7974 26.5093 44.9229C26.4962 45.0331 26.484 45.1471 26.4714 45.2603C26.4664 45.303 26.4615 45.3453 26.4571 45.3883V45.392L26.4558 45.3982L26.4554 45.4007C26.4392 45.5361 26.4254 45.6737 26.411 45.8091C26.4011 45.9101 26.3927 46.0129 26.3827 46.1161V46.126L26.3728 46.2271C26.3691 46.2671 26.3654 46.3077 26.3629 46.3477C26.3592 46.3904 26.3555 46.433 26.3531 46.4757C26.3506 46.4974 26.3493 46.5196 26.3469 46.5415C26.3444 46.5742 26.3407 46.6068 26.3383 46.6395C26.3358 46.6808 26.3321 46.7213 26.3296 46.7623C26.3284 46.7811 26.3271 46.8006 26.3259 46.8193C26.3136 46.9591 26.3037 47.1045 26.2954 47.2722L26.2946 47.2747L26.2937 47.2771V47.2833C26.29 47.3543 26.2863 47.4257 26.2826 47.4971C26.2789 47.5712 26.2739 47.6456 26.2715 47.7201L26.2706 47.7262L26.2694 47.7336V47.7447V47.7509C26.2689 47.7596 26.2685 47.767 26.2681 47.7749C26.2672 47.7914 26.2669 47.8076 26.2657 47.8253V47.8479V47.8492L26.2652 47.8516L26.264 47.8756C26.259 47.9596 26.2566 48.0437 26.2541 48.1281C26.2529 48.1638 26.2516 48.1991 26.2504 48.2356C26.2442 48.3894 26.2405 48.5326 26.2378 48.6802C26.2366 48.7028 26.2366 48.7269 26.2366 48.7512V48.8017C26.2329 48.9232 26.2304 49.0425 26.2304 49.1635L26.2292 49.2319L26.2283 49.2629V49.2654V49.3903C26.2274 49.4269 26.2274 49.4635 26.2274 49.5006C26.2274 49.5263 26.2266 49.5524 26.2266 49.5785C26.2266 49.6038 26.2274 49.6303 26.2274 49.6565C26.2274 49.6926 26.2274 49.7283 26.2283 49.7648V49.8842L26.2308 49.9848C26.3362 57.1313 29.1992 63.8345 34.293 68.8569C39.3903 73.8859 46.1419 76.6544 53.3045 76.6544C54.4423 76.6544 55.571 76.5791 56.6875 76.4406C57.1935 76.3779 57.6977 76.3061 58.1976 76.2155C58.1972 76.2151 58.1972 76.2151 58.1967 76.2146C54.4907 73.9743 51.2841 70.9758 48.7667 67.3669C47.8536 66.0584 47.0481 64.6924 46.3535 63.2798C46.1972 62.9615 46.0483 62.6401 45.9028 62.317C45.8867 62.2817 45.8692 62.2474 45.8536 62.2121C44.0965 58.2648 43.1839 53.9813 43.1839 49.5786C43.1839 43.1749 45.1151 37.0234 48.7667 31.7907C49.6058 30.588 50.5233 29.4558 51.5082 28.3942C54.7101 24.9416 58.6434 22.261 63.0728 20.5458C64.4148 20.0263 65.7852 19.603 67.1781 19.2764C69.4995 18.7321 71.8836 18.4569 74.3033 18.4569C79.9593 18.4569 85.3923 19.9592 90.1382 22.7739C90.1378 22.7731 90.137 22.7726 90.1358 22.7717C90.1333 22.7686 90.1308 22.7657 90.1283 22.7639C90.0856 22.7217 90.0391 22.6773 89.9947 22.6329C89.9363 22.5754 89.8758 22.5183 89.8157 22.4609C89.7969 22.4434 89.7787 22.4256 89.7604 22.4082L89.7592 22.4064L89.7448 22.3942L89.7399 22.3877L89.7313 22.3777C89.6803 22.3289 89.6224 22.2762 89.568 22.2253C89.5101 22.1704 89.4552 22.1177 89.3938 22.0624L89.3876 22.055L89.3814 22.0481L89.367 22.0359C89.3571 22.0268 89.3474 22.018 89.3374 22.0084C89.2707 21.9462 89.2054 21.8857 89.1388 21.8256L89.1262 21.8138L89.0396 21.7346C89.0248 21.7215 89.0108 21.7089 88.9965 21.6958C88.9002 21.6083 88.8049 21.5221 88.71 21.4376C88.6007 21.3405 88.4957 21.2495 88.3903 21.1585C88.3576 21.1293 88.3216 21.1001 88.2875 21.0714C88.2157 21.0091 88.1443 20.9473 88.069 20.8855L87.9235 20.764L87.8446 20.6973L87.8422 20.6934L87.7834 20.6455L87.7534 20.6207C87.6663 20.5479 87.5832 20.4791 87.4987 20.4121L87.4861 20.4012L87.4799 20.3964L87.4713 20.3899L87.4614 20.3821C87.3987 20.3294 87.3338 20.2789 87.2715 20.2284L87.2711 20.2279L87.265 20.2223L87.2613 20.22L87.2575 20.2183C87.0551 20.0546 86.843 19.8887 86.6305 19.7271L86.6268 19.7228L86.6206 19.7189C86.564 19.6745 86.5075 19.6318 86.4486 19.5874L86.3794 19.5347L86.3375 19.5024C86.3289 19.4947 86.3184 19.4881 86.3084 19.4811C86.306 19.4785 86.3022 19.4763 86.2998 19.4742L86.2973 19.472L86.2899 19.4663L86.2837 19.4623L86.2739 19.4558L86.155 19.367L86.1119 19.3347L85.9499 19.215C85.9334 19.2033 85.916 19.1906 85.8989 19.1784C85.868 19.1562 85.8376 19.134 85.8066 19.1122L85.7417 19.0656L85.7408 19.0648L85.7384 19.0617L85.7346 19.0595L85.7297 19.0577C85.6661 19.0103 85.6025 18.965 85.5385 18.9206C85.5233 18.9097 85.5085 18.8979 85.4932 18.8875L85.475 18.8753L85.4589 18.8635C85.303 18.7542 85.1476 18.6449 84.9895 18.5356L84.9858 18.5339L84.9846 18.5326L84.9784 18.5295C84.9079 18.4807 84.8373 18.4324 84.7664 18.3845C84.7493 18.3731 84.7328 18.361 84.7154 18.3496L84.7141 18.3474L84.708 18.3435C84.6026 18.2747 84.4972 18.2037 84.3901 18.1344C84.3839 18.131 84.3777 18.127 84.3722 18.1231V18.1226L84.3648 18.117L84.3549 18.1109C84.3323 18.0961 84.3096 18.0817 84.287 18.0669C84.2104 18.0173 84.1342 17.9672 84.0575 17.9189L84.0452 17.9106L84.0444 17.9102L84.0332 17.9028C83.9196 17.8279 83.8046 17.7569 83.6871 17.6842L83.6747 17.6776L83.6723 17.6763L83.6561 17.6663C83.5384 17.5914 83.4192 17.5165 83.2981 17.4455L83.1078 17.3306L83.1066 17.3283C83.0766 17.3105 83.0482 17.2935 83.0191 17.2761C82.9829 17.2543 82.9464 17.2326 82.9102 17.2112L82.9028 17.2073L82.9024 17.2068L82.9015 17.2064L82.8966 17.2029C82.8744 17.1894 82.8518 17.1777 82.8299 17.1642C82.7438 17.1141 82.6579 17.0649 82.5708 17.0148L82.5059 16.9765C82.4759 16.9591 82.4471 16.943 82.417 16.9256C82.3373 16.8794 82.2581 16.8328 82.1784 16.7884C82.171 16.7841 82.1627 16.7806 82.155 16.7762C81.6224 16.4779 81.0785 16.1914 80.5325 15.9197C80.5202 15.9136 80.5086 15.907 80.4963 15.9009L80.4902 15.8983L80.4865 15.8966L80.4739 15.8909C80.3545 15.8282 80.2335 15.7694 80.1103 15.7128L79.7885 15.5591L79.7873 15.5569C79.7786 15.5521 79.7685 15.5478 79.759 15.5434C79.7528 15.5408 79.7467 15.5382 79.7407 15.5346L79.7321 15.5307L79.7296 15.5298L79.7247 15.5285C79.3445 15.3486 78.9944 15.1927 78.657 15.049L78.6483 15.0447L78.6409 15.0413L78.6335 15.0387L78.6249 15.0352C78.5439 14.9986 78.4629 14.9647 78.3801 14.9303L78.3457 14.9159L78.3213 14.9059L78.3163 14.9028L78.3151 14.902L78.1697 14.841C78.1183 14.8205 78.066 14.7987 78.0138 14.7774C77.989 14.7674 77.9654 14.7578 77.9411 14.7482C77.5792 14.6024 77.2818 14.4852 77.0088 14.3842L76.8451 14.3232L76.8228 14.315L76.6508 14.2505C76.1919 14.0851 75.7147 13.9209 75.2357 13.7693L75.2295 13.7676L75.2233 13.7654C75.2159 13.7628 75.2076 13.7606 75.1998 13.758C75.1084 13.7284 75.0174 13.7001 74.926 13.6722C74.8323 13.643 74.7387 13.6147 74.6447 13.5864C74.589 13.5694 74.5332 13.552 74.477 13.5346C74.2689 13.4741 74.0707 13.4175 73.8805 13.3648L73.8706 13.3634L73.8681 13.363L73.8632 13.3608L73.857 13.3585C73.8314 13.3516 73.8048 13.3446 73.7786 13.3376C73.7373 13.3263 73.6959 13.3154 73.6545 13.3041L73.6292 13.2967L73.5922 13.2859C73.1973 13.18 72.7936 13.0851 72.3895 12.9911C72.1522 12.9353 71.9144 12.8826 71.6745 12.8313C71.2717 12.7455 70.8681 12.6601 70.4618 12.5865C70.3103 12.56 70.1605 12.5338 70.0089 12.5095L70.0003 12.5077H69.9941H69.9904C69.8406 12.4812 69.6891 12.4568 69.5376 12.4346C69.4674 12.4241 69.3978 12.4137 69.3272 12.4032C69.2392 12.3902 69.1509 12.3762 69.0642 12.364C68.6323 12.3039 68.1973 12.2508 67.7609 12.2055C66.9192 12.118 66.0714 12.0597 65.2228 12.0279C64.7507 12.01 64.2787 12 63.8071 12C63.012 12 62.2151 12.0287 61.42 12.0788C61.3365 12.0836 61.2524 12.0857 61.1688 12.0914C60.29 12.1528 59.4152 12.2438 58.5496 12.364C58.3937 12.3862 58.2382 12.4102 58.0845 12.4328C58.0796 12.4342 58.0759 12.4346 58.0719 12.4354C58.0707 12.4354 58.0682 12.4359 58.0658 12.4368L26.6672 43.8331L26.6647 43.843" fill="#404040"/>
<path d="M100.95 55.2628L100.955 55.2349L100.958 55.2044C100.966 55.1517 100.974 55.0972 100.98 55.0446L100.983 55.0322L100.984 55.0122L100.988 54.9896C100.998 54.9213 101.01 54.8503 101.018 54.7815L101.022 54.7353L101.031 54.6887C101.034 54.6661 101.037 54.6442 101.041 54.6237L101.069 54.389L101.091 54.2275C101.111 54.0716 101.128 53.9262 101.144 53.7807L101.146 53.7602C101.162 53.6209 101.176 53.4894 101.188 53.3561C101.198 53.2447 101.211 53.1393 101.219 53.0365V53.0304L101.229 52.9294C101.237 52.8545 101.243 52.7818 101.247 52.7086L101.248 52.6804L101.251 52.6521C101.261 52.5572 101.267 52.4622 101.273 52.3673V52.353L101.275 52.3285C101.288 52.1914 101.298 52.0455 101.306 51.8818V51.8719C101.316 51.7243 101.324 51.5806 101.332 51.4391L101.334 51.3969V51.3381L101.336 51.2797C101.344 51.1604 101.348 51.0389 101.352 50.9174C101.358 50.7537 101.362 50.5982 101.366 50.4424L101.367 50.4219V50.3513C101.37 50.2398 101.372 50.127 101.372 50.0134V49.8862L101.374 49.8657C101.376 49.7686 101.376 49.672 101.376 49.5766C101.376 49.4755 101.376 49.3724 101.374 49.2735V49.2649L101.372 49.1677C101.267 42.0221 98.4039 35.3189 93.3123 30.296C88.2124 25.2671 81.4612 22.4985 74.2986 22.4985C72.6448 22.4985 71.0089 22.6466 69.4051 22.9375C73.112 25.1783 76.3186 28.1789 78.8364 31.7883C82.488 37.021 84.4192 43.1725 84.4192 49.5762C84.4192 55.9803 82.488 62.1313 78.8364 67.3645C75.2692 72.4762 70.3213 76.3647 64.5281 78.6072C60.951 79.9924 57.1739 80.6961 53.2998 80.6961C47.6438 80.6961 42.2125 79.1933 37.4648 76.3808L37.4723 76.3894L37.4945 76.4094L37.515 76.4299C37.5372 76.4539 37.5594 76.4761 37.5837 76.4966L37.6586 76.5693C37.7191 76.6298 37.7797 76.6886 37.8424 76.7474L37.8523 76.7573L37.8646 76.7671C37.9656 76.8643 38.085 76.9792 38.2025 77.0867L38.2208 77.1007L38.2369 77.1169C38.3135 77.1901 38.3901 77.2627 38.4694 77.3333L38.4756 77.3394L38.483 77.3456C38.6184 77.471 38.756 77.5947 38.8975 77.7179L38.9061 77.7241L38.9148 77.7327C39.0054 77.8137 39.0964 77.8947 39.1895 77.9757L39.2074 77.9897L39.2684 78.0419L39.2746 78.0443L39.5415 78.2751L39.596 78.3217L39.6083 78.334C39.681 78.395 39.752 78.4555 39.8269 78.5143L39.8552 78.5365L39.8813 78.5605C39.944 78.6153 40.0146 78.6719 40.0938 78.7346L40.12 78.7546L40.1444 78.7751C40.2011 78.8235 40.2576 78.87 40.3121 78.9106L40.3303 78.9245L40.3465 78.9388C40.5468 79.1004 40.7549 79.2623 40.9652 79.4217C41.0097 79.4583 41.0562 79.4927 41.1007 79.5271C41.1534 79.5676 41.2039 79.606 41.2561 79.6448C41.2866 79.6665 41.3149 79.687 41.3414 79.7092L41.3919 79.7457C41.4746 79.8084 41.5595 79.8711 41.6445 79.9338L41.7233 79.9905C41.766 80.0205 41.8086 80.051 41.8509 80.0815L41.8671 80.0938L41.8853 80.1062C41.9458 80.1528 42.0108 80.1971 42.073 80.2416L42.1423 80.2903C42.296 80.3996 42.4532 80.5085 42.6113 80.6178L42.6257 80.6264L42.6397 80.6363C42.7084 80.6847 42.7794 80.7312 42.8478 80.7778L42.9005 80.8123L43.0742 80.9277L43.2584 81.0509C43.3516 81.1113 43.4487 81.1763 43.5476 81.2368C43.6468 81.3012 43.7435 81.3622 43.8389 81.4227H44.0771L44.5038 81.829C44.5687 81.87 44.6353 81.91 44.7024 81.9487C44.8317 82.0254 44.9632 82.102 45.0942 82.1752L45.1066 82.1826L45.1189 82.1912C45.2221 82.2517 45.3253 82.3084 45.4303 82.3671C45.9846 82.6802 46.5463 82.9776 47.1085 83.255C47.2343 83.3172 47.3575 83.3782 47.4808 83.4366C47.499 83.4464 47.5169 83.4548 47.5352 83.4653C47.6527 83.5198 47.7682 83.5742 47.8853 83.6308C48.2394 83.7967 48.6012 83.9582 48.9548 84.1102L48.9634 84.1127L48.9708 84.1164C49.058 84.1547 49.1489 84.1931 49.236 84.2296C49.2622 84.2395 49.2904 84.2518 49.3209 84.2661C49.4381 84.3145 49.5556 84.3628 49.6745 84.4116C49.9641 84.5287 50.2772 84.6502 50.6046 84.7734L50.6145 84.7771L50.6243 84.7821C50.7253 84.8203 50.8264 84.8587 50.9296 84.8949L50.9439 84.8998L50.9563 84.9035C51.4357 85.0794 51.9107 85.241 52.368 85.3847L52.3842 85.3909L52.3981 85.3946C52.4913 85.4273 52.5823 85.4555 52.6755 85.4838L52.6894 85.485L52.7017 85.49C52.8411 85.5344 52.9809 85.5766 53.1202 85.6193L53.2378 85.6537C53.4055 85.7003 53.5714 85.7486 53.7373 85.7953C53.83 85.8214 53.9128 85.8436 53.996 85.8659L54.016 85.8708C55.0514 86.1499 56.1048 86.3842 57.1442 86.5684L57.1565 86.5721L57.1689 86.5745C57.2943 86.5968 57.4297 86.6211 57.5995 86.6495H57.6094L57.618 86.6507C57.7857 86.679 57.9254 86.7012 58.0526 86.7195L58.0731 86.7219L58.0931 86.7256C58.2389 86.75 58.3862 86.7701 58.532 86.7906L58.5443 86.7918C60.2752 87.0326 62.0423 87.1558 63.7997 87.1558C65.5589 87.1558 67.3281 87.0327 69.059 86.7918L69.0956 86.7856C69.2349 86.7656 69.3725 86.7474 69.5096 86.7251L69.5301 86.7214L69.5441 86.719L100.943 55.3204C100.944 55.3021 100.947 55.2839 100.95 55.2656" fill="#404040"/>
</svg>
