<svg width="128" height="128" viewBox="0 0 128 128" fill="none" xmlns="http://www.w3.org/2000/svg">
<path d="M82.0633 34.6377L71 45.7019L75.273 49.9749L86.3363 38.9107L82.0633 34.6377Z" fill="#404040"/>
<path d="M59.7005 57.002L48.6367 68.0657L52.9097 72.3387L63.9735 61.275L59.7005 57.002Z" fill="#404040"/>
<path d="M68.2457 42.9471L79.3094 31.8834L75.0364 27.6104L63.9727 38.6741L68.2457 42.9471Z" fill="#404040"/>
<path d="M56.9461 54.2476L52.6731 49.9746L41.6094 61.0379L45.8824 65.3109L56.9461 54.2476Z" fill="#404040"/>
<path d="M56.9461 45.7019L45.8824 34.6377L41.6094 38.9107L52.6731 49.9749L56.9461 45.7019Z" fill="#404040"/>
<path d="M59.7005 42.9471L63.9735 38.6741L52.9097 27.6104L48.6367 31.8834L59.7005 42.9471Z" fill="#404040"/>
<path d="M71 54.2476L82.0633 65.3109L86.3363 61.0379L75.273 49.9746L71 54.2476Z" fill="#404040"/>
<path d="M79.3094 68.0657L68.2457 57.002L63.9727 61.275L75.0364 72.3387L79.3094 68.0657Z" fill="#404040"/>
<path d="M79.3103 76.6119L75.0372 72.3389L63.9735 83.4026L52.9097 72.3389L48.6367 76.6119L63.9735 91.9487L79.3103 76.6119Z" fill="#404040"/>
<path d="M41.6098 38.9107L37.3368 34.6377L22 49.9749L37.3368 65.3112L41.6098 61.0382L30.546 49.9749L41.6098 38.9107Z" fill="#404040"/>
<path d="M90.6129 34.6377L86.3398 38.9107L97.4041 49.9749L86.3398 61.0382L90.6129 65.3112L105.95 49.9749L90.6129 34.6377Z" fill="#404040"/>
<path d="M75.0372 27.6102L79.3103 23.3372L63.9735 8L48.6367 23.3372L52.9097 27.6102L63.9735 16.546L75.0372 27.6102Z" fill="#404040"/>
<path d="M28.7428 111.076C29.4042 110.573 29.8545 109.819 30.1057 108.853L30.1322 108.774L28.7959 108.443L28.7694 108.523C28.6104 109.237 28.306 109.78 27.8693 110.15C27.4194 110.507 26.8769 110.692 26.2285 110.692C25.6995 110.692 25.2096 110.56 24.7467 110.296C24.2965 110.031 23.966 109.621 23.7539 109.078C23.5292 108.536 23.4234 107.887 23.4234 107.16C23.4234 106.591 23.5157 106.035 23.7012 105.505C23.8867 104.976 24.2041 104.553 24.6404 104.235C25.0907 103.931 25.6594 103.772 26.3213 103.772C26.9034 103.772 27.3799 103.904 27.7635 104.196C28.1475 104.473 28.4384 104.923 28.637 105.545L28.6635 105.612L29.9864 105.307L29.9602 105.228C29.709 104.407 29.2722 103.759 28.65 103.296C28.0282 102.846 27.2609 102.621 26.3478 102.621C25.5535 102.621 24.8124 102.793 24.1379 103.15C23.476 103.521 22.947 104.05 22.5895 104.738C22.2324 105.426 22.0469 106.247 22.0469 107.16C22.0469 108.007 22.2058 108.814 22.5233 109.542C22.8411 110.283 23.3171 110.864 23.9393 111.248C24.5481 111.645 25.3554 111.844 26.3343 111.844C27.274 111.844 28.0813 111.579 28.7427 111.076" fill="#404040"/>
<path d="M38.5997 110.692C37.7527 110.692 37.0386 110.388 36.4695 109.806C35.9138 109.21 35.6225 108.39 35.6225 107.358C35.6225 106.074 35.9269 105.135 36.5091 104.592C37.0913 104.05 37.8058 103.772 38.6131 103.772C39.1953 103.772 39.7113 103.917 40.1747 104.195C40.6245 104.473 40.9815 104.884 41.2202 105.4C41.4579 105.916 41.5772 106.537 41.5772 107.239C41.5772 108.337 41.2994 109.197 40.7433 109.793C40.1877 110.388 39.4601 110.692 38.5997 110.692ZM42.4106 109.66C42.7816 108.959 42.9667 108.138 42.9667 107.239C42.9667 106.352 42.7817 105.558 42.4372 104.857C42.0802 104.156 41.5637 103.6 40.8892 103.203C40.2143 102.806 39.4466 102.607 38.6131 102.607C37.3295 102.607 36.2709 103.031 35.4636 103.865C34.6563 104.698 34.2461 105.876 34.2461 107.345C34.2461 108.125 34.4181 108.866 34.7756 109.568C35.1196 110.269 35.6356 110.825 36.3105 111.235C36.9855 111.645 37.7527 111.844 38.5997 111.844C39.3939 111.844 40.1346 111.659 40.8095 111.288C41.498 110.931 42.027 110.375 42.4106 109.66Z" fill="#404040"/>
<path d="M56.2915 102.912H55.0078V111.844H56.2915V102.912Z" fill="#404040"/>
<path d="M52.5207 111.844L54.532 106.167V102.991L52.4018 109.065C52.2298 109.555 52.0974 109.939 52.0047 110.243L51.6472 109.184L49.517 102.912H49.3711V106.154L51.3428 111.844H52.5207Z" fill="#404040"/>
<path d="M48.8944 102.912H47.5977V111.844H48.8944V102.912Z" fill="#404040"/>
<path d="M67.1581 107.477C67.6606 106.948 67.9122 106.3 67.9122 105.532C67.9122 105.082 67.8196 104.672 67.634 104.302C67.4359 103.931 67.1977 103.627 66.8798 103.428C66.5759 103.216 66.1918 103.071 65.7551 103.005C65.4376 102.939 64.9743 102.912 64.3791 102.912H62.7383V104.103H64.4718C65.0009 104.103 65.3584 104.13 65.5569 104.182C65.8478 104.262 66.086 104.42 66.258 104.672C66.443 104.923 66.5227 105.214 66.5227 105.572C66.5227 106.048 66.3773 106.419 66.0729 106.683C65.7686 106.948 65.2391 107.081 64.4979 107.081H62.7383V108.285H64.4849C65.7551 108.285 66.6682 108.007 67.1581 107.477" fill="#404040"/>
<path d="M62.2622 102.912H60.9258V111.844H62.2622V102.912Z" fill="#404040"/>
<path d="M77.4125 102.912H76.0365L72.543 111.844H73.959L74.3557 110.799H74.3426L75.3485 108.086L75.5601 107.53L76.3013 105.558H76.3143C76.4733 105.122 76.6056 104.672 76.711 104.235C76.8438 104.659 77.0289 105.175 77.254 105.757L78.1536 108.086H75.8645L75.4543 109.184H78.5773L79.6228 111.844H81.1443L77.4125 102.912Z" fill="#404040"/>
<path d="M91.5195 109.581V111.844H92.8429V102.912H91.5461V109.621L91.5196 109.581" fill="#404040"/>
<path d="M85.6445 111.844H86.8882V102.912H85.6445V111.844Z" fill="#404040"/>
<path d="M91.0419 108.88L87.3633 103.495V105.771L91.0419 111.17V108.88Z" fill="#404040"/>
<path d="M104.406 102.912L102.646 105.532C102.302 106.048 101.998 106.538 101.733 106.961V106.948L100.992 108.073V111.844H102.342V108.073L105.981 102.912H104.406" fill="#404040"/>
<path d="M100.9 105.598L99.1134 102.912H97.4727L100.701 107.649L101.456 106.485L100.9 105.598Z" fill="#404040"/>
<path d="M23.4264 119.1V116.299H24.3129V115.862H22.0469V116.299H22.9334V119.1H23.4264Z" fill="#404040"/>
<path d="M27.6214 117.941L28.0904 116.526H28.0991L28.5676 117.941H27.6214ZM27.8879 115.862L26.7109 119.1H27.2308L27.4795 118.376H28.7079L28.9587 119.1H29.4764L28.299 115.862H27.8879Z" fill="#404040"/>
<path d="M33.0148 116.561C33.0666 116.494 33.1345 116.439 33.219 116.394C33.3017 116.351 33.401 116.328 33.5168 116.325C33.6736 116.328 33.8073 116.374 33.9166 116.461C34.0215 116.553 34.0942 116.664 34.1343 116.794H34.6538C34.6024 116.523 34.4779 116.296 34.2806 116.112C34.0838 115.93 33.829 115.838 33.5168 115.834C33.2621 115.837 33.0496 115.899 32.8794 116.017C32.706 116.134 32.5802 116.267 32.5018 116.417C32.4526 116.495 32.4164 116.598 32.3929 116.725C32.3707 116.853 32.3594 117.105 32.3594 117.48C32.3594 117.851 32.3705 118.101 32.3929 118.231C32.404 118.301 32.4195 118.359 32.4374 118.404C32.4565 118.449 32.4779 118.495 32.5018 118.545C32.5802 118.694 32.706 118.826 32.8794 118.94C33.0496 119.059 33.2621 119.12 33.5168 119.126C33.8469 119.12 34.1208 119.009 34.3385 118.791C34.5545 118.572 34.666 118.3 34.6716 117.976V117.316H33.5212V117.78H34.1809V117.949C34.1784 118.152 34.1142 118.316 33.9902 118.44C33.8652 118.57 33.708 118.636 33.5168 118.636C33.401 118.636 33.3017 118.611 33.219 118.562C33.1345 118.521 33.0666 118.467 33.0148 118.4C32.9512 118.33 32.909 118.239 32.8881 118.127C32.8646 118.014 32.8524 117.799 32.8524 117.48C32.8524 117.162 32.8647 116.945 32.8881 116.83C32.9089 116.72 32.9513 116.63 33.0148 116.561" fill="#404040"/>
<path d="M37.9766 115.862V119.1H40.0445V118.636H38.4677V115.862H37.9766Z" fill="#404040"/>
<path d="M43.7247 119.1V115.862H43.2344V119.1H43.7247Z" fill="#404040"/>
<path d="M47.6275 116.799H47.6361L49.1001 119.1H49.5642V115.862H49.0735V118.163H49.0649L47.5987 115.862H47.1367V119.1H47.6275V116.799Z" fill="#404040"/>
<path d="M55.0445 116.326V115.862H52.9766V119.1H55.0445V118.636H53.4673V117.685H54.8137V117.25H53.4673V116.326H55.0445Z" fill="#404040"/>
<path d="M62.0228 118.405C62.042 118.449 62.0638 118.495 62.0873 118.545C62.1662 118.694 62.2919 118.826 62.4653 118.94C62.6355 119.059 62.8475 119.12 63.1023 119.126C63.4328 119.12 63.7067 119.009 63.9244 118.791C64.1408 118.572 64.2519 118.3 64.2575 117.976V117.316H63.1071V117.781H63.7668V117.949C63.7631 118.152 63.6998 118.316 63.5756 118.44C63.4515 118.57 63.2934 118.636 63.1023 118.636C62.9869 118.636 62.8876 118.611 62.8049 118.563C62.7204 118.521 62.6525 118.467 62.6007 118.4C62.5371 118.33 62.4944 118.239 62.474 118.127C62.45 118.014 62.4383 117.799 62.4383 117.48C62.4383 117.162 62.4506 116.945 62.474 116.83C62.4944 116.72 62.5372 116.63 62.6007 116.561C62.6525 116.494 62.7204 116.439 62.8049 116.394C62.8876 116.351 62.9869 116.328 63.1023 116.325C63.2595 116.328 63.3927 116.374 63.5025 116.461C63.6074 116.553 63.6801 116.664 63.7202 116.794H64.2397C64.1883 116.523 64.0633 116.296 63.8665 116.112C63.6697 115.93 63.4149 115.838 63.1023 115.834C62.8475 115.837 62.6355 115.899 62.4653 116.017C62.2919 116.134 62.1661 116.267 62.0873 116.417C62.0385 116.495 62.0024 116.598 61.9784 116.725C61.9567 116.853 61.9453 117.105 61.9453 117.48C61.9453 117.851 61.9565 118.101 61.9784 118.231C61.9908 118.301 62.0049 118.359 62.0228 118.404" fill="#404040"/>
<path d="M67.9779 116.83C67.9988 116.72 68.0411 116.63 68.1047 116.561C68.1565 116.494 68.2249 116.439 68.3089 116.394C68.3921 116.351 68.4913 116.328 68.6067 116.325C68.7238 116.328 68.8253 116.351 68.9111 116.394C68.9926 116.439 69.0578 116.494 69.1066 116.561C69.1702 116.63 69.2141 116.72 69.2377 116.83C69.2599 116.945 69.2707 117.162 69.2707 117.48C69.2707 117.799 69.2596 118.014 69.2377 118.127C69.2142 118.239 69.1702 118.33 69.1066 118.4C69.0578 118.467 68.9926 118.521 68.9111 118.563C68.8253 118.611 68.7238 118.636 68.6067 118.636C68.4913 118.636 68.392 118.611 68.3089 118.563C68.2248 118.521 68.1565 118.467 68.1047 118.4C68.0411 118.33 67.9989 118.239 67.9779 118.127C67.9545 118.014 67.9426 117.799 67.9426 117.48C67.9426 117.162 67.955 116.945 67.9779 116.83ZM67.5272 118.404C67.5464 118.449 67.5677 118.495 67.5913 118.545C67.6702 118.694 67.796 118.826 67.9693 118.94C68.1395 119.059 68.352 119.12 68.6067 119.126C68.8645 119.12 69.0792 119.059 69.2512 118.94C69.4215 118.826 69.5443 118.694 69.6196 118.545C69.6744 118.466 69.7123 118.362 69.7328 118.231C69.7519 118.101 69.7616 117.851 69.7616 117.48C69.7616 117.105 69.7517 116.853 69.7328 116.725C69.7123 116.598 69.6744 116.495 69.6196 116.417C69.5443 116.267 69.4215 116.134 69.2512 116.017C69.0792 115.898 68.8645 115.838 68.6067 115.834C68.352 115.837 68.1395 115.899 67.9693 116.017C67.796 116.134 67.6701 116.267 67.5913 116.417C67.5429 116.495 67.5064 116.598 67.4828 116.725C67.4606 116.853 67.4492 117.105 67.4492 117.48C67.4492 117.851 67.4604 118.101 67.4828 118.231C67.4952 118.301 67.5093 118.359 67.5272 118.404Z" fill="#404040"/>
<path d="M75.1343 116.326V115.862H73.0664V119.1H75.1343V118.636H73.5572V117.685H74.9035V117.25H73.5572V116.326H75.1343Z" fill="#404040"/>
<path d="M79.2844 118.636C78.9291 118.633 78.6226 118.526 78.3648 118.314L78.043 118.682C78.3878 118.978 78.8002 119.126 79.2801 119.126C80.0221 119.118 80.4013 118.804 80.4175 118.185C80.4175 117.955 80.3456 117.754 80.2019 117.581C80.0569 117.404 79.8327 117.295 79.5292 117.254C79.375 117.235 79.2535 117.218 79.1647 117.203C79.0049 117.173 78.8882 117.12 78.8159 117.043C78.7432 116.968 78.707 116.883 78.707 116.79C78.7095 116.634 78.7641 116.517 78.869 116.439C78.9696 116.363 79.0959 116.325 79.247 116.325C79.5387 116.331 79.8057 116.414 80.0486 116.574L80.3221 116.17C80.0242 115.955 79.6741 115.844 79.2713 115.834C78.9365 115.837 78.6783 115.925 78.4963 116.097C78.3077 116.27 78.2141 116.498 78.2141 116.781C78.2141 117.016 78.2885 117.216 78.4383 117.381C78.5833 117.541 78.7954 117.643 79.0737 117.689C79.2291 117.712 79.3719 117.731 79.5026 117.75C79.7865 117.798 79.9271 117.943 79.9241 118.185C79.9179 118.479 79.7051 118.63 79.2844 118.636" fill="#404040"/>
<path d="M89.7478 119.1V115.862H89.2571V117.25H87.9751V115.862H87.4844V119.1H87.9751V117.685H89.2571V119.1H89.7478Z" fill="#404040"/>
<path d="M95.232 116.326V115.862H93.1641V119.1H95.232V118.636H93.6548V117.685H95.0008V117.25H93.6548V116.326H95.232Z" fill="#404040"/>
<path d="M100.068 117.121C99.9761 117.225 99.8384 117.278 99.6546 117.281H98.9126V116.299H99.6812C99.8384 116.299 99.9581 116.333 100.041 116.399C100.146 116.474 100.2 116.597 100.203 116.766C100.203 116.906 100.158 117.025 100.068 117.121V117.121ZM100.667 116.766C100.659 116.467 100.551 116.236 100.346 116.075C100.175 115.933 99.9555 115.862 99.686 115.862H98.4219V119.1H98.9126V117.716H99.5392L100.208 119.1H100.792L100.041 117.663C100.453 117.505 100.662 117.206 100.667 116.766Z" fill="#404040"/>
<path d="M105.994 116.326V115.862H103.926V119.1H105.994V118.636H104.417V117.685H105.763V117.25H104.417V116.326H105.994Z" fill="#404040"/>
</svg>
