<svg width="14" height="24" viewBox="0 0 14 24" fill="none" xmlns="http://www.w3.org/2000/svg">
<path d="M0.819981 12.7785C0.39334 12.3485 0.39334 11.6515 0.819981 11.2215L11.635 0.322466C12.0617 -0.107489 12.7534 -0.107489 13.18 0.322466C13.6067 0.752421 13.6067 1.44952 13.18 1.87947L2.36499 12.7785C1.93834 13.2085 1.24662 13.2085 0.819981 12.7785Z" fill="#BAA471"/>
<path d="M13.18 23.6775C12.7534 24.1075 12.0617 24.1075 11.635 23.6775L0.819981 12.7785C0.39334 12.3485 0.39334 11.6515 0.819981 11.2215C1.24662 10.7915 1.93834 10.7915 2.36498 11.2215L13.18 22.1205C13.6067 22.5505 13.6067 23.2476 13.18 23.6775Z" fill="#BAA471"/>
</svg>
