<svg width="128" height="128" viewBox="0 0 128 128" fill="none" xmlns="http://www.w3.org/2000/svg">
<path d="M43.0805 83.286L43.0755 83.2761L40.4624 78.751L19.7457 42.8687H14.5195L37.8493 83.2774L37.8444 83.2861H37.8543H43.0692H43.0802" fill="#404040"/>
<path d="M63.9815 83.286L63.9766 83.2761L61.3634 78.751L58.7516 74.2276L56.1386 69.7025L53.5272 65.1773L50.9141 60.6522L40.6463 42.8687H35.4219L48.301 65.1773L50.9141 69.7025L53.5272 74.2276L56.1386 78.751L58.7516 83.2761L58.7455 83.286H58.7578H63.9705H63.9828" fill="#404040"/>
<path d="M71.8122 78.7515L69.2009 74.2281L66.5878 69.7029L63.9764 65.1778L61.3633 60.6527L58.7515 56.1293L56.1384 51.6041L51.0955 42.8691H45.8711L53.5253 56.1275L58.7515 65.1778L61.3633 69.7029L63.9764 74.2281L66.5878 78.7515L69.2009 83.2766L69.1934 83.2865H69.2058H74.4202H74.4301L74.4252 83.2778L71.8121 78.7514" fill="#404040"/>
<path d="M83.0738 14H77.8476L58.7773 47.0332L61.3905 51.5579L83.0738 14Z" fill="#404040"/>
<path d="M48.307 83.286H53.5319L53.5269 83.2761L50.9138 78.751L48.3025 74.2276L45.6894 69.7025L30.1971 42.8687H24.9727L43.0763 74.2258L45.6894 78.751L48.3025 83.2761L48.2963 83.286H48.3074" fill="#404040"/>
<path d="M66.6131 60.6064L93.5209 14H88.2965L64 56.0813L64.0283 56.1292L66.613 60.6064" fill="#404040"/>
<path d="M71.8396 69.6567L103.972 14H98.7479L69.2266 65.1298L69.2548 65.1777L71.8396 69.6567" fill="#404040"/>
<path d="M114.423 14H109.199L74.4531 74.1801L74.481 74.228L77.0662 78.7052L114.423 14" fill="#404040"/>
<path d="M17.8625 102.179C17.3487 102.654 16.642 102.95 15.8843 102.95C14.2658 102.95 12.9555 101.652 12.9555 100.034C12.9555 98.4283 14.2658 97.118 15.8843 97.118C16.642 97.118 17.3487 97.4133 17.8625 97.9014L19.2368 96.5141C18.3633 95.6794 17.1815 95.1655 15.8843 95.1655C13.1998 95.1655 11.0156 97.3493 11.0156 100.034C11.0156 102.719 13.1998 104.902 15.8843 104.902C17.1815 104.902 18.3633 104.389 19.2368 103.553L17.8625 102.179Z" fill="#404040"/>
<path d="M32.0679 102.963C30.4494 102.963 29.1387 101.652 29.1387 100.034C29.1387 98.4283 30.4494 97.118 32.0679 97.118C33.6734 97.118 34.9837 98.4283 34.9837 100.034C34.9837 101.652 33.6734 102.963 32.0679 102.963ZM32.0679 95.1655C29.3834 95.1655 27.1992 97.3493 27.1992 100.034C27.1992 102.719 29.3834 104.902 32.0679 104.902C34.7524 104.902 36.9362 102.719 36.9362 100.034C36.9362 97.3493 34.7524 95.1655 32.0679 95.1655Z" fill="#404040"/>
<path d="M50.4883 102.282L47.6366 95.1655H45.543V104.902H47.4824V100.034L49.4349 104.902H51.529L53.4815 100.034V104.902H55.421V95.1655H53.3274L50.4883 102.282Z" fill="#404040"/>
<path d="M66.7506 99.0575H65.9668V97.118H66.7506C67.2897 97.118 67.7269 97.5548 67.7269 98.0943C67.7269 98.6206 67.2897 99.0575 66.7506 99.0575ZM66.7506 95.1655H64.0273V104.902H65.9668V101.01H66.7632C68.3691 101.01 69.6663 99.6998 69.6663 98.0943C69.6663 96.4758 68.3692 95.1655 66.7506 95.1655Z" fill="#404040"/>
<path d="M80.7518 100.227L81.5357 98.0299L82.332 100.227H80.7518ZM80.508 95.1655L76.9883 104.902H79.0562L80.0456 102.179H83.0383L84.0277 104.902H86.0956L82.5759 95.1655H80.508Z" fill="#404040"/>
<path d="M102.551 95.1655H100.611V101.665L96.7188 95.1655H94.4453V104.902H96.3848V98.4152L100.29 104.902H102.551V95.1655Z" fill="#404040"/>
<path d="M115.382 104.902V100.265L117.925 95.1655H115.754L114.418 97.8631L113.07 95.1655H110.898L113.442 100.265V104.902H115.382Z" fill="#404040"/>
<path d="M11 109.631H12.1291V113.199H12.757V109.631H13.8861V109.073H11V109.631Z" fill="#404040"/>
<path d="M18.1053 111.722L18.7023 109.919H18.7147L19.3117 111.722H18.1053ZM18.445 109.073L16.9453 113.199H17.6076L17.9242 112.277H19.4887L19.8088 113.199H20.4685L18.9684 109.073H18.445Z" fill="#404040"/>
<path d="M25.6207 111.518H26.4606V111.733C26.4569 111.992 26.3757 112.2 26.2176 112.358C26.0591 112.524 25.858 112.607 25.6146 112.607C25.4674 112.607 25.3411 112.576 25.2357 112.514C25.1282 112.461 25.0415 112.392 24.9753 112.307C24.8944 112.219 24.8404 112.103 24.8138 111.96C24.7838 111.816 24.7685 111.542 24.7685 111.136C24.7685 110.73 24.7838 110.454 24.8138 110.307C24.8403 110.167 24.8944 110.053 24.9753 109.965C25.0415 109.88 25.1282 109.809 25.2357 109.752C25.3411 109.698 25.4674 109.668 25.6146 109.665C25.8149 109.669 25.9847 109.726 26.124 109.837C26.2581 109.954 26.3505 110.096 26.4014 110.262H27.0633C26.9975 109.916 26.839 109.627 26.5882 109.393C26.3374 109.161 26.013 109.043 25.6146 109.04C25.2902 109.043 25.0198 109.121 24.8029 109.271C24.5821 109.421 24.4215 109.59 24.3217 109.781C24.2594 109.881 24.2134 110.012 24.1828 110.174C24.1549 110.336 24.1406 110.657 24.1406 111.136C24.1406 111.608 24.155 111.926 24.1828 112.092C24.1981 112.181 24.2168 112.255 24.2398 112.313C24.2642 112.37 24.2912 112.429 24.3217 112.492C24.4214 112.682 24.5821 112.85 24.8028 112.995C25.0197 113.146 25.2901 113.225 25.6145 113.233C26.0356 113.225 26.3844 113.083 26.6618 112.806C26.937 112.527 27.0789 112.18 27.0863 111.767V110.927H25.6206V111.518" fill="#404040"/>
<path d="M31.9183 109.073H31.293V113.199H33.9274V112.607H31.9183V109.073Z" fill="#404040"/>
<path d="M37.9922 113.199H38.6175V109.073H37.9922V113.199Z" fill="#404040"/>
<path d="M45.4323 112.005H45.4212L43.5536 109.073H42.9648V113.199H43.5906V110.267H43.6017L45.4667 113.199H46.058V109.073H45.4327V112.005" fill="#404040"/>
<path d="M50.4062 113.199H53.0407V112.607H51.0316V111.396H52.7463V110.842H51.0316V109.665H53.0407V109.073H50.4062V113.199Z" fill="#404040"/>
<path d="M63.3121 111.518H64.1525V111.733C64.1488 111.992 64.0676 112.2 63.9091 112.358C63.7506 112.524 63.5499 112.607 63.3065 112.607C63.1593 112.607 63.033 112.576 62.9272 112.514C62.8197 112.461 62.733 112.392 62.6668 112.307C62.5858 112.219 62.5318 112.103 62.5057 111.96C62.4752 111.816 62.4604 111.542 62.4604 111.136C62.4604 110.73 62.4752 110.454 62.5057 110.307C62.5318 110.167 62.5858 110.053 62.6668 109.965C62.733 109.88 62.8196 109.809 62.9272 109.752C63.033 109.698 63.1593 109.668 63.3065 109.665C63.5063 109.669 63.6762 109.726 63.8159 109.837C63.9496 109.954 64.0419 110.096 64.0933 110.262H64.7552C64.6894 109.916 64.5305 109.627 64.2797 109.393C64.0289 109.161 63.7045 109.043 63.3065 109.04C62.9821 109.043 62.7112 109.121 62.4944 109.271C62.2736 109.421 62.1133 109.59 62.0132 109.781C61.9508 109.881 61.9048 110.012 61.8747 110.174C61.8464 110.336 61.832 110.657 61.832 111.136C61.832 111.608 61.8463 111.926 61.8747 112.092C61.8895 112.181 61.9083 112.255 61.9314 112.313C61.9558 112.37 61.9827 112.429 62.0132 112.492C62.1133 112.682 62.2736 112.85 62.4944 112.995C62.7112 113.146 62.9821 113.225 63.3065 113.233C63.7271 113.225 64.0763 113.083 64.3533 112.806C64.6289 112.527 64.7704 112.18 64.7778 111.767V110.927H63.3121V111.518" fill="#404040"/>
<path d="M71.1215 111.96C71.0915 112.103 71.0357 112.219 70.9543 112.307C70.8925 112.392 70.8093 112.461 70.7057 112.514C70.5964 112.576 70.4671 112.607 70.3181 112.607C70.171 112.607 70.0443 112.576 69.9389 112.514C69.8309 112.461 69.7447 112.392 69.6785 112.307C69.5975 112.219 69.5435 112.103 69.5169 111.96C69.4869 111.816 69.4717 111.542 69.4717 111.136C69.4717 110.73 69.4869 110.454 69.5169 110.307C69.5435 110.167 69.5975 110.053 69.6785 109.965C69.7446 109.88 69.8309 109.809 69.9389 109.752C70.0443 109.698 70.171 109.668 70.3181 109.665C70.4671 109.669 70.5964 109.698 70.7057 109.752C70.8094 109.809 70.8925 109.88 70.9543 109.965C71.0358 110.053 71.0915 110.167 71.1215 110.307C71.1498 110.454 71.1638 110.73 71.1638 111.136C71.1638 111.542 71.1498 111.816 71.1215 111.96ZM71.6079 109.781C71.5121 109.59 71.3554 109.421 71.1385 109.271C70.9195 109.12 70.646 109.043 70.3181 109.04C69.9933 109.043 69.7229 109.121 69.5056 109.271C69.2849 109.421 69.1246 109.59 69.0249 109.781C68.9626 109.881 68.916 110.012 68.886 110.174C68.8577 110.336 68.8438 110.657 68.8438 111.136C68.8438 111.608 68.8577 111.926 68.886 112.092C68.9013 112.181 68.9199 112.255 68.9426 112.313C68.9671 112.37 68.9944 112.429 69.0249 112.492C69.1247 112.682 69.2849 112.85 69.5057 112.995C69.723 113.146 69.9934 113.225 70.3182 113.233C70.6461 113.225 70.9196 113.146 71.1386 112.995C71.3555 112.85 71.5122 112.682 71.608 112.492C71.6781 112.391 71.726 112.259 71.7526 112.092C71.7774 111.926 71.7891 111.608 71.7891 111.136C71.7891 110.657 71.7768 110.336 71.7526 110.174C71.726 110.012 71.6781 109.881 71.608 109.781" fill="#404040"/>
<path d="M75.9961 113.199H78.6301V112.607H76.6214V111.396H78.3362V110.842H76.6214V109.665H78.6301V109.073H75.9961V113.199Z" fill="#404040"/>
<path d="M84.2288 110.847C84.0329 110.823 83.8779 110.801 83.7646 110.782C83.5608 110.745 83.4128 110.677 83.3205 110.579C83.2282 110.483 83.1816 110.375 83.1816 110.256C83.1853 110.058 83.2543 109.909 83.3884 109.809C83.5164 109.713 83.6771 109.665 83.8696 109.665C84.241 109.672 84.5815 109.778 84.8907 109.982L85.239 109.467C84.8598 109.193 84.4139 109.05 83.9005 109.04C83.4742 109.043 83.145 109.154 82.9129 109.373C82.6734 109.594 82.5537 109.884 82.5537 110.245C82.5537 110.545 82.6491 110.8 82.8393 111.009C83.0244 111.212 83.2939 111.344 83.6488 111.402C83.8469 111.431 84.029 111.456 84.1949 111.478C84.5571 111.541 84.7361 111.726 84.7322 112.033C84.7248 112.408 84.4531 112.6 83.9175 112.607C83.4646 112.604 83.074 112.467 82.7457 112.197L82.3359 112.667C82.7753 113.044 83.3004 113.233 83.9118 113.233C84.8572 113.222 85.3397 112.822 85.3605 112.033C85.3605 111.741 85.2691 111.484 85.0862 111.263C84.9016 111.039 84.6155 110.9 84.2288 110.847Z" fill="#404040"/>
<path d="M96.6215 110.842H94.9886V109.073H94.3633V113.199H94.9886V111.396H96.6215V113.199H97.2468V109.073H96.6215V110.842Z" fill="#404040"/>
<path d="M101.598 113.199H104.232V112.607H102.223V111.396H103.938V110.842H102.223V109.665H104.232V109.073H101.598V113.199Z" fill="#404040"/>
<path d="M108.923 110.881V109.631H109.901C110.101 109.631 110.254 109.673 110.36 109.758C110.494 109.854 110.562 110.01 110.566 110.225C110.566 110.404 110.509 110.555 110.394 110.677C110.277 110.809 110.101 110.877 109.868 110.881H108.923ZM111.158 110.225C111.147 109.844 111.01 109.55 110.748 109.345C110.531 109.164 110.251 109.073 109.907 109.073H108.297V113.199H108.923V111.436H109.72L110.572 113.199H111.316L110.36 111.368C110.884 111.166 111.15 110.785 111.158 110.225Z" fill="#404040"/>
<path d="M115.309 113.199H117.943V112.607H115.934V111.396H117.649V110.842H115.934V109.665H117.943V109.073H115.309V113.199Z" fill="#404040"/>
</svg>
