<svg width="32" height="38" viewBox="0 0 32 38" fill="none" xmlns="http://www.w3.org/2000/svg">
<path d="M16 19C18.0886 19 20.0916 18.1703 21.5685 16.6935C23.0453 15.2166 23.875 13.2136 23.875 11.125C23.875 9.03642 23.0453 7.03338 21.5685 5.55653C20.0916 4.07969 18.0886 3.25 16 3.25C13.9114 3.25 11.9084 4.07969 10.4315 5.55653C8.95469 7.03338 8.125 9.03642 8.125 11.125C8.125 13.2136 8.95469 15.2166 10.4315 16.6935C11.9084 18.1703 13.9114 19 16 19ZM16 21.625C13.2152 21.625 10.5445 20.5188 8.57538 18.5496C6.60625 16.5805 5.5 13.9098 5.5 11.125C5.5 8.34023 6.60625 5.66951 8.57538 3.70038C10.5445 1.73125 13.2152 0.625 16 0.625C18.7848 0.625 21.4555 1.73125 23.4246 3.70038C25.3938 5.66951 26.5 8.34023 26.5 11.125C26.5 13.9098 25.3938 16.5805 23.4246 18.5496C21.4555 20.5188 18.7848 21.625 16 21.625Z" fill="#F79321"/>
<path d="M16 19C16.3481 19 16.6819 19.1383 16.9281 19.3844C17.1742 19.6306 17.3125 19.9644 17.3125 20.3125V30.8125C17.3125 31.1606 17.1742 31.4944 16.9281 31.7406C16.6819 31.9867 16.3481 32.125 16 32.125C15.6519 32.125 15.3181 31.9867 15.0719 31.7406C14.8258 31.4944 14.6875 31.1606 14.6875 30.8125V20.3125C14.6875 19.9644 14.8258 19.6306 15.0719 19.3844C15.3181 19.1383 15.6519 19 16 19Z" fill="#F79321"/>
<path d="M10.75 24.623V27.2874C6.06437 28.0382 2.875 29.6604 2.875 30.8128C2.875 32.3589 8.61325 34.7503 16 34.7503C23.3867 34.7503 29.125 32.3589 29.125 30.8128C29.125 29.6578 25.9356 28.0382 21.25 27.2874V24.623C27.3662 25.5234 31.75 27.9568 31.75 30.8128C31.75 34.4353 24.6992 37.3753 16 37.3753C7.30075 37.3753 0.25 34.4353 0.25 30.8128C0.25 27.9542 4.63375 25.5234 10.75 24.623Z" fill="#F79321"/>
</svg>
