<svg width="330" height="309" viewBox="0 0 330 309" fill="none" xmlns="http://www.w3.org/2000/svg">
<rect x="0.0078125" width="329.107" height="308.995" rx="8" fill="#015BB9"/>
<rect x="0.0078125" width="329.107" height="308.995" rx="8" fill="url(#paint0_linear_4009_207)"/>
<path d="M141.656 200.712H149.752V204.968H133.56V200.712H136.696C135.608 199.528 134.936 197.96 134.936 195.848C134.936 191.752 137.848 189.256 141.624 189.256C146.104 189.256 148.344 191.656 148.696 196.84L144.76 196.904C144.504 194.792 143.32 193.576 141.72 193.576C140.12 193.576 138.904 194.696 138.936 196.488C138.904 197.608 139.576 199.464 141.656 200.712ZM158.792 205H154.504V182.728H158.792V205ZM170.135 188.52C174.263 188.52 177.367 191.656 177.367 195.784V206.44C177.367 210.952 172.887 214.056 164.823 211.912V207.944C171.255 209.224 173.079 207.688 173.079 205.384V204.936H169.559C165.687 204.904 162.551 201.64 162.551 197.672V195.784C162.551 191.656 165.655 188.52 169.815 188.52H170.135ZM173.079 200.68V195.784C173.079 193.992 171.895 192.776 170.135 192.776H169.815C168.023 192.776 166.807 193.992 166.807 195.784V197.672C166.807 199.304 168.119 200.68 169.623 200.68H173.079ZM180.551 205V200.712H186.599C188.199 200.712 189.511 199.4 189.511 197.8V196.008C189.511 194.28 188.071 192.872 186.343 192.872H183.271V188.584H186.343C190.439 188.584 193.767 191.912 193.767 196.008V198.536C193.767 202.12 190.887 205 187.303 205H180.551Z" fill="white"/>
<path d="M77.472 235.368C77.024 235.368 76.656 235 76.656 234.568C76.656 234.136 77.024 233.768 77.472 233.768C77.904 233.768 78.272 234.136 78.272 234.568C78.272 235 77.904 235.368 77.472 235.368ZM79.872 243.752H82.608V245H71.824C70 244.984 68.64 243.608 68.64 241.784V239.704H69.888V241.784C69.888 242.936 70.704 243.752 71.856 243.752H75.088C74.512 243.304 74.128 242.568 74.128 241.736V240.2C74.128 238.344 75.376 236.952 77.488 236.952C79.6 236.952 80.832 238.296 80.832 240.2V241.736C80.832 242.568 80.448 243.304 79.872 243.752ZM79.6 241.736V240.2C79.6 239.032 78.848 238.2 77.52 238.2C76.08 238.2 75.376 238.984 75.376 240.2V241.736C75.376 242.84 76.304 243.752 77.424 243.752C78.848 243.752 79.6 242.84 79.6 241.736ZM88.5792 243.752H89.6832V245H88.4193C87.6993 245 87.0752 244.632 86.6433 244.104C86.2593 244.632 85.6512 245 84.7553 245H83.4593L82.9153 244.792V243.96L83.4593 243.752H84.7713C85.6353 243.752 86.0353 243.176 86.0513 242.44L86.0353 237.432H87.2832V242.408C87.2832 243.16 87.6993 243.752 88.5792 243.752ZM85.1713 246.472C85.6192 246.472 85.9712 246.84 85.9712 247.272C85.9712 247.72 85.6192 248.088 85.1713 248.088C84.7393 248.088 84.3713 247.72 84.3713 247.272C84.3713 246.84 84.7393 246.472 85.1713 246.472ZM87.7633 246.472C88.1952 246.472 88.5633 246.84 88.5633 247.272C88.5633 247.72 88.1952 248.088 87.7633 248.088C87.3312 248.088 86.9633 247.72 86.9633 247.272C86.9633 246.84 87.3312 246.472 87.7633 246.472ZM92.9067 236.072C92.4747 236.072 92.1067 235.704 92.1067 235.272C92.1067 234.84 92.4747 234.472 92.9067 234.472C93.3547 234.472 93.7067 234.84 93.7067 235.272C93.7067 235.704 93.3547 236.072 92.9067 236.072ZM94.9387 243.752H95.4987V245H94.7787C94.0587 245 93.4507 244.632 93.0187 244.104C92.6187 244.632 92.0107 245 91.1147 245H90.4427L89.8987 244.792V243.96L90.4427 243.752H91.1307C92.0267 243.752 92.4107 243.16 92.4107 242.408V237.432H93.6587V241.992C93.6587 242.104 93.6587 242.232 93.6427 242.36V242.408C93.6427 243.16 94.0587 243.752 94.9387 243.752ZM107.286 243.752H108.342V245H96.2937L95.7657 244.792V243.96L96.2937 243.752H97.6057V237.96H98.8377V239.976C100.118 238.504 101.734 237.144 103.51 237.144C105.974 237.144 107.286 238.408 107.286 241.56V243.752ZM106.07 243.752V241.56C106.07 239.192 105.014 238.376 103.414 238.376C101.894 238.376 100.294 239.496 98.8377 241.192V243.752H106.07ZM111.055 236.056C110.623 236.056 110.255 235.704 110.255 235.256C110.255 234.824 110.623 234.456 111.055 234.456C111.503 234.456 111.855 234.824 111.855 235.256C111.855 235.704 111.503 236.056 111.055 236.056ZM113.663 236.056C113.215 236.056 112.847 235.704 112.847 235.256C112.847 234.824 113.215 234.456 113.663 234.456C114.095 234.456 114.463 234.824 114.463 235.256C114.463 235.704 114.095 236.056 113.663 236.056ZM114.239 243.752H115.663V245H114.079C113.359 245 112.751 244.632 112.319 244.104C111.919 244.632 111.311 245 110.415 245H109.167L108.623 244.792V243.96L109.167 243.752H110.431C111.327 243.752 111.711 243.16 111.711 242.408V237.432H112.959V241.992C112.959 242.104 112.959 242.232 112.943 242.36V242.408C112.943 243.16 113.359 243.752 114.239 243.752ZM118.287 233.864H119.535V243.352C119.535 244.296 118.815 245 117.887 245H116.495L115.967 244.792V243.96L116.495 243.752H117.535C117.919 243.752 118.287 243.48 118.287 242.968V233.864ZM122.7 233.864H123.948V242.968C123.948 243.48 124.316 243.752 124.716 243.752H125.74V245H124.348C123.42 245 122.7 244.296 122.7 243.352V233.864ZM126.347 245V243.752H127.995C128.379 243.752 128.747 243.48 128.747 242.968V237.416H129.995V243.352C129.995 244.296 129.275 245 128.347 245H126.347ZM128.539 248.328C128.107 248.328 127.739 247.976 127.739 247.528C127.739 247.096 128.107 246.728 128.539 246.728C128.987 246.728 129.339 247.096 129.339 247.528C129.339 247.976 128.987 248.328 128.539 248.328ZM150.21 237.144C152.674 237.144 153.97 238.552 153.97 241.32C153.97 243.352 152.338 245 150.306 245H145.65C145.49 247.528 143.634 249.272 141.218 249.272H141.122C138.626 249.272 136.674 247.304 136.674 244.808V241.528H137.906V244.808C137.906 246.696 139.234 248.024 141.122 248.024H141.186C143.058 248.024 144.45 246.664 144.45 244.792V237.96H145.682V239.736C146.93 238.392 148.546 237.144 150.21 237.144ZM150.274 243.752C151.65 243.752 152.77 242.648 152.77 241.272C152.77 239.192 151.714 238.36 150.098 238.36C148.658 238.36 147.09 239.416 145.682 241V243.768L150.274 243.752ZM157.079 233.864H158.327V242.968C158.327 243.48 158.695 243.752 159.095 243.752H160.119V245H158.727C157.799 245 157.079 244.296 157.079 243.352V233.864ZM163.83 235.848C163.398 235.848 163.014 235.48 163.014 235.032C163.014 234.6 163.398 234.232 163.83 234.232C164.262 234.232 164.63 234.6 164.63 235.032C164.63 235.48 164.262 235.848 163.83 235.848ZM168.63 241.112C169.67 243.656 169.91 243.656 170.422 243.736V245H160.95L160.406 244.792V243.96L160.95 243.752H168.502C168.182 243.512 167.782 242.392 167.27 241.256C165.942 238.376 164.182 237.608 161.798 238.536V237.4C164.438 236.36 167.062 237.448 168.63 241.112ZM188.486 243.752H189.926V245H177.03V243.752H178.806V233.864H180.038V239.96C181.334 238.488 182.934 237.144 184.71 237.144C187.174 237.144 188.486 238.408 188.486 241.56V243.752ZM187.27 243.752V241.56C187.27 239.192 186.214 238.376 184.614 238.376C183.094 238.376 181.494 239.496 180.038 241.192V243.752H187.27ZM195.864 243.752H196.968V245H195.704C194.984 245 194.36 244.632 193.928 244.104C193.544 244.632 192.936 245 192.04 245H190.744L190.2 244.792V243.96L190.744 243.752H192.056C192.92 243.752 193.32 243.176 193.336 242.44L193.32 237.432H194.568V242.408C194.568 243.16 194.984 243.752 195.864 243.752ZM192.456 246.472C192.904 246.472 193.256 246.84 193.256 247.272C193.256 247.72 192.904 248.088 192.456 248.088C192.024 248.088 191.656 247.72 191.656 247.272C191.656 246.84 192.024 246.472 192.456 246.472ZM195.048 246.472C195.48 246.472 195.848 246.84 195.848 247.272C195.848 247.72 195.48 248.088 195.048 248.088C194.616 248.088 194.248 247.72 194.248 247.272C194.248 246.84 194.616 246.472 195.048 246.472ZM210.735 243.752H211.919V245H210.735C210.095 245 209.519 244.696 209.215 244.152C208.847 244.696 208.415 245 207.567 245H206.143C205.423 245 204.895 244.552 204.671 244.184C204.383 244.68 203.839 245 203.023 245H201.711C200.959 245 200.399 244.584 200.191 244.12C199.919 244.616 199.423 245 198.271 245H197.791L197.247 244.792V243.96L197.791 243.752H198.127C199.071 243.752 199.407 243.272 199.407 242.664V238.6H200.639L200.655 242.664C200.655 243.416 201.135 243.752 201.663 243.752H202.847C203.471 243.752 203.903 243.272 203.903 242.664V238.6H205.119V242.664C205.119 243.272 205.567 243.752 206.223 243.752H207.439C208.063 243.752 208.399 243.272 208.399 242.664V237.224H209.615V242.664C209.615 243.272 210.063 243.752 210.735 243.752ZM212.589 245V243.752H214.237C214.621 243.752 214.989 243.48 214.989 242.968V237.416H216.237V243.352C216.237 244.296 215.517 245 214.589 245H212.589ZM214.781 248.328C214.349 248.328 213.981 247.976 213.981 247.528C213.981 247.096 214.349 246.728 214.781 246.728C215.229 246.728 215.581 247.096 215.581 247.528C215.581 247.976 215.229 248.328 214.781 248.328ZM231.604 235.368C231.156 235.368 230.788 235 230.788 234.568C230.788 234.136 231.156 233.768 231.604 233.768C232.036 233.768 232.404 234.136 232.404 234.568C232.404 235 232.036 235.368 231.604 235.368ZM234.004 243.752H236.74V245H225.956C224.132 244.984 222.772 243.608 222.772 241.784V239.704H224.02V241.784C224.02 242.936 224.836 243.752 225.988 243.752H229.22C228.644 243.304 228.26 242.568 228.26 241.736V240.2C228.26 238.344 229.508 236.952 231.62 236.952C233.732 236.952 234.964 238.296 234.964 240.2V241.736C234.964 242.568 234.58 243.304 234.004 243.752ZM233.732 241.736V240.2C233.732 239.032 232.98 238.2 231.652 238.2C230.212 238.2 229.508 238.984 229.508 240.2V241.736C229.508 242.84 230.436 243.752 231.556 243.752C232.98 243.752 233.732 242.84 233.732 241.736ZM245.271 237.144C247.735 237.144 249.031 238.472 249.031 241.32C249.031 243.352 247.383 245 245.367 245L237.511 244.984V243.752H239.367V237.96H240.599V239.896C241.863 238.504 243.527 237.144 245.271 237.144ZM245.303 243.752C246.695 243.752 247.815 242.632 247.815 241.24C247.815 239.096 246.775 238.376 245.159 238.376C243.655 238.376 242.055 239.48 240.599 241.176V243.752H245.303ZM255.432 236.936C257.304 236.936 258.68 238.344 258.68 240.2V245.72C258.68 247.96 256.872 248.984 253.288 248.376V247.208C256.376 247.608 257.432 247.032 257.432 245.464V244.984H255.144C253.416 244.968 252.024 243.496 252.024 241.736V240.2C252.024 238.344 253.4 236.936 255.272 236.936H255.432ZM257.432 240.2C257.432 239.016 256.6 238.184 255.432 238.184H255.272C254.088 238.184 253.272 239.016 253.272 240.2V241.736C253.272 242.84 254.136 243.736 255.176 243.736H257.432V240.2Z" fill="white"/>
<g opacity="0.5">
<path d="M149.723 54C143.907 54 138.63 54.6009 134.969 55.5157C133.128 55.9731 131.691 56.5269 130.882 57.0067C130.59 57.1816 130.501 57.2713 130.411 57.3632C130.501 57.4552 130.59 57.5448 130.882 57.7197C131.691 58.1996 133.128 58.7534 134.969 59.2108C138.63 60.1256 143.907 60.7265 149.723 60.7265C155.54 60.7265 160.817 60.1256 164.478 59.2108C166.319 58.7534 167.756 58.1996 168.565 57.7197C168.857 57.5448 168.946 57.4552 169.036 57.3632C168.946 57.2713 168.857 57.1816 168.565 57.0067C167.756 56.5269 166.319 55.9731 164.478 55.5157C160.817 54.6009 155.54 54 149.723 54ZM130.186 61.8767V70.861C131.646 71.6009 133.555 72.3408 134.969 72.6996C138.63 73.6188 143.907 74.2242 149.723 74.2242C155.54 74.2242 160.817 73.6188 164.478 72.6996C167.172 72.0493 167.487 71.9821 169.261 70.861V61.8767C168.16 62.361 166.903 62.7668 165.466 63.1256C161.311 64.1592 155.809 64.7623 149.723 64.7623C143.638 64.7623 138.136 64.1592 133.981 63.1256C132.544 62.7668 131.287 62.361 130.186 61.8767ZM132.117 76.1076C130.254 76.7578 128.412 77.9238 126.907 79.426C124.523 81.7803 123 84.9417 123 87.8565V102.206C123 103.327 123.494 104.291 124.765 105.39C126.032 106.466 128.075 107.52 130.59 108.372C135.666 110.054 142.695 110.951 149.723 110.951C156.73 110.951 163.781 110.054 168.857 108.372C171.372 107.52 173.415 106.466 174.673 105.39C175.953 104.291 176.447 103.327 176.447 102.206V87.8565C176.447 84.9417 174.92 81.7803 172.54 79.426C171.035 77.9238 169.216 76.7578 167.33 76.1076C166.746 76.287 166.117 76.4664 165.466 76.6233C161.311 77.6547 155.809 78.2601 149.723 78.2601C143.638 78.2601 138.136 77.6547 133.981 76.6233C133.33 76.4664 132.701 76.287 132.117 76.1076ZM123 109.135V123.731C123 124.852 123.494 125.816 124.765 126.915C126.032 127.991 128.075 129.045 130.59 129.897C135.666 131.578 142.695 132.475 149.723 132.475C156.73 132.475 163.781 131.578 168.857 129.897C171.372 129.045 173.415 127.991 174.673 126.915C175.953 125.816 176.447 124.852 176.447 123.731V109.135C174.695 110.39 172.562 111.377 170.114 112.184C164.41 114.09 157.067 114.987 149.723 114.987C142.358 114.987 135.037 114.09 129.333 112.184C126.885 111.377 124.74 110.39 123 109.135ZM123 130.659V145.256C123 146.377 123.494 147.341 124.765 148.439C126.032 149.516 128.075 150.57 130.59 151.422C135.666 153.103 142.695 154 149.723 154C153.653 154 157.628 153.709 161.221 153.17C160.503 152.161 160.054 151.018 160.054 149.717C160.054 147.072 161.917 144.987 164.253 143.686C165.668 142.879 167.352 142.318 169.193 141.982C169.687 139.987 171.304 138.395 173.213 137.318C174.179 136.78 175.279 136.332 176.447 135.996V130.659C174.695 131.915 172.562 132.901 170.114 133.709C164.41 135.614 157.067 136.511 149.723 136.511C142.358 136.511 135.037 135.614 129.333 133.709C126.885 132.901 124.74 131.915 123 130.659ZM181.814 139.336C179.142 139.336 176.739 139.964 175.189 140.839C174.673 141.13 174.291 141.422 173.977 141.691C176.806 141.848 179.411 142.543 181.455 143.686C182.847 144.471 184.082 145.525 184.823 146.803C185.497 145.121 186.934 143.753 188.641 142.812C189.09 142.565 189.562 142.341 190.056 142.117C189.719 141.713 189.202 141.265 188.439 140.839C186.889 139.964 184.486 139.336 181.814 139.336ZM197.242 144.83C194.57 144.83 192.167 145.457 190.617 146.332C189.045 147.206 188.484 148.148 188.484 148.843C188.484 149.538 189.045 150.48 190.617 151.354C192.167 152.229 194.57 152.856 197.242 152.856C199.914 152.856 202.317 152.229 203.867 151.354C205.439 150.48 206 149.538 206 148.843C206 148.148 205.439 147.206 203.867 146.332C202.317 145.457 199.914 144.83 197.242 144.83ZM172.854 145.704C170.182 145.704 167.779 146.332 166.229 147.206C164.657 148.081 164.096 149.022 164.096 149.717C164.096 150.413 164.657 151.354 166.229 152.229C167.779 153.103 170.182 153.731 172.854 153.731C175.526 153.731 177.929 153.103 179.479 152.229C181.051 151.354 181.612 150.413 181.612 149.717C181.612 149.022 181.051 148.081 179.479 147.206C177.929 146.332 175.526 145.704 172.854 145.704Z" fill="url(#paint1_radial_4009_207)" fill-opacity="0.2"/>
<path d="M149.723 54C143.907 54 138.63 54.6009 134.969 55.5157C133.128 55.9731 131.691 56.5269 130.882 57.0067C130.59 57.1816 130.501 57.2713 130.411 57.3632C130.501 57.4552 130.59 57.5448 130.882 57.7197C131.691 58.1996 133.128 58.7534 134.969 59.2108C138.63 60.1256 143.907 60.7265 149.723 60.7265C155.54 60.7265 160.817 60.1256 164.478 59.2108C166.319 58.7534 167.756 58.1996 168.565 57.7197C168.857 57.5448 168.946 57.4552 169.036 57.3632C168.946 57.2713 168.857 57.1816 168.565 57.0067C167.756 56.5269 166.319 55.9731 164.478 55.5157C160.817 54.6009 155.54 54 149.723 54ZM130.186 61.8767V70.861C131.646 71.6009 133.555 72.3408 134.969 72.6996C138.63 73.6188 143.907 74.2242 149.723 74.2242C155.54 74.2242 160.817 73.6188 164.478 72.6996C167.172 72.0493 167.487 71.9821 169.261 70.861V61.8767C168.16 62.361 166.903 62.7668 165.466 63.1256C161.311 64.1592 155.809 64.7623 149.723 64.7623C143.638 64.7623 138.136 64.1592 133.981 63.1256C132.544 62.7668 131.287 62.361 130.186 61.8767ZM132.117 76.1076C130.254 76.7578 128.412 77.9238 126.907 79.426C124.523 81.7803 123 84.9417 123 87.8565V102.206C123 103.327 123.494 104.291 124.765 105.39C126.032 106.466 128.075 107.52 130.59 108.372C135.666 110.054 142.695 110.951 149.723 110.951C156.73 110.951 163.781 110.054 168.857 108.372C171.372 107.52 173.415 106.466 174.673 105.39C175.953 104.291 176.447 103.327 176.447 102.206V87.8565C176.447 84.9417 174.92 81.7803 172.54 79.426C171.035 77.9238 169.216 76.7578 167.33 76.1076C166.746 76.287 166.117 76.4664 165.466 76.6233C161.311 77.6547 155.809 78.2601 149.723 78.2601C143.638 78.2601 138.136 77.6547 133.981 76.6233C133.33 76.4664 132.701 76.287 132.117 76.1076ZM123 109.135V123.731C123 124.852 123.494 125.816 124.765 126.915C126.032 127.991 128.075 129.045 130.59 129.897C135.666 131.578 142.695 132.475 149.723 132.475C156.73 132.475 163.781 131.578 168.857 129.897C171.372 129.045 173.415 127.991 174.673 126.915C175.953 125.816 176.447 124.852 176.447 123.731V109.135C174.695 110.39 172.562 111.377 170.114 112.184C164.41 114.09 157.067 114.987 149.723 114.987C142.358 114.987 135.037 114.09 129.333 112.184C126.885 111.377 124.74 110.39 123 109.135ZM123 130.659V145.256C123 146.377 123.494 147.341 124.765 148.439C126.032 149.516 128.075 150.57 130.59 151.422C135.666 153.103 142.695 154 149.723 154C153.653 154 157.628 153.709 161.221 153.17C160.503 152.161 160.054 151.018 160.054 149.717C160.054 147.072 161.917 144.987 164.253 143.686C165.668 142.879 167.352 142.318 169.193 141.982C169.687 139.987 171.304 138.395 173.213 137.318C174.179 136.78 175.279 136.332 176.447 135.996V130.659C174.695 131.915 172.562 132.901 170.114 133.709C164.41 135.614 157.067 136.511 149.723 136.511C142.358 136.511 135.037 135.614 129.333 133.709C126.885 132.901 124.74 131.915 123 130.659ZM181.814 139.336C179.142 139.336 176.739 139.964 175.189 140.839C174.673 141.13 174.291 141.422 173.977 141.691C176.806 141.848 179.411 142.543 181.455 143.686C182.847 144.471 184.082 145.525 184.823 146.803C185.497 145.121 186.934 143.753 188.641 142.812C189.09 142.565 189.562 142.341 190.056 142.117C189.719 141.713 189.202 141.265 188.439 140.839C186.889 139.964 184.486 139.336 181.814 139.336ZM197.242 144.83C194.57 144.83 192.167 145.457 190.617 146.332C189.045 147.206 188.484 148.148 188.484 148.843C188.484 149.538 189.045 150.48 190.617 151.354C192.167 152.229 194.57 152.856 197.242 152.856C199.914 152.856 202.317 152.229 203.867 151.354C205.439 150.48 206 149.538 206 148.843C206 148.148 205.439 147.206 203.867 146.332C202.317 145.457 199.914 144.83 197.242 144.83ZM172.854 145.704C170.182 145.704 167.779 146.332 166.229 147.206C164.657 148.081 164.096 149.022 164.096 149.717C164.096 150.413 164.657 151.354 166.229 152.229C167.779 153.103 170.182 153.731 172.854 153.731C175.526 153.731 177.929 153.103 179.479 152.229C181.051 151.354 181.612 150.413 181.612 149.717C181.612 149.022 181.051 148.081 179.479 147.206C177.929 146.332 175.526 145.704 172.854 145.704Z" fill="url(#paint2_radial_4009_207)"/>
<path d="M149.723 54C143.907 54 138.63 54.6009 134.969 55.5157C133.128 55.9731 131.691 56.5269 130.882 57.0067C130.59 57.1816 130.501 57.2713 130.411 57.3632C130.501 57.4552 130.59 57.5448 130.882 57.7197C131.691 58.1996 133.128 58.7534 134.969 59.2108C138.63 60.1256 143.907 60.7265 149.723 60.7265C155.54 60.7265 160.817 60.1256 164.478 59.2108C166.319 58.7534 167.756 58.1996 168.565 57.7197C168.857 57.5448 168.946 57.4552 169.036 57.3632C168.946 57.2713 168.857 57.1816 168.565 57.0067C167.756 56.5269 166.319 55.9731 164.478 55.5157C160.817 54.6009 155.54 54 149.723 54ZM130.186 61.8767V70.861C131.646 71.6009 133.555 72.3408 134.969 72.6996C138.63 73.6188 143.907 74.2242 149.723 74.2242C155.54 74.2242 160.817 73.6188 164.478 72.6996C167.172 72.0493 167.487 71.9821 169.261 70.861V61.8767C168.16 62.361 166.903 62.7668 165.466 63.1256C161.311 64.1592 155.809 64.7623 149.723 64.7623C143.638 64.7623 138.136 64.1592 133.981 63.1256C132.544 62.7668 131.287 62.361 130.186 61.8767ZM132.117 76.1076C130.254 76.7578 128.412 77.9238 126.907 79.426C124.523 81.7803 123 84.9417 123 87.8565V102.206C123 103.327 123.494 104.291 124.765 105.39C126.032 106.466 128.075 107.52 130.59 108.372C135.666 110.054 142.695 110.951 149.723 110.951C156.73 110.951 163.781 110.054 168.857 108.372C171.372 107.52 173.415 106.466 174.673 105.39C175.953 104.291 176.447 103.327 176.447 102.206V87.8565C176.447 84.9417 174.92 81.7803 172.54 79.426C171.035 77.9238 169.216 76.7578 167.33 76.1076C166.746 76.287 166.117 76.4664 165.466 76.6233C161.311 77.6547 155.809 78.2601 149.723 78.2601C143.638 78.2601 138.136 77.6547 133.981 76.6233C133.33 76.4664 132.701 76.287 132.117 76.1076ZM123 109.135V123.731C123 124.852 123.494 125.816 124.765 126.915C126.032 127.991 128.075 129.045 130.59 129.897C135.666 131.578 142.695 132.475 149.723 132.475C156.73 132.475 163.781 131.578 168.857 129.897C171.372 129.045 173.415 127.991 174.673 126.915C175.953 125.816 176.447 124.852 176.447 123.731V109.135C174.695 110.39 172.562 111.377 170.114 112.184C164.41 114.09 157.067 114.987 149.723 114.987C142.358 114.987 135.037 114.09 129.333 112.184C126.885 111.377 124.74 110.39 123 109.135ZM123 130.659V145.256C123 146.377 123.494 147.341 124.765 148.439C126.032 149.516 128.075 150.57 130.59 151.422C135.666 153.103 142.695 154 149.723 154C153.653 154 157.628 153.709 161.221 153.17C160.503 152.161 160.054 151.018 160.054 149.717C160.054 147.072 161.917 144.987 164.253 143.686C165.668 142.879 167.352 142.318 169.193 141.982C169.687 139.987 171.304 138.395 173.213 137.318C174.179 136.78 175.279 136.332 176.447 135.996V130.659C174.695 131.915 172.562 132.901 170.114 133.709C164.41 135.614 157.067 136.511 149.723 136.511C142.358 136.511 135.037 135.614 129.333 133.709C126.885 132.901 124.74 131.915 123 130.659ZM181.814 139.336C179.142 139.336 176.739 139.964 175.189 140.839C174.673 141.13 174.291 141.422 173.977 141.691C176.806 141.848 179.411 142.543 181.455 143.686C182.847 144.471 184.082 145.525 184.823 146.803C185.497 145.121 186.934 143.753 188.641 142.812C189.09 142.565 189.562 142.341 190.056 142.117C189.719 141.713 189.202 141.265 188.439 140.839C186.889 139.964 184.486 139.336 181.814 139.336ZM197.242 144.83C194.57 144.83 192.167 145.457 190.617 146.332C189.045 147.206 188.484 148.148 188.484 148.843C188.484 149.538 189.045 150.48 190.617 151.354C192.167 152.229 194.57 152.856 197.242 152.856C199.914 152.856 202.317 152.229 203.867 151.354C205.439 150.48 206 149.538 206 148.843C206 148.148 205.439 147.206 203.867 146.332C202.317 145.457 199.914 144.83 197.242 144.83ZM172.854 145.704C170.182 145.704 167.779 146.332 166.229 147.206C164.657 148.081 164.096 149.022 164.096 149.717C164.096 150.413 164.657 151.354 166.229 152.229C167.779 153.103 170.182 153.731 172.854 153.731C175.526 153.731 177.929 153.103 179.479 152.229C181.051 151.354 181.612 150.413 181.612 149.717C181.612 149.022 181.051 148.081 179.479 147.206C177.929 146.332 175.526 145.704 172.854 145.704Z" fill="url(#paint3_linear_4009_207)"/>
</g>
<defs>
<linearGradient id="paint0_linear_4009_207" x1="164.561" y1="692.038" x2="144.945" y2="0.556512" gradientUnits="userSpaceOnUse">
<stop stop-color="#647B64" stop-opacity="0.77"/>
<stop offset="0.664596" stop-color="#647B64" stop-opacity="0"/>
<stop offset="1" stop-color="#647B64" stop-opacity="0"/>
</linearGradient>
<radialGradient id="paint1_radial_4009_207" cx="0" cy="0" r="1" gradientUnits="userSpaceOnUse" gradientTransform="translate(164.5 104) rotate(90) scale(50 41.5)">
<stop stop-color="white"/>
<stop offset="1" stop-color="white"/>
</radialGradient>
<radialGradient id="paint2_radial_4009_207" cx="0" cy="0" r="1" gradientUnits="userSpaceOnUse" gradientTransform="translate(164.5 104) rotate(90) scale(50 41.5)">
<stop stop-color="white" stop-opacity="0"/>
<stop offset="1" stop-color="white"/>
</radialGradient>
<linearGradient id="paint3_linear_4009_207" x1="164.5" y1="54" x2="164.5" y2="154" gradientUnits="userSpaceOnUse">
<stop stop-color="white"/>
<stop offset="1" stop-color="white"/>
</linearGradient>
</defs>
</svg>
