<svg width="1421" height="455" viewBox="0 0 1421 455" fill="none" xmlns="http://www.w3.org/2000/svg">
<rect width="1421" height="455" rx="32" fill="#2793BA"/>
<mask id="mask0_4069_209" style="mask-type:alpha" maskUnits="userSpaceOnUse" x="0" y="0" width="1421" height="455">
<rect width="1421" height="455" fill="#0152A8"/>
</mask>
<g mask="url(#mask0_4069_209)">
<g opacity="0.27">
<path d="M1291.14 -16.9593V-74.2418L1241.32 -103L1191.73 -74.2418V-16.9593L1241.32 11.7989L1291.14 -16.9593Z" fill="white" fill-opacity="0.5"/>
</g>
<g opacity="0.41">
<path d="M1392.89 -16.9593V-74.2418L1343.3 -103L1293.48 -74.2418V-16.9593L1343.3 11.7989L1392.89 -16.9593Z" fill="white" fill-opacity="0.5"/>
</g>
<g opacity="0.5">
<path d="M1494.64 -16.9593V-74.2418L1445.05 -103L1395.23 -74.2418V-16.9593L1445.05 11.7989L1494.64 -16.9593Z" fill="white" fill-opacity="0.5"/>
</g>
<g opacity="0.58">
<path d="M1443.88 71.1852V13.6689L1394.06 -14.8555L1344.47 13.6689V71.1852L1394.06 99.7096L1443.88 71.1852Z" fill="white" fill-opacity="0.5"/>
<path d="M1342.12 70.5349V13.0185L1292.3 -15.5059L1242.71 13.0185V70.5349L1292.3 99.0592L1342.12 70.5349Z" fill="white" fill-opacity="0.5"/>
</g>
<g opacity="0.41">
<path d="M1291.14 159.331V101.814L1241.32 73.0562L1191.73 101.814V159.331L1241.32 187.855L1291.14 159.331Z" fill="white" fill-opacity="0.5"/>
</g>
<g opacity="0.5">
<path d="M1392.89 159.331V101.814L1343.3 73.0562L1293.48 101.814V159.331L1343.3 187.855L1392.89 159.331Z" fill="white" fill-opacity="0.5"/>
</g>
<g opacity="0.6">
<path d="M1494.64 159.331V101.814L1445.05 73.0562L1395.23 101.814V159.331L1445.05 187.855L1494.64 159.331Z" fill="white" fill-opacity="0.5"/>
</g>
<g opacity="0.31">
<path d="M1342.13 247.242V189.959L1292.31 161.201L1242.72 189.959V247.242L1292.31 276L1342.13 247.242Z" fill="white" fill-opacity="0.5"/>
</g>
<g opacity="0.25">
<path d="M1443.88 247.242V189.959L1394.06 161.201L1344.47 189.959V247.242L1394.06 276L1443.88 247.242Z" fill="white" fill-opacity="0.5"/>
<path d="M1240.41 71.445V14.1625L1190.59 -14.5957L1141 14.1625V71.445L1190.59 100.203L1240.41 71.445Z" fill="white" fill-opacity="0.5"/>
</g>
<g opacity="0.58">
<path d="M143.847 427.814L143.847 485.331L193.669 513.855L243.258 485.331L243.258 427.814L193.669 399.29L143.847 427.814Z" fill="white" fill-opacity="0.5"/>
<path d="M245.609 428.465L245.609 485.981L295.431 514.506L345.02 485.981L345.02 428.465L295.431 399.941L245.609 428.465Z" fill="white" fill-opacity="0.5"/>
</g>
<g opacity="0.33">
<path d="M42.0969 427.814L42.0969 485.331L91.9193 513.855L141.508 485.331L141.508 427.814L91.9193 399.29L42.0969 427.814Z" fill="white" fill-opacity="0.5"/>
</g>
<g opacity="0.25">
<path d="M-9.83072 513.855L39.7578 485.331L39.7578 427.814L-9.83071 399.29" fill="white" fill-opacity="0.5"/>
</g>
<g opacity="0.41">
<path d="M296.589 339.669L296.589 397.186L346.411 425.944L396 397.186L396 339.669L346.412 311.145L296.589 339.669Z" fill="white" fill-opacity="0.5"/>
</g>
<g opacity="0.5">
<path d="M194.839 339.669L194.839 397.186L244.428 425.944L294.25 397.186L294.25 339.669L244.428 311.145L194.839 339.669Z" fill="white" fill-opacity="0.5"/>
</g>
<g opacity="0.6">
<path d="M93.0891 339.669L93.0891 397.186L142.678 425.944L192.5 397.186L192.5 339.669L142.678 311.145L93.0891 339.669Z" fill="white" fill-opacity="0.5"/>
</g>
<g opacity="0.21">
<path d="M-8.66089 339.669L-8.66089 397.186L40.9276 425.944L90.75 397.186L90.75 339.669L40.9276 311.145L-8.66089 339.669Z" fill="white" fill-opacity="0.5"/>
</g>
<g opacity="0.31">
<path d="M245.597 251.758L245.597 309.041L295.419 337.799L345.008 309.041L345.008 251.758L295.419 223L245.597 251.758Z" fill="white" fill-opacity="0.5"/>
</g>
<g opacity="0.25">
<path d="M143.847 251.758L143.847 309.041L193.669 337.799L243.258 309.041L243.258 251.758L193.669 223L143.847 251.758Z" fill="white" fill-opacity="0.5"/>
<path d="M347.316 427.555L347.316 484.838L397.138 513.596L446.727 484.838L446.727 427.555L397.138 398.797L347.316 427.555Z" fill="white" fill-opacity="0.5"/>
</g>
<g opacity="0.52">
<path d="M42.0969 251.758L42.0969 309.041L91.9193 337.799L141.508 309.041L141.508 251.758L91.9193 223L42.0969 251.758Z" fill="white" fill-opacity="0.5"/>
</g>
<g opacity="0.52">
<path d="M-9.83072 337.799L39.7578 309.041L39.7578 251.758L-9.83071 223" fill="white" fill-opacity="0.5"/>
</g>
</g>
</svg>
